/* XPM */
static char *texture_z_21[] = {
/* columns rows colors chars-per-pixel */
"64 64 5 1 ",
"  c #7E7EF2",
". c #817EF2",
"X c #7E81F2",
"o c #7D88F2",
"O c #8181F2",
/* pixels */
" .. .OOX XO .OXOXO  OO  .OXO   XOX.OX.  O.OX.O   . XXXXOO. X.   ",
"XO..... .OO O X    OOOXX..OXX OOXXX     OXO..  .... .XOo .. . XO",
" O .OX  .O. ..   .OOOX.XOXO. XO..    ..O.XXX.XXX... ... XX    ..",
"X OX. .XO. XOXX OO...XO O. XO  XO. X O.O.O.XOOoXOO. .OO XX  ..OO",
"XXOOXXOOX . ..  ..O..    .OX .X    XXOOOOO. O XXOXXXO..   XoOOO ",
" O ..X ..XXO.. X..OO.X  .OO  .  ....OoXOOXXO .X .OXOXX    OX.. .",
"O   .O  ..  O   XO. .. XO.O XX  X.O..  .O.X X.. OO..  .X .. XO..",
"XoX..OXXO. X.XXXOO.X .XOOO.OOXXX OO...X...XX. . .. .XOXXXOX . OO",
".XXXO OXXX. X.OXXX. . O OO    X OX. ...O..  X .  ....OOXOO XOXO.",
"..XXXO. .XXO.O..   OOO .O. .   X.. XXOOO.  . X..   O.O    .OOX  ",
"...X.X. O  X. .O..OX   .... .  XX..OOXO OX O   .. OO .    ... XX",
" .. ..X.O XOX . .OO XOOO .OOXXXXX....XX OOXXX X .OO OOXXXX... OX",
"XOO OO .  ..XXO OOO.XX .OOOX.OX XXOOOO X...   XXO.OOOX  X XX.X .",
"OX  .   .OOXX.   ...  OX..  .. XOXOOO.XX..XX .XOO... .OXOoXX..  ",
"OX   .OX...XXXXOOO..XX. ..XXOOXOO.X.  OXX... XOOOOOOXO.OOXXXX OO",
"OXXXXXO..OXOXOXOX ...XXXO. .XXXOXXXO.OO  O O XO. O.O.XXO .XXXOO.",
"OXXXOOX OOOX..XXXXXX..O OOO..OXOXXXX..  .OX .OX XOOX..O OOOX XXX",
".O  XOXoOO..OO.XXOXXO .XX .OOO XOX.  . X. .XO. O.OOXOX OX.  X .O",
"....   XO .XO.  O.XXX ...XO...  .     . X.OX. XO..OXX O  X   XO ",
".... XXXXXOOX..XX..XXXO .O  . .. .XXOXXXOOOXX .O... .  ..O X.OXX",
"OX.. OO.. . . O  XX .  ..OX .X O X.XXOoOX.. .X...O. ..X..   ..  ",
".X....XX. XX... ..     ... XO.OX .X..O X X. .X.X.. ... . .XXX. X",
"  . ..X . .XOX..OOXXXOXXXO...O.  ...OOXXX ..OoOXX XOX.XO OXXOXOX",
"XXO.O.  ...X.X.OOOXOXOOoX .O..   OOO XXXXOX.. OXX.OOX.OXO. ...XX",
"    OOO XO..   OO   .OO. XXOO. X.O .OOOXXOXXX ..XOO XX  .OXOO  .",
"XoXO.   OOOXXXX.    OO.. .OXXX.XOOOO.OX O XXOOX. OOXOX X...OXXX.",
".XOO   ...  .  . . .XO X .OX  ..  ....    . .  OOO . . X ..    .",
"OOO   O. O .  .X...OOXOXXO. . ..XX... .  XOXOOXX..  .    ...O  O",
"O. X  .. .. OXXXX.OO... XO .  O. OO ... XX. .   ...XX   .O .  ..",
"OX XXXXOO .....XOO.. ..   XOXOOOOO  ....X XX . XO..OXXXXOO OXX .",
"O XOXXXOOX X.O.XXOO.X..XXO OXOOOO  O..O.. OXXO.XO.O.  .XXO .XO O",
"OOOXXXXX  OOXO.  .X. OO.XXXOX XO XX. OO...X.XXOX .O. ..OXXX. ..O",
".. X XX .OOXXX  ...OXoX ..O    .X . .OO ... .OX XX  XXOO  XXOXXO",
"..XXX XXOO.X   XOOOO.X X...OOXoOXXOXOX X.O.XO. OXXO..XOX..OOXXOO",
"OOX XXOXOOO .XXXOOXO.  X  O.OO    XOXX XOO  ...X. X . . OOOXXXOX",
".. X X. XX.XXXXXO.. ..  .OO.O  .  .X XX.O.  ...OOXX .XOOO.. . OO",
" ...  .XOXO.. OXO.... . .O.X.  . O.OOXXXO   OOX.OXX O .  ..XO  .",
".. .O ..    .. X.O ..XOXOX.. .  ....OXX..XXX.. ...XXOXXOOOO  .  ",
"....  O  . XOO.XXOXXOOOXXXO.XOOXOX...  XO oOOO. ..OX. X .    .  ",
"X ..OOOO .XX..OXOOXOOOOX XX .OXOXXO..XX .XXX.OOX...OX.X .O  XOOX",
".XO ... XX.XOO..X ... . .O.XOOX. XO O. X..  X O.XO.  X  ..XXX.. ",
"..X ... . XOXX  ..X.    ..XOOXX .OXOO OXO  .O ..  OOXX XO..X OOX",
"X.XXOX...O...XXO .OX O  ..  ..  ...O.XO X  .. .O O.OX  O.O. XOOX",
" X.X.XX..O.O XXXOOO XOXXOO    OXX.O .   . XO .OO ..  oXXOOOOOXOX",
" .. OO O ... X  .   OX  O O ....XOOOOO O  OOOOXXXXOO..  . OXOO  ",
"X  O.. .OX.OO   ... ..XOOXOX.. .OO.OXXXOXXOOOOoO XO    X.OOXO.XX",
"XXXOOX OO ... XO .OOO.  ..XXXOOOOXOOX XOX ..OOoOX.O.X .OOO.XX . ",
"XXXO OX. .OO XX  .....XO .  X..O.OOO XX  O OOOOXXO   O .....   .",
"    ..  .OOO.XXXXOOX..O X .   OO. . .   .OOO... X XXXXXOOO.O.X X",
"    OO.OOOOXXX XOOO OX..  . XO.OO   .   ...OO..   XXXXXOXX...  O",
"XXXXOoOOOO.      OXXOXXXOoO.OOO.. X .. X.....    .X .XOXOoX.XXX ",
"XOXXOOOOOXO  . XOOOXOOOXOXXXOXO.  OX.  OOOO.  .XX . .XX .  X. XX",
"O .OXOXO    .  OO.. ..  OX  .  .  .   X.X ..OXO   . OOX X   .. O",
" .OOOOX. X   .OOX. ..  ...  ..XO. O.OXXOXXO. O.X .O... .   X..O ",
".OOXO.  . XXOOOXXOXO. XOO  X.  .. . OOXOOXOOOX   .OO..  . . O.. ",
"OOOOX.  ..XXO..XX. OX OX. XXOOXOXOOO..XOOOXO. XooOO. . XX..  .OO",
". ... XX . . ...X . . . XOXXOXX   . OO... .. .. X .  .. OX  XO. ",
"XO.O    O OX.. . X.XO.  O. OOXXXOOXXOOXX. O OO  .XOXX  ..  OOO.X",
". OXX  X.XO .  ..OXX . OO..XOXXXXOOXOO.OX . .. XXOO X XO X......",
"OOX  X.XOXXX OOOOO  OOXO ...OOXXXO. ...  XOX...X  . XXOOXXXXOOOO",
"..XXX OOX .XXOOXOXXX..   O....   .OX .. X.. O.O  XO   O.XXOOOO. ",
"OO .OXXOXXOO OOOO   XOOXOOOOOOX XX .XOOOX .. .OXXOXOXOOOXOXXXX.O",
"O XOO.X.. O.XOO..  OXOOOOO.O O  O .OXXO. XX .O.XXOX.X.O  X .XXX.",
".  . X.  XXOX.OO XOO XOOX ...  X  .. .X. OXOO.O.X XO X..XOX.OOXO"
};
