/* XPM */
static char *texture_z_25[] = {
/* columns rows colors chars-per-pixel */
"64 64 25 1 ",
"  c #777BEB",
". c #7B7BEC",
"X c #7F76F2",
"o c #767FF1",
"O c #7D7DF5",
"+ c #7E7EFB",
"@ c #8677ED",
"# c #857BEC",
"$ c #8076F2",
"% c #827EF5",
"& c #897FF2",
"* c #817EFB",
"= c #7785EC",
"- c #7B84EC",
"; c #7B88E9",
": c #7680F2",
"> c #7D81F5",
", c #7F89F2",
"< c #7E81FB",
"1 c #8484EC",
"2 c #8488EA",
"3 c #8282F5",
"4 c #8981F2",
"5 c #8089F2",
"6 c #8181FB",
/* pixels */
"5,3,35,,5555,,<=O33<3>65,6<6<36&1,556,,5565<,53=:363,<6,6<<6<5<3",
"%*<<33<<3*<*+<3:366<66<5<<<<6<<34<666<<<<36<<6<o>66<<<666<,666<3",
"*3<><<3>*3*<3<<:*666<66<,<<<<<+3436+<<<<6<666<<:>666<6666<6<<<<<",
"%**3<3<><36+*<<:6&*6<<6<<6<<<<<%&6*666<,33<3<<+:>666<<<<666<<++<",
"4*63633<,+*>%+<:%66**<<<<6<<<<+>&**3<*6<<>3++<<:O66**6<<<<<<<+<<",
"63%*63<*O>*>>6+o%66**<6666<<<<+346**<3*++O3+<<<:36666666<+<+<+<+",
"&66**+O%*O<%<++=****6*++<<6<++++&6**+O36<>3+%<+ O***666+<6+++++:",
"&*<**%<>O+>%+o+o3666*6++666<<<<:4*<%**6*+<<O<++oO*66&6<*<6<<<<<<",
"&*+3363O3<3O*+<=>***6*+<+++<<<<34**6>**+%*+>O+<o*&66*+++6**+<<++",
"43*%*+333><>>+*o>66**6<*<<+<<++%&*6%3<3%3++%+O+:*&6****+*<*+++<:",
"63*3*%<+<+*++>+:>**66****+<++++346*33<>*%<>>><<:>6****++6<6<<<+<",
"&6>*O****<>OO++:%*66****66+<<<<%&*66*++O3*<<<<<:>6***+++**+++<+<",
"&66*O*%%+++>3O+oO6***+****+*+++O&&**X++*+**+++6o>66**++**+*++++o",
"6*+3<+*+O**O++OoO***++*+*++*+++<4*+%**+**++*++< O6***+**+++*++<+",
"&*+*+++X%+**+33:O*****+**++++*+34333**+3*++*+++oO****+++$***++++",
"$$$$XXX@$$$$X$$ -33>+$>3%3OX3331@$O$$$$X$$$$$XX.-3>3>3O++%3>O>>,",
"X%6&OOO%<<33OOO#255,55,,,3,,555=.3>3%%O3>3%,OOO#13,55,,;555,,,5,",
"3666<666,<66<6<3336366<<36<<66<o>6<6<<<66<<6<<<%&&6<<6<<6536<5<>",
"*666<<6<<<<<<6<34*63<3<,3<<+66+o>6<6<6<666<<<<<<463+66<<<636<<<:",
"<*66<6<6<<<<<<<3&66*66<<3<<3,<+:>*666<<666<<<<<O463<36<<<<66<++:",
"666666<6<<<<<<+&&6**63<<3<>3<<<:O6**6<<<666<<<+<&&**3*+%%<<O+O*>",
"666666<6++<+<+<34*++**+*+++%+++ O6*6**666<+<++:<4**363<<3+3<++*:",
"%6666<66+<<+++<O4**33<+%%<>*<<<o*66*66+*6+++++<%&6*636<<<<>>><<O",
"&*666<6<+++<+++>43363+O**3+OO<<:3&6*6<<<*<<<<++343666**6<3<<+++o",
"*6**6+<++6+++++>4*6**<<33OO%*++oO666&6*6**+++++3466**+63++*+<O+o",
"6*66*<*<<66<<<<+&***3O<>*<+,>++:%66***6*+*<<+<<%&*6**+**+<*O><+o",
"6&&6*++*6<<<+<<346*6++*+*3*<<O<:3*66*+<<*+++<<<+&***++**3++><><:",
"**6&*+***+++<+<%&*33+33+<+OO+6<:O66****++**++<+:463%*+$**+*+o+<:",
"6****++*+*+++++O4*3*+++%+*+O<3+o$**+**+***+*+++34**3*O+%*X%*+<+:",
"&*****+**++++++&&6++*+**+%++*<<o<******+*++*++<3&63*++<>*++%+<<>",
"****+++*+++++*+%4**+*++<+*++**+oO**+***+*+*%+++%&6*++*++%++%*%+:",
"5333$*%3O>%3+%+1@$$@@X$$XXX@$$$ -3>3O%OO>3%O><31@$$XXXX$$XXX$$$o",
"25,,,555,,,,555;.3+,O3%OO>>3%Oo#25,553,,55,,3,,;.%XO3,O3O%,3<3O$",
"*<><666<<<+<<36:><6<66666<6666+34+*33<<<,633<<<:>6666<<6<6<6<6<3",
"&*<36<666<<33<<oO3666<6<<<<<6<+>4<333,3<6<33<<+o36666<<<6<65<<<<",
"&***36<6<<<3*<*:>6666<6<<6<6<<+O&>336<6<<<6<<+Oo>6666<66<<6<<<<<",
"46333636<+>OO<+:O66*6<66<<6<++<>463*3<6*<>3++>+oO*66666*<<<<<+++",
"46*63<*++<*<<+< O**6*6<<<66<+<+<46*3*6<*<+*+><>o36*66**6<++++<+<",
"&****+*+O+>>>O+:***66*+++6<++<<3&*****<O*><OO++=%666*66*<<+++++:",
"46*33%*+O3<%<<<>36&66<6<6<6<<++34*333++3*><><<+o>******66<<+<<<<",
"4***33*O3*<>3<3o>*66*666*+*++++O&*3*3++>+**<+<<o%6*66****+++<<<+",
"3636*<+%>%*<+++:>66***66*+*+<<<>43*6*+%*>%*><+<=3*6**++**<<<<+<+",
"666*3<>3+3*+<+<o>3*****6++++++<>466*<><3+%3+O++o>****6**6+*++++<",
"&*63*O<+3*O%+<<:O**6****+**+<<<O&6***++OO%*+<<+oO*6**+*+**++<<<<",
"*6****+%O+%*+<6oO*****+***+++++%&**%****<3*+%++oO6**+****++*+++:",
"&*+++*6<+<+O**+oO*+**++**+*++<+%43*+*O+*+*+++<+:>6**++*+*+++++<<",
"&*+**+*+++++**+oO****++*+***+++346**++36+6+++OO O*****+*+*+**+++",
"$$X$$X$$XXX#$$$ -3>3O3+X>33>O3,1#$O$X$$X$$XXXX$.-333>%O%O%33>:>,",
"$%%O53O3OO6<33O#2,5-555,,55,,53=.OO3O3O%%>>3O<O@2555,,,555,,5,,,",
"366<<6<666,<6<<3&3*<+3+333<+33<>>66<66<66<<<<<<34*<3<,O%3*<66++o",
"66666<6666<6<<<>4<3*<3<,33<+<<+o:666<66<<<<66<<>466<6<<33336<<+o",
"6666<666<<<<<++34663>63<3<<3+++o%*666<<666<<<<<O&*6<6<5<<<*6++<O",
"6*&*6666<<<<<<+>46663<<+6<<><+<=O666666<<6<<+++>&**6366<,<<%O<oO",
"*66**666<++<+<+%&****33>%*3<<<<:>6666+*6<<<<<<<+&6*6%**+*++<<><>",
"3&6666**<<<+++<+4***3<*OO3**<++:***6666*<<6<+<<%46**33+OO+O3+<<:",
"*66**66*<++<<<+343*3*++O336++<+ %*&**<66+<<<<<+3463%***>%>3+<<+:",
"66***++*+++<<+<>4666+3>>3+O++<<:36*6666*++*++++3&6*63<3<<3<>*+<o",
"&*6**+**+<<<+<<%&***+**>*3<<<<: %666&*6*+**+++<%&*%**+6++<>%*++o",
"*******+*+*++<<%46*6<O3<**O3+++o>**&6<6*++++++<:4%**+**+*6<<<+<:",
"&6*******6<+<+<%&*6*+>+%*%++<<+=O666**+++**+<<++43363<%+%6++<+<O",
"6*****+*+*++++<>46**+%+*O+%*3++:%*****++**++<<<%4*3**++*%*++O+<:",
"*66*+**$+*+*++<O43*+X+*++>*%+++o$***+++***+*+++3&66*++X++***+<+o",
"****+***X+%++++34++++***+*+<**+o+*+**+***+*++++34*+++%*+%***+++:",
">****$+*X+*O*O+&@OX$*$X%%XOX$$+ -*+*X+*$+*$O++<#&XX$$+X$X$$%XXOo"
};
