/* XPM */
static char *south[] = {
/* columns rows colors chars-per-pixel */
"64 64 29 1 ",
"  c #0C6624",
". c #094D1B",
"X c #073A15",
"o c #020D05",
"O c #010A03",
"+ c #000100",
"@ c black",
"# c #010703",
"$ c #0A591F",
"% c #010803",
"& c #010B04",
"* c #04240D",
"= c #084318",
"- c #031B0A",
"; c #000301",
": c #021407",
"> c #052C10",
", c #031808",
"< c #000401",
"1 c #041F0B",
"2 c #000201",
"3 c #010502",
"4 c #010602",
"5 c #021206",
"6 c #010D05",
"7 c #031E0A",
"8 c #010402",
"9 c #031608",
"0 c white",
/* pixels */
"                                                                ",
"                                                                ",
"                                                                ",
"                                                                ",
"                                                                ",
"                     .*64@@@@<5*=                               ",
"                  $*+@@@@@@@@@@@@7.                             ",
"                 $,@@@@@@@@@@@@@@@<>$                           ",
"                .5@@@@@@@@@@@@@@@@@@,.                          ",
"               .O@@@@@@@@@@@@@@@@@@@@6.                         ",
"              =4@@@@@@6X.$  .X74@@@@@@,                         ",
"              5@@@@@+>         $7@@@@@@.                        ",
"             .@@@@@;X$          $*@@@@@*                        ",
"             *@@@@+.              5@@@@<                        ",
"            $@@@@@*               >@@@@<                        ",
"            =@@@@<$               =@@@@@                        ",
"            X@@@@:                .@@@@4                        ",
"            X@@@@<.               X@@@@6                        ",
"            .+@@@@>               7@@@@7                        ",
"             5@@@@4$              &@@@@X                        ",
"             X@@@@@.             $;@@@@.                        ",
"             $;@@@+=             =@@@@4$                        ",
"              >+@@O.             7@@@@7                         ",
"              .>&6X$            .;@@@@=                         ",
"               $..$             >@@@@;$                         ",
"                                O@@@@:                          ",
"                               .@@@@@X                          ",
"                               7@@@@O$                          ",
"                              X+@@@@X                           ",
"                             =<@@@@5$                           ",
"                            $6@@@@<=                            ",
"                           $7@@@@+X                             ",
"                          $*+@@@@*                              ",
"                         $*+@@@@:$                              ",
"                        .,@@@@@6.                               ",
"                       =O@@@@@6.                                ",
"                      X<@@@@@6.                                 ",
"                    $7@@@@@@6.                                  ",
"                    7@@@@@@,.                                   ",
"                  $7@@@@@+>$                                    ",
"                 $6@@@@@@>                                      ",
"                $5@@@@@@7$                                      ",
"               .6@@@@@@X$                                       ",
"             =5@@@@@@@7                                         ",
"           $7@@@@@@@@7$              $=X>>,&@O%@;@@>$           ",
"           >@@@@@@@@<:7>>*****7,5O4@;@@@@@@@@@@@@@@@>           ",
"           @@@@@@@@@@@@@@@@@@@@@@@@@@@@@@@@@@@@@@@@@@           ",
"           7@@@@@@@@@@@@@@@@@@@@@@@@@@@@@@@@@@@@@@@@>           ",
"           =4@@@@@@@@@@@@@@@@@@@@@@@@@@@@@@@@@@@@@@>$           ",
"            =,&54@@@@@@@@@@@@@@@@@@@@@455,77>X=.$$              ",
"                 $.X*,:57*****7,*X.$$$                          ",
"                                                                ",
"                                                                ",
"                                                                ",
"                                                                ",
"                                                                ",
"                                                                ",
"                                                                ",
"                                                                ",
"                                                                ",
"                                                                ",
"                                                                ",
"                                                                ",
"                                                                "
};
