/* XPM */
static char *texture_z_2[] = {
/* columns rows colors chars-per-pixel */
"64 64 144 2 ",
"   c #2E2E2E",
".  c #2F2F2F",
"X  c #303030",
"o  c #333333",
"O  c #343434",
"+  c #353535",
"@  c #363636",
"#  c #373737",
"$  c #383838",
"%  c #393939",
"&  c #3A3A3A",
"*  c #3B3B3B",
"=  c #3C3C3C",
"-  c #3D3D3D",
";  c #3E3E3E",
":  c #3F3F3F",
">  c #404040",
",  c #414141",
"<  c #424242",
"1  c #434343",
"2  c #444444",
"3  c #454545",
"4  c #464646",
"5  c #474747",
"6  c #484848",
"7  c #494949",
"8  c #4A4A4A",
"9  c #4B4B4B",
"0  c #4C4C4C",
"q  c #4D4D4D",
"w  c #4E4E4E",
"e  c #4F4F4F",
"r  c #505050",
"t  c #515151",
"y  c #525252",
"u  c #535353",
"i  c #545454",
"p  c #555555",
"a  c #565656",
"s  c #575757",
"d  c #585858",
"f  c #595959",
"g  c #5A5A5A",
"h  c #5B5B5B",
"j  c #5C5C5C",
"k  c #5D5D5D",
"l  c #5E5E5E",
"z  c #5F5F5F",
"x  c #606060",
"c  c gray38",
"v  c #626262",
"b  c #636363",
"n  c #646464",
"m  c #656565",
"M  c #666666",
"N  c #676767",
"B  c #686868",
"V  c #696969",
"C  c #6A6A6A",
"Z  c #6B6B6B",
"A  c #6C6C6C",
"S  c #6D6D6D",
"D  c #6E6E6E",
"F  c #6F6F6F",
"G  c #707070",
"H  c #717171",
"J  c #727272",
"K  c #737373",
"L  c #747474",
"P  c #757575",
"I  c #767676",
"U  c #777777",
"Y  c #787878",
"T  c #797979",
"R  c #7A7A7A",
"E  c #7B7B7B",
"W  c #7C7C7C",
"Q  c #7D7D7D",
"!  c #7E7E7E",
"~  c #7F7F7F",
"^  c #808080",
"/  c #818181",
"(  c #828282",
")  c #838383",
"_  c #848484",
"`  c #858585",
"'  c #868686",
"]  c #878787",
"[  c #888888",
"{  c #898989",
"}  c #8A8A8A",
"|  c #8B8B8B",
" . c #8C8C8C",
".. c #8D8D8D",
"X. c #8E8E8E",
"o. c #8F8F8F",
"O. c #909090",
"+. c #919191",
"@. c #929292",
"#. c #939393",
"$. c #949494",
"%. c #959595",
"&. c #969696",
"*. c #979797",
"=. c #989898",
"-. c #999999",
";. c #9A9A9A",
":. c #9B9B9B",
">. c #9C9C9C",
",. c #9D9D9D",
"<. c #9E9E9E",
"1. c #9F9F9F",
"2. c #A0A0A0",
"3. c #A1A1A1",
"4. c #A2A2A2",
"5. c gray64",
"6. c #A4A4A4",
"7. c #A5A5A5",
"8. c #A6A6A6",
"9. c #A7A7A7",
"0. c #A8A8A8",
"q. c #A9A9A9",
"w. c #AAAAAA",
"e. c gray67",
"r. c #ACACAC",
"t. c #ADADAD",
"y. c #AEAEAE",
"u. c #AFAFAF",
"i. c #B0B0B0",
"p. c #B1B1B1",
"a. c #B2B2B2",
"s. c #B3B3B3",
"d. c #B4B4B4",
"f. c #B5B5B5",
"g. c #B6B6B6",
"h. c #B7B7B7",
"j. c #B8B8B8",
"k. c #B9B9B9",
"l. c #BABABA",
"z. c #BBBBBB",
"x. c #BDBDBD",
"c. c #BEBEBE",
"v. c #C0C0C0",
"b. c #C3C3C3",
/* pixels */
"v W H Z S M v v M S M Z M l Z 2 l ....=.$...| v , l v v Z M Z 8 2 H S v M M Z W L L M S M p S u p / Y | ..$.=.M , M l S Z v H l ",
"/ e.2.>.=...| ..$.../ ` ` ` ..h p $.2.$.| ` | v v ..| L | $.$.h p @.$...$.>.>.e.$.@.| ../ | e.H h ` / W / / ` u v >.$.@.$...2.L ",
"Y 2.>.>.$.$...$.2.../ ..@.` ..h v $.@...` / ` e h | ` W | ..@.p p W ..>.>.e.=.$.....` @.@.@.2.Z Z $.` | ../ W 8 l >.=.$.=.$.$.M ",
"L e.2.>.=.$.$.=.>.....$.../ ..M S $.` ..Y L | u p W / ` ..` @.l l ....2.e.8.=.@...` W / ../ | M Z =.` @.$.` Y 2 h ..2.u.u.=.=.Z ",
"M =.=.@.@.$.$.| ..$.$.$.| ` ..M Z >.=.@./ ` | h v $.` W ` | ` l l $.=.=.>.2.=.@.....` ` ` / W h l ....@.@.../ e v =.>.8.2.$.@.S ",
"L @.$.@...$.=.=.=...=.=.=.$.=.Z L 8...../ ` @.Z v ../ / @.@.| v H 2.>.=.` ..@.@.| / ` | | | W u l ` / ` W | ` l M =.....8.>.$.H ",
"H =.=.2.>.$.=.8.8.| @.>.=.=.8.Z L e.| @.@.` $.Z v | W / | $.=.M H e.2.>.| / @...W L W / | ..` p M | Y W ` ..$.l Z 2.@.@.2.>.>.L ",
", Z S S S l M S Z M v Z Z Z S 2 2 Z l l v l v , v ` W / Y ` 8.Z 8 H M v l l M M u e 2 p p l h O ; p u u p l v ; S =.=.>.>.>.8.H ",
"O e h M M h l O ; M Z M M M h u p v M M M M M ; l / W / W W $.Z , Z v S S M Z ; & p h h h v h u l Z M Z l l p O M @.$.>.>.>.=.S ",
"Z | ` ..@.$.@.l l ..>.2.>.>.@.@.@.=.>.2.>.@.=.M p Y W W W ..=.M S 8.8.2.2.8.8.v h | $.$.@.$.=.>.=.>.e.8.=.` / h h @.>.$.` ..>.Y ",
"H $.| ` ..@.@.h l @.>.8.2.2.2.>.$.=.$.$.=.=.2.M v $.......@.2.Z H e.8.$...$.$.h h ..=.=.$.>.e.p.2.=.=.$.@.| | l M e.2.$.| ..2.Y ",
"Y 2.$.| $.@.@.Z h ..>.=.2.e.2.=.e.>.| ` >.2.=.v M =.@.....@.$.v H p.e.>...` @.M h / ` ` @.=.u.p.u.>.$...@.| / h Z 2.8.>.@.=.=.H ",
"Y 8.....>.@.>.Z v >.>.| =.2.2.8.e.>.W Y ` $.>.v M ..` ..@.| @.M H g.8.>.../ $.Z l | ` ` =.=.e.g.e.>.@.| ` W ` h Z 2.8.8.@.$.>.L ",
"Z | $.>.=.$.2.H S 8.$.@.2.=.8.e.u.2...` ..=.=.v h | | @.2...@.M M >.2.=./ / @.M S =.$.$.2.=.2.e.2.2.@.` | ` ..l u ..@.=.2.$.>.Y ",
"M @.2.u.8.8.8.Z L 2.@...=.8.u.u.8.2.8.$...$.=.M Z @.@.=.>.@.>.Z v $.>.=.` ....p S >.@...$.8.>.=.$.>.$.| ` | | p e W ` $.2.p.e.L ",
"h / ..=.>.8.8.M 8 Z v l l v M M l Z Z M h v Z , 8 v l l l l v , l @.$.$.......u 2 M M v M S M l l Z p h u u h O O u u h M H M 8 ",
"p L W ..$...$.S 8 v u h v p p ; ; Z M Z Z v h v M M l l h e u & u ` | @.$.` ` l 2 M l Z S l v 8 2 M h p h u p h u e e e l l v e ",
"l S Y W ..` ..Z M @.` | $.| L e l @.| >.=.>.=.=.@.>.=.../ H H e 2 Y / | =...@.Z M 2.$.2.2.$.=.S M ../ / ` ` | ` W / W / | @.=.S ",
"Z | / W W ` | h l $.@.@.@.` ` h v ` Y @.@.e.2.$...$.@...` Y Y u e / ` ..$.>.>.v Z 8.$.$.$.$.2.Z v / H L L / W Y L / W ..@.$.2.H ",
"Y 2.@.| | | ..p h $.../ | ....h l ../ ....>.2.>.>.@.@.@.| ` $.l l @...@.=.=.8.Z M =.| ` =.2.=.l l | Y W W / ` ` / Y ` @.$...@.S ",
"H 2.=.| | | ` p h | | ..` W / p l ..` ....$.2.>.=.$.$.2.$...$.h p ` | ` @.| $.Z v >...@.$.2.2.v v @.@.$.| ` | ` ` / ` ..$...@.S ",
"L >.>.=.@.` / h h ` ..=.@.| | h v | / ..=.8.e.8.8.@.@.2.2.$.@.h v | ..| ..W ` v v 2.2.2.8.e.8.M M $.=.>.@.....@.$.@.@.@.>.>.=.H ",
"L 8.2.2.2.@./ h l @.` | | @.>.l l | | $.2.2.2.8.e.>.>.2.>.@.| p Z >.@.$.` / ` h M 8.2.>...=.=.l M >.2.2.>.=.$.$.=.@.` @...@.$.S ",
"e L Z Z Z l u , S >...| / ` >.M & u u l v v p h M Z Z Z M p h ; 8 L v l 8 e e O Z 2.>.=.` | | p , Z M l l v p h h u h l p u h 2 ",
"l H Y Y M u p ; S >.$...=.=.8.M O v l M Z l p o , M v Z M v h Z M v v l e 2 8 . v ` @.=.=.=.$.h ; Z l v p h l ; ; l h l l M M M ",
"=.8.p.8...` ..M M | ` | ..=.=.v l >.>.2.u.$.` l M $...@...$.| =.=.@.=...Y Z S 8 8 S / @.$.@.@.v l $.| @.| / ..Z M $.` | ` $.>.2.",
"@.@.| ` ` =.8.Z M $.| @.` $.>.Z Z 2.>.2.2.>.@.l Z >./ ` ..$.>.@.@.>.@...Y Z S u e ..@.=.=.@.$.Z h / Y / ` / | l S e.| ` ....=.>.",
"=.../ | $.>.e.M M =.=.=.=.e.p.H H 8.=.$.| | | p S =.@.$.>.>.u.=.>.8.$.@.../ ` p l ......$.....M l W W | ..| $.v Y e.$.@.$.@.>.2.",
"$.@.| $.u.e.p.H S e.2.=.=.>.>.S L u.>.@.| ` ` u M $.>.2.>.e.e.$.>.=.@.@.=.$.$.h l ....| ..` ` l Z =...@.$.$.2.M L 8.>.$.=.2.2.>.",
"` | @.=.2.u.v.W H u.e.e.8.>.$.Z H 2.>.....@.| p v $.>.2.8.u.e.=.@...@.=.=.=.=.h 8 W ..@.=.@...M S >.| W ` =.>.Z H >.$.2.8.u.8.u.",
"W / ....$.2.p.H M u.g.u.g.e.=.M Z 2.2.$.@.@.@.h v =.>.$.$.>.=.$./ | =.>.$.>.=.l e ` ../ >.2.@.v S 2.$.` / $.@.h Z >.>.>.=.>.2.e.",
"8 p p p h M S 2 2 L H S Z Z v , Z 2.$.$.@.>.$.h ; l M l l l l l u v M M M S Z , ; l h u h v l & Z 2.@.| @.8.>.v ; v Z Z M Z S Z ",
"; e u u h p v S Z S l M M v H p Y p.$.$.| | ` v ; l u l v l S e & M M M H v v Z Z v h l h 2 p 2 Z 2.@.$.=.>.=.M & l l Z M Z H h ",
"Z ` Y W ` @.$.8.e.>...@.@.$.u./ L 2.$.| Y L / v Z 2.$...| | =.Z p >.2.8.8.=.=.8.8.>...@.| L | Z p $.>.@.| @.$.v Z >.@...@.$.2.L ",
"M Y L Y Y @.` @.2.>.@.$.$.=.p.Y S $.....| Y ` l Z 2.=.| W L W p p @.$...` @.$.>.2.$.@.=.../ @.v h | $.=.=.=.=.l M @./ Y / ` @.v ",
"Z ` H Y / ` / @.$.$.$.| ..$.8.S S $.| ....` ..h Z $.@.@.` S ` l l 2...` / ` =.8.=...@.=.2...$.l p | @.>.>.$.=.l h ` ` ` | / @.v ",
"S @./ / ` @.| | ..@.$.@.| ..@.v S =.$.=.$.$.=.v S >.@.....` @.M M 8.../ / ` @.$...@.2.e.8.@.@.l e L ..>.=.$.$.l M =...` ` | ..S ",
"W =.=.=...=.=.| ....@.8.e.$.@.M M $.=.8.$.>.=.v v $.$...>.>.>.S S >.@./ L Y @.=.@.| 8.u.2.$.@.v l | ..$...@.=.M l @...` $.$.$.Y ",
"W u.u.8.=.2.2.$.=.@.>.8.2.=.$.h v $.=.e.2.=...p l >.8.$.>.2.>.M Z 2.=.@.| W $.>.@.` 2.8.2.=.=.M Z >.| @...` $.M l ..@.@.8.e.2.Y ",
"u W Y Z Z v M M M M v v l M v & ; h h v v l p O v $.$.=.=...=.l ; Z Z v l p v M h h h M v M M ; , M l p v l l 2 v | $.=.2.2.>.H ",
", v Z Z Z l v O , M M M M M h u h l v l h l l & v ` | $.$.| @.l ; M v v l u l ; ; p h v v M l e h l l h l v v 2 Z ..$.>.2.>.=.L ",
"Y >.2.p.e.2.=.v M =.$.@.` $.=.=.$.$.=.=.@.$.>.S l W W | ` / ..l M $.@...` ..@.l l | $.>...=.$.@.@.@.........=.S M @.....>.>.$.Z ",
"Y 2.>.8.2.e.8.M Z 2.$.| W ..2.>.=.@.| @.$.2.8.H Z $.| @.@...$.v Z =.| W Y / ` h l $.>.2...$.>.@...@.W Y / @.8.H Z 2.$.@.>.=.@.v ",
"W 8.>.=.2.>.2.Z M =.$.| | ..@.@.8.@.` ` $.@.@.M Z =.>.=.$.$.@.l S 2.@.....W | v l =.2.>.8.8.>.| $.>.` W ` ` @.v M $.>.$...| W h ",
"Y 2.$.2.2.=.2.S S 2.>.....` W @.=.....$.../ @.M M $.=.>.8.=.@.v M >.` | @...=.M M 8.>...2.>.@.@.$.2.$.| ` / @.Z v $.@...` W ` M ",
"L 2.u.z.e.>.8.H S 8.2...` / =.8.8.2.>.>.$.| $.M p @.@.>.g.2.>.H v ..` / W | $.v v =.@.` | W ` @...@.| | @.$.2.S v $.` / ../ / M ",
"H e.z.z.8.8.8.Z Z e.2.| L ..e.u.g.p.e.2.=...$.M p ` | =.u.2.8.H h ....L L / ..p h ..../ S H Y W | ......@.$.=.v M @./ W ` | ..M ",
"Z =.8.8.>.2.e.M 8 H H v p l v Z S L M Z M l M , , h p l S Z M , u ` L M S | ..p ; v M l 8 , ; ; 8 l h l l v Z ; , v p u u l v 8 ",
"M ..2.p.u.>.e.L e M h h l l M 8 e W H Z S M v p l S M M L S S ; p | / W W W | l , v h l l 8 ; . . p M v v v S H M M l p h u v p ",
"S 8.u.p.x.z.x.Y v $.` / / @.=.M H p.2.e.2.=.>.=.2.x.e.2.p.p.e.h e / @.=.@.| $.S l $.| W Y L Z 2 u / | | W ..2.>...>.>.@.| ` 2.W ",
"L p.u.u.g.b.x.Z h $.` W W ` =.Z Y 2.| =.$.$.$.=.=.8.8.8.8.8.=.h u ` $.2.>.@.=.Z M e.=.Y M H W u v | W ` Y ....| Y ` =.$.| ` >.Y ",
"L >.>.>.2.8.e.l u | ` | =.=.>.Z S $./ | ` ` ` | ../ ..$.@.@.$.h h @.@.$.=.$.2.Z M e.>./ W ` | p l ..| ../ / / | ` W | ..` / $.H ",
"M ..$.| @.....p p ....=.2.>.8.S M @...@.| ` | @.| / ..@.@...>.M l =.>...$.>.e.M M e.>.../ ` | p l $.=.$.` H Y ` ` | ..$.=.@.$.M ",
"W >.=.@...L W h u / =.8.8.8.8.M Z =.=.>...@.$.>.@./ $.e.e.>.>.M M 2.2.@.$.$.8.Z M 8.e.$.....| p Z =.>.@./ L L | | @.$.>.u.2.$.v ",
"| 2...$.@.Y ` l p | =.2.2.>.$.p v $.$.>.=.=.2.2.=.@.2.u.e.2.u.S S 8.>.>.$.| =.v h ..` ..| / ` h H e.=.$.....@.2.2.2.$.=.u.e.2.Z ",
"u M h h p p h 2 Z @...=.>.$.@.p , v h l l v v Z M v Z Z S M H 8 8 H M Z v h l , p W Y W Y L / p 8 S v h h l l S S Z M v H L S 2 ",
"v Z Z l p h h , Y 2.>.>.2.2.>.l ; Z v Z M v h O , h p Z v l l M Z S S S Z l l ; p ` | W | / L e & Z v M Z M M ; ; v Z H L H l l ",
"=.2.2.$.@.@.@.M S 8.e.8.2.>.=.M v 8.2.8.2.=.$.v v | ` @./ ` @.2.8.8.8.8.>.@...v h ` ` ` ` W W p l 2.=...=.>.e.L M 8.u.e.2.8.$.>.",
"....| ..| $.=.Z Z u.2.u.p.u.u.L Z >.=.=.2.>.8.M M $./ / Y / @.$.$.$...$.@.| | p h =.@.../ W / h h ..| | $.2.p.H S g.p.u.8.u.8.@.",
"@./ | @...=.2.v M =.>.8.u.g.p.H M $.@.=.2.$.=.v S =...| ` L ` ..@.@.@.$.$.$...u l $.@.$.@...| h v $.@.@.@.=.2.v M 2.e.u.e.8.=.@.",
"..` ` ` @.>.=.v v =.>.@.=.8.=.l h | @.>.8.2.>.v S e.>...W Y W / | @...$.2.2.@.h M @.` ` ....| p v =.$.$.=.2.e.l v 2.e.8.$.=...| ",
"` / ..@.....@.l h @.>...$.=...h e L | $.8.e.=.Z S 2.$.| ` / / ..` @.@.@.=.>.=.l l $.$.@...../ u v @.@...$.8.=.l v $...$.=.>.=.$.",
"W Y | @.......p u @.2.@.=.=...l u | 8.2.$.$.@.h l ..@.` / Y Y | W $.$.| ` ..@.p p @.2.2.>.$.` u v ` @...$.=...p v @.@.@...$.=.$.",
"h l v M v S S 2 8 L S Z Z S M , l 2.>.$...=.@.p , M H Z l l l M l S S Z M S H 2 2 H H L S Z M & u ` ` | ..=.$.l 2 Z H S M M Z S "
};
