/* XPM */
static char *texture_z_18[] = {
/* columns rows colors chars-per-pixel */
"64 64 139 2 ",
"   c #272727",
".  c #2E2E2E",
"X  c #343434",
"o  c #363636",
"O  c #383838",
"+  c #393939",
"@  c #3A3A3A",
"#  c #3B3B3B",
"$  c #3C3C3C",
"%  c #3D3D3D",
"&  c #3E3E3E",
"*  c #3F3F3F",
"=  c #404040",
"-  c #414141",
";  c #424242",
":  c #434343",
">  c #444444",
",  c #454545",
"<  c #464646",
"1  c #474747",
"2  c #484848",
"3  c #494949",
"4  c #4A4A4A",
"5  c #4B4B4B",
"6  c #4C4C4C",
"7  c #4D4D4D",
"8  c #4E4E4E",
"9  c #4F4F4F",
"0  c #505050",
"q  c #515151",
"w  c #525252",
"e  c #535353",
"r  c gray33",
"t  c #555555",
"y  c #565656",
"u  c #575757",
"i  c #585858",
"p  c #595959",
"a  c #5A5A5A",
"s  c #5B5B5B",
"d  c #5C5C5C",
"f  c #5D5D5D",
"g  c #5E5E5E",
"h  c #5F5F5F",
"j  c #606060",
"k  c #616161",
"l  c #626262",
"z  c #636363",
"x  c #646464",
"c  c #656565",
"v  c #666666",
"b  c #676767",
"n  c #686868",
"m  c DimGray",
"M  c #6A6A6A",
"N  c #6B6B6B",
"B  c #6C6C6C",
"V  c #6D6D6D",
"C  c #6E6E6E",
"Z  c #6F6F6F",
"A  c #707070",
"S  c #717171",
"D  c #727272",
"F  c #737373",
"G  c #747474",
"H  c #757575",
"J  c #767676",
"K  c #777777",
"L  c #787878",
"P  c #797979",
"I  c #7A7A7A",
"U  c #7B7B7B",
"Y  c #7C7C7C",
"T  c #7D7D7D",
"R  c #7E7E7E",
"E  c #7F7F7F",
"W  c #808080",
"Q  c #818181",
"!  c #828282",
"~  c #838383",
"^  c #848484",
"/  c #858585",
"(  c #868686",
")  c #878787",
"_  c #888888",
"`  c #898989",
"'  c #8A8A8A",
"]  c #8B8B8B",
"[  c #8C8C8C",
"{  c #8D8D8D",
"}  c #8E8E8E",
"|  c #8F8F8F",
" . c #909090",
".. c #919191",
"X. c #929292",
"o. c #939393",
"O. c #949494",
"+. c #959595",
"@. c #969696",
"#. c #979797",
"$. c #989898",
"%. c #999999",
"&. c #9A9A9A",
"*. c #9B9B9B",
"=. c #9C9C9C",
"-. c #9D9D9D",
";. c #9E9E9E",
":. c #9F9F9F",
">. c #A0A0A0",
",. c #A1A1A1",
"<. c #A2A2A2",
"1. c #A3A3A3",
"2. c #A4A4A4",
"3. c #A5A5A5",
"4. c #A6A6A6",
"5. c #A7A7A7",
"6. c #A8A8A8",
"7. c #A9A9A9",
"8. c #AAAAAA",
"9. c #ABABAB",
"0. c #ACACAC",
"q. c #ADADAD",
"w. c #AEAEAE",
"e. c #AFAFAF",
"r. c #B0B0B0",
"t. c #B1B1B1",
"y. c #B2B2B2",
"u. c #B3B3B3",
"i. c #B4B4B4",
"p. c #B5B5B5",
"a. c #B6B6B6",
"s. c #B7B7B7",
"d. c #B9B9B9",
"f. c #BBBBBB",
"g. c #BCBCBC",
"h. c #BDBDBD",
"j. c #BEBEBE",
"k. c #C0C0C0",
"l. c #C3C3C3",
/* pixels */
"l Y S N N l l l v Z v N v h N , s | | $.#.| ( $.' Q ( ' ' | | l , S Z h v v N Y S S N Z l r Z 9 r Q P ' | #.$.#.Q ( Q X.| Q #.P ",
"Q 9.>.=.#.| ' | #.| Q Q ( Q | s r X.=.#.( ( ' #.#.' ( G ( #.X.s r | X.| X.=.=.9.#.X.' ' Q | 9.S s ( Q Y Y Q Q Y | =.X.| X.| =.S ",
"P >.=.=.X.#.' #.=.| Q | X.Q | s l #.| | Q Q ( Q ' ( ( Q ( | X.r r P ' =.=.9.$.#.| ' ( X.X.| >.Z N #.( ' | Q P G ' $.$.#.#.#.$.v ",
"G 9.>.=.$.X.#.$.$.| ' #.X.Q | l N #.( ' P G ( Q ( P Q ( | ( X.s l | X.>.9.3.$.| X.Q Y Q | Q ' v N $.( X.X.( P P ' | >.e.9.$.#.N ",
"v $.#.| X.#.#.' | X.#.#.' Q | v N =.$.X.Q Q ' ' X.X.( Y ( ' ' h h #.$.$.=.>.#.X.X.| ( ( ( Q Y s h ' ' X.X.| Y Y | #.=.3.>.#.| Z ",
"G X.#.X.' #.$.$.#.| $.$.#.#.$.N G 3.| | Q ( X.>.$.| Q Q X.X.' l Z >.=.$.( | #.| ( Q ( ( ' ' Y r h ( Q ( Y ' Q X.$.#.| X.3.=.#.S ",
"Z #.$.=.$.X.#.>.=.( | $.$.$.>.N G 9.' X.X.' X.>.$.' Q Q | $.$.v S 3.>.$.' Q | ' Y G P Q ' ' Q r l ' Y Y ( | X.X.>.>.X.X.>.=.>.G ",
"h $.>.3.>.X.#.>.>.=.#.=.>.=.>.N , N h h l s l l l r e e 9 r Z 5 Z 3.$.X.X.X.$.$.Q G Z Q ( | ( e % r e e r h h h N v l N v v Z 9 ",
"r Y | $.$.| | ( X.=.=.$.=.=.| s # l l v v l l l h e e r e e l , v >.#.=.3.$.$.#.' Q Q ' ' #.' 9 - N N v h h r r l h v v l v v , ",
"N ( Q | X.| | ' | | =.>.$.=.X.h l $.>.>.=.X.$.$.' P Y Q Y | =.N Z >.>.>.=.>.>.#.' Q #.#.| X.#.v v >.3.3.$.( Y | ' X.=.#.( X.=.P ",
"S #.' ( ' X.X.| | | $.3.=.=.>.N v $.X.#.$.$.>.$.X.X.' ' | | =.v S e.3.$.| #.X.| | ' #.$.#.$.e.G N =.$.#.X.' ' X.$.9.=.#.' | >.Y ",
"P >.X.' $.X.X.=.' | =.$.>.9.3.l S >.( ( =.>.#.X.#.#.X.| | | #.l S r.9.=.| ( | $.' Y Q ( #.=.r.P S =.X.| X.' Q ' =.>.3.>.X.#.$.Z ",
"G 3.| X.$.X.$.=.X.$.=.' =.>.>.N S >.Q P ( #.$.#.#.| ( | X.| X.v Z i.3.=.| Y X.$.X.' Q ( $.$.9.G Z =.X.' Q Q Q ' $.=.3.>.| X.=.G ",
"N ' X.=.#.#.=.9.9.>.$.X.>.$.3.G S 3.' ( ' #.$.$.| ( ( | >.' X.v v =.>.#.Q ( X.=.>.#.X.#.>.$.3.S N >.X.( ' ' ' X.( | #.#.>.$.=.P ",
"v X.3.e.3.9.3.3.e.=.X.' $.3.i.P Z >.>.#.' #.$.$.>.| | $.=.X.$.N v $.>.$.( | ' ' >.$.X.| #.3.>.N l >.X.' ( ( ( Y P P ( #.>.e.3.G ",
"# r h N N S S v Z N l h h l N , l >.>.$.| | $.$.3.X.X.| ( | X.l % l l v s l h r v v v l l Z v % l =.' ( Q Y ' Q Y P Y ( #.9.$.S ",
"# 5 9 h l s h S S l e s l r r - h >.=.=.>.#.( #.=.$.#.| Q Q ( s X r s h l r r v v v l N N h h 5 v $.' ( ' Y Q ' Y P Y Y | #.#.S ",
"h S P Q ' ( | 3.=.| ( ' #.' S 9 s | ' $.$.=.#.#.| #.#.' Q Z Z 9 5 P ( ' $.| #.3.>.$.#.=.>.#.$.Z v ' Q Y Q Q ( ( Y Q P Y ' X.#.Z ",
"N ( Q Q Y ( ( | X.#.X.X.X.( ( s l ( P | X.9.=.#.| #.X.| ( P P e 9 Y ( | #.=.=.$.=.3.#.X.#.#.>.N v Y S G P Q Y P P Q Y | X.X.=.S ",
"P >.X.' ( ' | Q ( X.| Q ( | | s h | Y X.| $.>.=.=.X.X.X.( ( #.s h #.| X.$.$.3.=.=.$.( ( $.=.$.h h ' P Y P Q ( Q Q P Q X.X.| X.Z ",
"S >.$.' ' ( ( Q ( ' ' | ( Q Q e s | Q | | #.=.=.$.#.#.=.#.' #.h e ( ' ( | ' #.$.#.$.| X.#.=.>.l h #.X.X.' ( ' ( ( Q ( | #.| X.Z ",
"G =.=.$.#.( Y | ' ( | $.X.' ' s l ' Q | #.3.9.3.3.X.| >.=.#.X.r h ' ' | | Y Q #.#.=.>.=.3.9.9.l v X.=.=.X.| | X.X.X.| X.$.=.$.Z ",
"S 3.>.>.=.| Y ' X.| ( ' ' | =.l h ' ' #.>.>.>.3.9.=.=.>.=.X.' s v $.| X.( Q Q ( #.3.>.=.| $.#.s v =.>.=.=.#.X.#.$.X.( | | | #.Z ",
"S 9.>.>.>.X.Y $.>.$.| ' Q ( =.l # e e h l l r h v N N N v r s % Z 9.X.| G P S Q $.=.=.$.( ' ' e - N v h h l r s s e s h r e s - ",
"N 3.e.e.$.( Q X.>.=.#.' #.#.3.v X l h v N h r 9 s l l N l l h - v #.| | P Z Z G | ( | $.$.$.#.s % v h l s r h l l s s h h l N 5 ",
"S 3.r.>.' ( ' $.=.' ( ' | #.$.l s =.=.>.9.$.( X.$.#.| X.' X.| v l X.#.' G N N G G Z Q X.#.X.#.l l #.' X.' Q ' >.>.X.( ' ( X.>.G ",
"N X.' ( ( $.3.>.$.X.' X.( #.=.N N >.=.>.>.=.X.X.=.=.Q Q | #.=.l l =.X.| Y N Z P P ' X.#.#.X.#.v s Y P Q ( Q ' X.>.3.' ( | | =.G ",
"S | Q | #.=.3.$.$.$.$.$.$.9.r.S S 3.#.#.' ' ( ' >.#.| #.>.=.e.v N 3.#.X.' Q Q ( ' ' | | X.| | l h Y Y ' | ' X.$.r.9.#.| #.X.=.P ",
"Z X.' #.9.9.e.3.3.3.>.$.=.=.=.N G e.=.X.' ( Q Q X.#.=.>.=.9.9.l N =.| X.$.#.X.' ' | | ( | ( Q h N $.| X.#.#.$.>.e.>.$.#.#.>.>.G ",
"l ( X.$.>.r.h.d.e.9.9.3.9.$.#.N S >.$.| | X.' ( X.X.$.>.3.e.9.v h | X.$.#.$.#.Q S Q | | $.X.| v Z =.' P ( $.$.>.9.$.#.>.>.e.9.Q ",
"h ( ' | #.>.e.9.=.e.i.e.i.9.$.v N >.3.X.X.X.X.( X.X.$.#.X.=.$.l e ' $.=.#.=.$.| G Q X.Q $.>.X.l Z =.#.( Q X.| ' $.$.>.=.#.=.>.Y ",
"X e r r s v N v N S S Z N N l - N >.#.X.X.$.#.( ( | #.| ' X.X.h X l v l v Z v l h h s e s l h # N >.X.' X.3.=.X.| X.=.3.$.>.3.P ",
"% e e e h r h Z N Z h l v l S r P e.#.#.' ' Q #.' | ( | X.X.>.Z % v v v S l l N N v s h s , r , v >.X.#.$.=.$.#.( | #.=.=.>.e.Q ",
"N Q P Y ( | #.3.9.=.| X.X.$.r.Q G >.X.' P S Q #.>.$.X.' ' ( #.N r $.3.>.3.$.$.3.3.$.| X.( G ' N s X.$.X.' X.X.#.=.#.| ' | X.=.G ",
"v P G P P X.( X.=.=.X.#.#.#.r.P N #.| | ' Y ( X.>.=.#.' Y S Y r r X.#.' ( X.$.=.=.#.| $.X.Q X.l s ' #.$.$.$.$.X.$.| Q P Q ( X.l ",
"N ( S P Y ( Q | #.#.X.' | X.3.Z N #.( ' | ( ' X.>.#.X.X.( Z Q s l >.| ( Q ' $.>.$.| X.=.=.| #.s s ' X.=.$.#.$.' | ( ( ( ( Q X.l ",
"Z X.Y Q ( | ' ' ' X.#.X.' | X.l N $.#.#.X.#.X.#.3.=.X.| | ( X.v v 3.| Q Q ( X.#.| X.>.9.>.X.X.s 5 G | =.$.X.#.| #.#.| ( ( ' | Z ",
"Y #.$.$.| $.$.| ' ' #.3.3.#.X.l v #.$.>.#.>.#.#.$.X.#.| =.=.=.Z Z =.X.Q G G | $.X.' 3.e.3.#.X.l l ( | #.| | $.$.X.| | ( $.X.#.P ",
"Y 9.e.3.$.=.=.#.$.X.#.>.=.#.X.s l #.$.9.>.$.' ( X.=.>.#.=.>.=.N v =.$.| ( Y X.$.X.Q >.>.=.$.#.l N =.' X.| ( X.$.X.' X.X.9.9.=.P ",
"G i.r.=.>.X.#.X.$.$.X.#.#.=.X.r # s s l l s e e h l l v l h v - h >.=.#.| Q X.$.' ' ( #.#.$.#.h - v h r h s h v l s l v v N N 9 ",
"N $.>.>.3.X.| Q #.#.#.$.=.=.' 9 # l l h s s s h l r s l l r h % s $.#.#.' P ' #.X.( ( X.#.$.X.e % h s s h l h N Z s l v v v v 9 ",
"P $.=.e.9.=.#.#.#.#.X.| ( X.#.l l #.$.$.X.#.$.3.$.Y Y ' ( ( | h v X.| | ( ' | X.X.( X.$.' #.#.h h #.| | | ' #.9.>.| X.| >.>.#.N ",
"P >.=.3.>.9.=.$.$.>.#.' P | 3.N v #.' | #.>.>.e.3.#.' | X.' #.l N $.( Y P Q ( ' | X.=.>.| #.>.h l X.Y G Y X.3.9.>.=.#.X.=.$.| l ",
"Y 3.=.$.>.>.>.>.$.#.#.' ' | X.h N X.( ( X.X.#.$.=.$.=.$.#.#.| h N >.X.| ' Q ( X.| #.>.=.3.3.=.s N =.( P ( ' | $.=.#.$.#.| ' Y s ",
"P >.$.>.>.=.>.>.>.>.=.' | Q Q s v X.| #.| Q X.$.#.#.#.>.3.$.X.l v =.( ' | X.$.#.$.>.=.| >.$.#.h l 3.X.' ( Y | =.X.X.X.| ( Q Q v ",
"G >.e.d.3.=.>.9.>.3.3.| Q Q =.S Z >.$.=.X.( #.$.( | | $.i.>.=.Z l | ( Q Y ( X.X.X.$.X.( ' Y ' l h | ' ' X.X.=.9.$.X.( Q | Y Q v ",
"S e.h.d.3.9.9.>.=.9.3.' G | e.G G r.9.=.#.' | #.' Q ( #.9.>.3.Z s | | G P ( ' Q ( | | Q Z S P r s | ' ' | #.#.X.$.| Q P Q ( | l ",
", v Z Z v Z S v N S Z l r h v , S i.>.>.$.X.#.X.X.| ( #.3.3.$.l X s 9 % , s h s h l l s 5 - %   e | ' X.#.X.$.#.#.#.' Q Q | #.Z ",
", h N G G Z S P S v s s h h v 5 S h.e.>.3.$.X.' X.>.$.=.9.3.>.l # s s r e e s l l h s h h 5 % . , Q #.#.#.X.>.9.=.$.X.( ( Y $.Q ",
"S 3.r.i.k.h.h.d.=.X.( Y ( | $.v S e.$.3.=.$.$.#.=.d.9.=.e.r.3.h e Q X.$.#.' #.e.$.X.' Y P G N , e Q ( ( Y ' >.$.' =.$.' ' ( >.P ",
"P r.r.e.i.l.h.=.| X.( Y Y ( $.N G >.| $.$.X.#.$.$.>.9.3.3.3.$.s e Q X.>.$.X.$.>.>.3.$.G v S Q e l ' Y ( P | | ' P ( #.#.' ( =.G ",
"G =.=.=.>.3.9.' Q ( ( ' $.$.=.N Z $.Y ' ( ( Q ' | Q | #.X.X.#.s s X.X.#.#.#.>.>.>.3.=.Q Y ( ' r h X.' | Q Q Q ' ( Y ' | ( Q #.S ",
"v | X.' X.| | P Y ' | $.=.=.9.Z v #.| X.' ( ' | ' Q ' X.X.| >.l h $.=.| #.$.3.$.$.3.=.| Y ( ' r h #.$.#.Q S G ( ( ' | #.$.X.#.v ",
"Y =.$.X.' G P ( Q Q $.3.3.3.3.l v #.$.$.| X.$.=.X.Q #.9.9.$.=.l v >.=.X.#.#.>.=.$.9.3.#.| | ' r v $.=.X.Q G G ' ( | #.=.9.>.#.l ",
"( >.' #.| G Q | ( ( $.>.>.$.#.r l #.#.=.$.#.>.>.$.X.>.e.e.>.9.Z Z 3.$.=.#.Q #.X.' | ( | ( ( ( s S 3.$.#.| ' X.>.>.>.#.$.e.9.=.N ",
"G #.' Q Q ' ' $.=.X.| $.=.#.X.r - l r h h l l N v l N N Z v S 5 N 3.=.$.#.| ( | Y P P Y P P Y r 5 Z l s s h h Z Z N l v Z G N , ",
"Z $.$.' ( ( ' =.r.>.=.=.>.>.=.h % N v N v l s r l s r v h s h - v >.>.=.>.| | | Q ( ' P ' Q G 9 # v v l v v l l h h N S S S h , ",
"S =.>.X.| | | =.9.3.e.3.>.=.$.v l 3.>.3.>.$.X.#.$.( ( #.Q ( #.N Z 3.3.>.>.| ' X.' ( ( ( ( Y P s h >.#.X.$.=.9.e.=.>.e.e.>.3.$.S ",
"v X.' | ' $.$.>.=.9.3.e.r.e.e.G v =.$.$.>.=.>.$.$.X.Q Q P Q X.l v $.| X.X.' ( ( ( #.| | Q Y Q s s | ' ' #.>.e.3.3.i.r.e.3.e.3.Z ",
"v Q ( X.| $.=.$.$.#.$.3.r.i.r.S v #.X.$.>.#.$.#.>.$.| ( ( G ( h l X.| #.#.X.| P ' X.X.X.X.| ( s h #.X.X.X.$.=.X.$.=.e.e.9.3.=.N ",
"N ( ( ( X.$.$.| X.#.=.X.=.>.$.h s ' X.=.3.=.=.$.3.3.=.X.Y P Y r s #.| #.>.=.X.' X.| ' ( | ' ' r l $.#.#.#.>.3.| X.=.9.3.#.#.| l ",
"l Q | X.' | X.| ( X.$.| #.$.| s 9 G ' #.3.9.$.>.3.=.#.' ( Q Q l r X.| | $.=.$.| | X.#.| | | ( r l X.| ' #.>.$.| | X.| #.#.=.=.S ",
"s P ' X.' | ' ( Q X.>.X.$.$.| h r ' 3.=.#.#.| | | | | ( Y P P s e #.#.' ( | | ( Q | >.=.$.#.( 9 h ( | | X.#.| ( | | X.| ' X.$.Z ",
"- h l l h Z Z N Z S S v N Z v % h >.=.X.| $.| Q Q ( $.| ( Y Q s # Z Z v l N Z N N S S G Z N v # e ( ( ' | #.#.' | ' #.#.' | | v "
};
