/* XPM */
static char *texture_z_3[] = {
/* columns rows colors chars-per-pixel */
"64 64 85 1 ",
"  c #4B4B4B",
". c #4C4C4C",
"X c #4E4E4E",
"o c #4F4F4F",
"O c #515151",
"+ c #525252",
"@ c #535353",
"# c #545454",
"$ c #555555",
"% c #565656",
"& c #575757",
"* c #585858",
"= c #595959",
"- c #5A5A5A",
"; c #5B5B5B",
": c #5C5C5C",
"> c #5D5D5D",
", c #5E5E5E",
"< c #5F5F5F",
"1 c #606060",
"2 c #616161",
"3 c #626262",
"4 c #636363",
"5 c #646464",
"6 c #656565",
"7 c #666666",
"8 c #676767",
"9 c #686868",
"0 c #696969",
"q c #6A6A6A",
"w c #6B6B6B",
"e c #6C6C6C",
"r c #6D6D6D",
"t c #6E6E6E",
"y c #6F6F6F",
"u c #707070",
"i c #717171",
"p c #727272",
"a c #737373",
"s c #747474",
"d c gray46",
"f c #767676",
"g c #777777",
"h c #787878",
"j c #797979",
"k c gray48",
"l c #7B7B7B",
"z c #7C7C7C",
"x c #7D7D7D",
"c c #7E7E7E",
"v c #7F7F7F",
"b c #808080",
"n c #818181",
"m c #828282",
"M c #838383",
"N c #848484",
"B c #858585",
"V c #868686",
"C c #878787",
"Z c #888888",
"A c #898989",
"S c #8A8A8A",
"D c #8B8B8B",
"F c #8C8C8C",
"G c #8D8D8D",
"H c #8E8E8E",
"J c #8F8F8F",
"K c #909090",
"L c #919191",
"P c #929292",
"I c #939393",
"U c #949494",
"Y c #959595",
"T c #969696",
"R c #979797",
"E c #989898",
"W c #999999",
"Q c #9A9A9A",
"! c #9B9B9B",
"~ c #9C9C9C",
"^ c #9D9D9D",
"/ c #9E9E9E",
"( c #9F9F9F",
") c #A0A0A0",
"_ c #A1A1A1",
/* pixels */
"rlfpfrrrrfppprp-wCCHZCnr-rrrprp>>ffwpppllfppr6f46ncnCZHr%rrfprfw",
"cTKHHZCCZCnnnnCwwZHZCnCrrZCcCZZw6ZZCZHHTZZCCnCKfwnnncnC4rKZZZZKf",
"lKHHZZCZKCnZCnCwrZCCnnn46CncCCZ66cCHHTHZCCCZCZKppHnCZnn>wKHZZZZp",
"fTKKHZZHHCCZZnCrpHnCclC46nnnZnZwwCZKTKHCZncnCnCppZCZZnc>6ZKTTHHp",
"rHHZZHZCCZHZCnCppHHZnnCwwZncnCnwwHZHHHZZZCnnnccwwCCZZCn4wHHTKZZf",
"fZZZCZHHZCHHZHHplKCCnnCprZnnZZCrpKKHCCZZnnCnCCc6wnnncCnwrHCZTHHf",
"fHHHHZHKKCZHHHKplKCZZCZppncnCZHpfTKHCnZZnlcnCCn6rCcnnZZrpKZZHKHf",
"%rpfpwrfpprprpp>>rwwrwr-wCnccnKf>frwrrrp6>>66ww@%6446wr%pHZKHHKf",
"@4wrrww@%rprprw66rrrprr-wncnccZp-prpprp-%666ww64rrprww6@rZZHHHHp",
"pnCZZZZwrZKKHHZZZHKKHZHr6ccccCHpfKKKKTKrwCHHCHHHHHTKHncwwZHZCCHl",
"fZCnZZZrwCHKKKKHZHZZHHKrwZCCCZKpfTKHCZZwwCZHZHTTKHHHZCCwrTKHCZHl",
"lKZCHZZrwCHHKTKHTKCnHHHwrHZCCZZrf!THCCZr6nnnZHT!THZZZnn6pKKKZZHp",
"lKCCHZHprKHCHHKKTKncnZHrrZnCZCZpp!KKCnZprCCnHZT!THCCncnwrKKKZZHl",
"pCZHHZKffKZZHHKTTKCnCHHrwCCZKZZprHKHnnZppHZZKHKTKKZnCCCw6ZHHKHHl",
"rCKTKTKpfKZCHK!!KKKZCHHrpZZHHZHprHHHnCC6pHZCHKKHHHZCCnn44nCZK!Kl",
"wnCHHTTp>prwrrrrwpfrwwp>>www6ww-wZZZCCC4-rprrprwwp6w44w@@466rfr>",
"6ccCZCZf4r4ww66%%pprpr6rprrw644%4nCCZnCr-prpprr>-rw6w46w4444wwr4",
"wflcCnZprZnCZCl4wZCHHHHHZHHCnll4>lnCHCZppKZKKZHfrCnnnnCnnccnCZHp",
"pCnccnCwwHZZZnnwwncZZTKZCZZZncc44nnCZKKrpKHZZHHrrnllcccllccZZZHf",
"lKCCnCC6wZZcCCZwwCcZCHKKKZZZCnZwwZCZHHKprHnnHHHwwnlccnnnccnZHZZp",
"fKZCCnC66CCCnnn4wCnCCHHHHZHKZCZw6nCnCCZrrHZZHHKrwZZZCnCCnnnCZZZf",
"fHHHZCcwwnCHZnCwwCnZZTTKKZZKKHZ6wCCCCcCwrKKKKTTrrHHHZZZZHZZZHHHf",
"lKKKKZn6wCnnCZHrwCCZKKKKTKHKKZC6pHZZCnC6rTKHZHHwpHKKKZZZHCCCZZZf",
">fpppr6-fHCCnCHr@44wrr6wrpppp6w%>frr>4>@rKHHnnC6-rrrwrw6w66ww66-",
"rflfr66-pKZCHHKr@wwrrr6X%rrprwwrrrww4->XwnZHHHHw%pwr66w%%wwwwrrr",
"HK!KCnZrrCCCZZHw6KHKTHCwrHZZCHCHHZHZlfl>>fnZZZZrrZCZCnCppZnCnZKK",
"ZZCnCHKprZnZCZHppHHKKHZwpHnnCZHZZHZCcff44CZZHZZpwcccnnCrpKCCCZHK",
"HCnCZKTrrHHHHK!ffTHZCCnwpHCHKKTHKKHZCnn6wZZCZCZrwccCCCZrlTZZZZHK",
"ZZCZTT!pfTHHHHKpfTHZCnn6rZHKKTTZHHCCHZZwwCCCCCnrpHCZZZKpfTHZHKKH",
"nCCHK!(cfTTTKHHpfKHCZZC6rZHKKTKHZCZHZHH6>cCCHZZrpHCcCHKpfKZKK!TT",
"nnCCZK!frT!T(KHrpKKZZZZwrHHZHHHZnCHKZHHw>CZnHHZrpKZnnZZwpHKKHHKT",
">666wrp->lfpppr-pKHZZKH6%rrwwwww6wrrppp--r666rw%pKZCZKHr%wpprrpp",
"%444w6wppprrrrf6l!ZZCnCr%w4wwwp>%rrpfrrppr6ww>6>rKZHHHHr%wrpppfw",
"rnccnZZTTHCZZHTnlKZCclnrpKZCCCHp6HKKKHHKTHCZnlCpwZHZCCZrpHZCZZKf",
"pcllcZnZKHZHHZ!lpZCCncnwpKHCclc66ZZCnCZKKZZZZnZr6CZHZHHwrZncnCZr",
"pnlccCnCZHZCZZKfpHCCCnCwpZZZnfnwwKZCnCHKHZZHKZZw6CZHHZHwwnnnnnZr",
"pZnnnZCCCZZZCCCrpHZZZHZrfKZZCnZrpKCnnnZHCZKTTZZw4cCHZZHwrHZnnCCp",
"cZHHCHHCCCHKTZZrrHHTZHHrrZHCHHKffKZnllCHZCTTKZZrrnCHZZHrrZZCHZZl",
"cTTKHKKZHHHKKHZwrZZTKHC6rKKZHHHprKHZCnZHZCKTKHHrpHCZZnHrwCZZKTKl",
"4llpprrrrrrrrrr%-6wrww6@wZZHHZZw%prww6rr66wrrrr--rw6www-rCZHKKHf",
"-rpppww@-rrrpp66wwww6ww%wnCZHnZw%rrrw4w%-66rrpw4www6wrw>pCZHKHHf",
"lHH!TKHrrHHZnZHHZZHHZZKpwccCnnCrpZZZnCZwwCZHCHZZCZCCCCHprCCCKKZp",
"lKHKKTKrpKZncCKHHZZCHKKfpHCCZZZrpHCnlnCwwZKKCZHCZZcccZTfpKHZHZZr",
"cKHHKKKprHHCCCZZKZCnZZZprHHHHZZrpKZCCnnrwHKHTKHCZHncnCZrpZHZCCnw",
"lHZKKHKpfKHCCnnZHCZZCnZrrHZKKHZrrHnCCZHrrTKZKHCCZKHCnnZprZZCnnnr",
"fK!(THKfpKKCnnHKKKKKZCZp6CZK!KHfrCnnnnZwwHZnCcCZZZCnZHKfrHnnZnnp",
"fT)(TKTppTKClZTT!!KKHCHr6CCHTKKfwCnllnC66ZZnflccnCCCZZHrrZnnnCCr",
"rHKKHKTr>ffw6wwpffpprrr-%w6rpfr-4CcpfCC6%rrw>-%%>wwwwwp->r666wr>",
"pZK!THTf4rwwwwr44cffprw6rprpffp-6CncccCw-rw6w>% X6rrwrpfrpw6w4r6",
"fKTT(((lpZnnnCHrfTHKKHHZK(TKT(T64nZHZCZprZCcclf>4nCCcCKHCHHCCnKc",
"f!TT()(pwZncnnHplHCHZZZHHKKTTKH64nZKHZHppTHlplc4wCcncCCncnHZCnHl",
"fKHKKKTw4CCnHZHpfZcCCnCCCnZZZZZwwZZHHZKppKHncnC6wCCCnnnCncCCnnZf",
"pCZCZCZ44CCHHKTfrZZZCCCCCnCCZCKrwHHCZKTprTHCnnC6wZHZnllnCCZZHZZp",
"cHHZCcc66nHKKKKrpHHHCZZKZnHTTHKrrKHZHZKprTTZCZC6rHHZcllCnZZKTKHr",
"nKCHCcnw6CZKKKZwrZZHZHKKHZKTTKTpfKHKHnHw6CnZnnC6fTHZZCZKKKZHTTKp",
"4r6666w-pZCHKZZ6%wwwwrrrrrppppf>>frpr6w-6ccnclc4>pwwwwwpfpprffp-",
"rprw6ww-lKKHKKHw-prprrw%-w6prwwppppppww%6CncCcc4%rrrprr-%rplffww",
"HKKZZZZrfKTKKKHrrKKKKHZrwCCZnnZKTKTKKZCr6CCnCccwwKHZHHTfpKTTKKZH",
"CCCCCHHppTK!TTTfpKHZKKKprZnccnCZZHCZZCC66HZCccn66ZCCZK!pp(!TK!TZ",
"CnnCCHHrrHHK!!!fpZZHKZHrpHCCnlnCZZZHZZC4wZZZZCC6wHZZZHKwrKTTTKHZ",
"CnnCCHHwrHHZHHHw6CCHKHKrfTHCcccnZZZZKHZwrZCCCCC6wHZHZKTwrKTKHHCC",
"nnCZCCZw6ZHCZHCw4lCZTTHppKZCnnnCCZZZHKHwrZZZCCn6rZCCHKHwrZZHZKHZ",
"ccCZCCC66ZKZHHCw6CKHZHZwwCZCcccCcZZCnCZ66ZKHHZn4wCCCZHC6rZZZCZHZ",
"wwrrrpf>>lfrppr%wKKZCHZ6%rfpwwwrwffprpf>-fflppp@4nnCCHZw>pfppprp"
};
