/* XPM */
static char *west[] = {
/* columns rows colors chars-per-pixel */
"128 128 84 1 ",
"  c #4D4D4D",
". c #4E4E4E",
"X c #4F4F4F",
"o c #515151",
"O c #525252",
"+ c #535353",
"@ c #545454",
"# c #555555",
"$ c #565656",
"% c #575757",
"& c #585858",
"* c #595959",
"= c #5A5A5A",
"- c #5B5B5B",
"; c #5C5C5C",
": c #5D5D5D",
"> c gray37",
", c #5F5F5F",
"< c #606060",
"1 c #616161",
"2 c #626262",
"3 c #636363",
"4 c #646464",
"5 c #656565",
"6 c #666666",
"7 c #676767",
"8 c #686868",
"9 c #696969",
"0 c #6A6A6A",
"q c #6B6B6B",
"w c #6C6C6C",
"e c #6D6D6D",
"r c #6E6E6E",
"t c #6F6F6F",
"y c #707070",
"u c #717171",
"i c #727272",
"p c #737373",
"a c #747474",
"s c #757575",
"d c #767676",
"f c #777777",
"g c #787878",
"h c #797979",
"j c #7A7A7A",
"k c #7B7B7B",
"l c #7C7C7C",
"z c gray49",
"x c #7E7E7E",
"c c #7F7F7F",
"v c #808080",
"b c #818181",
"n c #828282",
"m c #838383",
"M c #848484",
"N c #858585",
"B c #868686",
"V c #878787",
"C c #888888",
"Z c #898989",
"A c #8A8A8A",
"S c #8B8B8B",
"D c #8C8C8C",
"F c #8D8D8D",
"G c #8E8E8E",
"H c #8F8F8F",
"J c #909090",
"K c #919191",
"L c #929292",
"P c #939393",
"I c #949494",
"U c #959595",
"Y c #969696",
"T c #979797",
"R c #989898",
"E c #999999",
"W c #9A9A9A",
"Q c #9B9B9B",
"! c #9C9C9C",
"~ c #9D9D9D",
"^ c #9E9E9E",
"/ c #9F9F9F",
"( c #A0A0A0",
") c #A1A1A1",
/* pixels */
"wyshhsyssyywwwwwwwssyysysyywyw3*4ybMSSGSSMSMMzy4>>qwwwwwyywwyw3>*4yssswwyyyyyshhzhssyyyywq4qyyq44whbbzbbMSSGGMsq**4wwwssyywwsswq",
"yszbzhhhhhsssyyssshhhsssssyshy33qybSMSSSSMMMMzsq34wsysysshssss4>>4szhhsyshshhzzbbzzhhhhssywyhhw44wzbzbbbMMMMGMs4>3yssshhhhsshhyw",
"hzSGSSSMMSbzbbbbbbbbzzzzzzzzbzw4qyzSSSSSMSMMMbyqqwhbbzzhbbbbMzw43qhMMbbzbbMSSSGGMMMbbbbbzzzbMMhwwwzbbbbbbbbMSzw44wbMbbbbbbbMSMhs",
"zMJUJJJGGGSSSMSMSSSMMbbbbMbbMbywqybSGSSMMMbMMbyqqybSSMbbMMSSSbyq4wzSMSSSSGJJGJJJGMSSSMSMMMMGJSzswszMMbbbbbbMMzw3qsSJSSSSSMSSGShs",
"hbGJJJGGSSMSMSMSGGSbbbMSSMbbSbywwybSSSSMMMbbbzw44ybSMbzbMMSSSbw44whMMSSGGJJUJGSSSMSMMSSSMSSSJSzyyhbSMbMMMMbbMh43qsSGGGSMSMSMSbhy",
"hbSJGGGGGMSMSMSSGGSSMMMSMMMMMbywwsMSMMMMbbbbMhq34wzMbbbbMSMMMby44whMMSGGJJUUJGSMSMMMMMMMSMMSGMhyyhMSMMMSSMMbbs4>4yMGGGGSSSSSSbhy",
"sbGUJJJGGSSMMSGGGGMMMMMMSMbMMbswyhMSMMMMbzzzMzq33whbbbbbSMMMSbyqqyzMMSGJJUJJGGSMSMMbbbbMMMMMSMhyyhMSSMSSSMbbbs434ybGGJJUJJGGGMhy",
"shGUJJGGGGSSMSSGGSSMSSSSSMbbSbswyhMGSMSMbzzbMbw44wzMbbbbMMMMMzyqqybSSSGJUUJGGGMSMSMbbzbMMMbbbbswysbSMMSMSMMbbh4>4wbGGJUEUUGGGShy",
"wsSJGGSSSSSSMSMMMSMSSSSMSMbbMbsyyhSGGSSMbzbbMbyqqybMMbzbbMMMMzyqqsMSSSGGGJGGSSSMMSMMMbbbbbbzbzywwsbSMSMSMMMMbhq3qyMGJJUUUGSSSMhs",
"whMGGSSMMSSSSSSSSMSSSGSSSMMMSMhyshMJGSSMMbbMSbywqybSbbbzbMMSMzyqqsMGSSGGGGSGSMMSSMMMMbbbbbbbzhwqqyzMSMSMMSMSbhw4qsMJGJJJJJSSMMzs",
"yhMSMSSMSMSSGSGSMSMSGGGSSMSGGMhsszSGSSMMbbbMMbhwwsbMMbbbMMSMMbywwhSGGGGGSSSSSMSMMMbMMMMbMMMMbhq4qyzbMbbbbMMSMzwqqyMGSSSGUJJGGMhs",
"hhMSSSSSSSMSGGGGSSSMSGGGSSGGJShyhbGJSMSMMMMMMMhywsbMbbbbSMSSSMsyyhGJJGJGMMMMMSSMbbbbMMbMMSSMbhqqqyzMbbbbbbMMMbywwsMGSMMSJUJJGSzs",
"szSGGSGSSSSSGGGJGGSMSSGGGGGGJShyhbGJSSMSSMMSSbhyyhzbbbbbMSSSSMhyszGUJJJGSMMMSSSMbbzzbbbMSSMMMhw4qybMbbbbbbSMSbywyhSGSMMSGJJJJMzs",
"wszSSMSSSMbMbSSSSMMbbbMSMMSSSbswyhbMbbbbbbbbbzywwsbbbzbbbMMSGShyyhMGGMMMbbzbzbMbzhssshhhzzbbzs434whzhhhhhzzbbhwqyhSGSSSSGGJJGSzs",
">3yshhzzhhyysszzhhhssshhsshhhyq334ysyyysysyysw33qybMbbzbbbbMGSzy4qhzhsssysyyssssyq4344qwwyyyyq>**3qwqqqqwwyssw33whMGMSGGGGGJGSzs",
"@*4qwyyyywwqqwwwwwyyywwyywwyyq3>>3qwqqwwwwwww4>>4sbMbbbzzzbMSMzw33yywqqwwwwwwwwq3>>>>34444qwq4*@*>34444444wwq4**qhMGSSGJGGGGGShs",
"@@34wwwwwwqqq43**3qwwywwyywwwq4344qwqqqwwywwwq>*4yzbbbbzzzzbSMzw>>wywwyywywwww3>**>33334qq4q443>44qwwwqqqqqqq3@*4sMSMSGGGGGGGShy",
"*>4wyyssssyyyq>**3wshshshhsssywwwwsssssshhsssw33qyzbzzbbbzbbMMhw44yhhshhhhhhhs3>>>qwwywyyysyywyysssszhssyyyyq4>>4sbSSSSGSGSGGMhs",
"wwszbbbbbbzbbzw4qwhMSSMSMSMMbzbbzbMMSMSSMMbMMby44whzzzzbzbbSGMhyysbSMSSSSSSGSbyq4whbMMMMbbMMMMMMMSMSGGSMSbbhhyq4qybSSSSSSSSSGSzh",
"shzMSMMSSSSSSbyqqybGJJJJJJJGGSSSSSGGGGGGJGSGGSsq4whbbbbbbbbSGShyszGJJJGGJJJJJMswqybSGGJGSSGJJJJJGGGJUJJJGSMbbzyqqsbSGSSSMMMSSSzz",
"shbSSMbMMMSMMbsqqybSGGJJJJJJGGGGSSSGSSSSGGGGGSswqybMMMMMMMSSGShyszGUUJGGSSSSGbyqwybSSSGGSSSJUUUUJJGJGJGGSSMMMzyqqsSJJGGSSMSMGSbh",
"szMSSMMMSSSSSbsqwybMGGGJJJJJJJGGGGGGSSMSGGGGJMsqqybGSMSMMSMSGMhyszGEUJGGSSMSSbsqqyzMMSSSSSSGUUEUUJGGGGGSSMMSSzywqhGUJJGGMSMSGMzh",
"hzSSSMMMSSMSSbswqybSGGGGJUUJJJGGJJJGMMMMSGGGGSyqqsMGSMMSSMMSSbsyybJEUUJGMMMSMbyw4wzbMbbMMSGJUUEEUJJGSMSSSMMMbzw4whSJJJJJSSSSGMhs",
"hbSGSMSSSSSSSbswqyMGGGGSJJUUJGGJUUJGSMbbSSGGGMsqqsMGSMSMMSMSSbsyszUEEJJSSSMMSbswqwzMbbbbMSSGUE!EEUGGSSMSMMbbbzwqwhSJJJJJSMMSGSzy",
"zbSGSSMSGSSMGMhwwsMGGSSSGGJJJJJJUUJGMbzbbMMSJMswqsbSbMMSMMSMSbsyyzJ!UJJGSMMMMbhwwybMMMbMSSSSUEEEEUJGSMSMMbbzbzwqwhSJJJGGSMMSGMzh",
"hzSGMMMSSGSSGShyysSJGSSMGGGGJJJJUUJGMbbbbMSSGMswwybSMbMSSSMSSbsyyhGEJJJGSbbMSMhywsMSSMMMGGSSJUEEUJJGMSMMMbbbbzwqqyMGJJJGSSSGGSbh",
"yhMSMSGGGSSSGShsshSGSSSSGGGGGJUUEUJGSMbbMSSGJMswqybMMMMSGGSMSbhywhSJJJGSMbbbMbhyysMGSMSMGGGGJUUUUJJGSMMbMMMMMbyq4ybSGGGGGGGGGSbh",
"ysbSSGGGGGSGGShsszSGSMMSGGGGJUEEUUJGGMMMMSGGGSswwsbSSMSGGGSSSbhywsMGJJGSMbbMSbswyhSGSSMSGJGGJJUUJJJJSSMMMSSMSzyq4wzSGGGGJJJJJSbh",
"wszSGJUJJJUUJShsszSJGSMSGGJJE!!EUJJJGSSMMSGGGMswysbSSSGGJGGSGShywsMJGGGSMMMMSbyqyhSGSMSSGJGJJJJJJGJJSSMMSMMMMzw44wzMSSSGJJUEJSbh",
"wybSSGJUJJUUJGhyysbSMbbbMSMSGJJGSMSSSSMbbbMMSbyqwyzbbbMMMMbbMbywwsMSGGGSMMMSSzw4qybMMbbbMMSSMSSMMMSMbzbbzzhzzs4>>4yzzbzbMGJJGbhs",
"wyzMSGJJGJUUUGhw44yhsyyysssshhhhsshzhzssyysshy4334wyyyysywysyy43qyMSSSSSSMMMMzw334yshssssshhhssssshsyyyywqqqww>@@*4wwwwwshzbhw44",
"qwhbbMSGGJJUJGzw43wyqqqqqqqqq4q43qwysyywwqqwwq3>33qqqqqq43q4q4*>4ybSMSMMMSMSSzw3*>qwyywwwyywwq444qwwq44q4333q4>*@*344444qwyywq3>",
"4whbbbSSSSGGSMzy44qwq4qqqq44q3>**3qyyywwwywqqq4qwwwwwqwq444433**3wzMSMMSSMMMSby4*>qywwyyyywwwq4>>3qwq4q4q43344433>3333334wwwwq43",
"4wszzzbMMMMMMMhy4qyywqyyyyyww4***3yhhhshhhsswyssshssssyywqqqq4**>qhbbSMMSSMMMbsq3qyhsshhhhssswq3>3wsyywwyywqwwyyqqq4qqqqyyyysyq4",
"qwshhzbbMSbMMMhywyhzhzzzbbbzhw434whMMMMMMSMMMMMMbMMMMMbbzhsssy4>>4szbMMSSSMMMMsywsbMMMMSSMbbMbswqwzbzhzhzhhzzbzzhhhsshhzzzbbMbsw",
"wyhhzzzbMMbMSMsywsMSMMSSSSMMbsq4qsbMMMGSGGJJJGGGSSGGGGSMbbzhzsq>>4szbbMSSSSSSMhyyhSJSGGGJGSSGSzywybMbbbbbbbbMMbbbbbzzbbMSSSSGShy",
"wszMbzzzzbbbMbswqsMGSSSSSMMMbhwqqyzMbMSSSGJUJJGSMSMSSSSMMbzzzhq33qsbbbMSSSGGJMhyyhSJGGSGSSSGGMhwwszbbzzzbzbbbbzzzzzbzbMSSMSSGShs",
"shMMMbbbbbbMMbwqqsMGSMMMSMMbMzyqqyzbzbMSMSUJJJSSSSSMMSMSMbbbbhq33wzbbMSMMSGJJMswyhSGGSMMSSGGGSsqwyzzzhhzzzzzzzzzzzzzzbMMSSMSGMhs",
"hzSGSMMMbbMSSzwqqybSMMbMMSMMSbyqqybMbbMMSSGJJJGGGSSSSMMMMMbbMzyqqybMSMMSSGGJGShywsMGMMbMSGGGJMyqqyzbzhzzzzbbbbbzzzzzbbSSSSSMSMhy",
"hbSGSMSMMbMMMbw44ybSSMbbbMMSMzyqqwbMbbMSMMGGGJGGGGSMSSSSSMMMSbyqqyzSMSMMSGGGGShywsMGSbbMSGGGJMsqqyzbbzbbbbbbbbbbzzbbbbMSGSSMSbhs",
"szSGSMMSMMMMMbw44ybMSMMbMbMMbzw4qszSMbMSSSGGGGGGGGSSSGGGSMMMSbyq4wzMMMMMSSMGSbswwsSGMMMSGGGJJMsqqybSbMMMMMbbMSMMbbbbbbMMSMMSMMhs",
"shSGSSSMMSMMMzy44wzSMSSMMbbbMhw44ybMbbMMMSJJJJJGGGSMSGJGSSSSSbyq4wzMMSbMMMMMSbywwsMGGSSSGJGJJSsqqybSSSSSSMMMMMSMMMbMMbSSSSSSSMhs",
"szSGGGGSSMMMbhyqqwzMMSSSSMbbMzyqqybMMbMSMSJUUUJJJGSSSSGJGGGSSzy4qybMMSMSSMbbMbywwsSGGGGGJJUUEGswqsMGGGGGMSMSMSSMSSMMMSMSSSGSGMzs",
"szSGGGGGGSSMbhwqqyzbMSSSSMMbSMyqwybSMMMSSGJUUUJJJGSSSSGGJJGGSzw4qybSSMSMSMbbMbywwsSJJJJGGJJUUSswwhMGJGGGGSMSSMSSGGSSMSMSSGGGGSzs",
"hzGJJJJGJGSSMhwqqyzMMbMMMMMSGMsqwsbSSMSGGJJUJJJUUUJGGGJJJJGSSzw4whMGSSMSSMbbSzy4qsSUJJJGGSGJJSswwhSGJJJJGGSSSMSSGGSMSMSSSSSSSMzs",
"shMSSSSSSMbbzs44qsMSMMbMMSMSGMsq4wszzbzbMMSMSMMSSGSMMSSSSMbzbhq3qsbSbbbbzzhzhsq3qsGUJJGGMSSSGMyqqszSMSMSSMbbbbbbMMbzbbzbbbzbzzsw",
"4wszhhhhhhsyy433whMGSMMMbMSSGMsq>>4wwwyyshssyyssshhhhhhhhhywyw3*>4hhsysyq4qqq3*>4sSJGGGGMMbMMbw434wssssssssyyywwssywwwyyyywwwq33",
">4wssysyywqq43*>wzSGSMMSMMMSGSs4@@3444qqqwwq43344qwyyyyyyw4qq4>*34yywqqq3*>>>*@*4sMGGGGSMMMMSbw3*>qwwwwwq4qqwq33444444qqqqq443>>",
"qqyshhsyywq443*3qhSGSSMSSSSGGMs4**34qqqqwwwq43*@*3qwwwyywwqqqq4q4qwwwwqq3>>*>*o@4ybMSSGGSSSSGby3**qywwwwq44qq4>**>4qqqqwqqqqqq4q",
"sszzbbzzsywwwq33qhMSSMMSSSGGGSs4*>wssyssssssw4*@@3yssshhssysyyssssssysyyw4333>@@4whbbSSSSGSGGMsq33yssysywwwwwq3>*3wyyywyyyysssss",
"MSMGJJGSMzzhzhwqwsMSSMMSSSSGGMsq3qzSMSMSSSSbbhq34wbMMbbbbbMbbbMMMMbbbMMzhsyysw3*>4yhbMSSSMSSSbsq4whMbbMbbzzhbhywqwzbbzzbzzbbMSSM",
"GGGJUUGSMSMMSMswwybSMMSMSMMMGMswqyMJJJJJUUJGGbyqwhMGSMMSMSGGSSGGGGSGGGSMbhshhs4>>4szbMMSSSSMSbswwsbSMMMMMMMMMMhyyhMSMMMMMMMGJJJJ",
"SSSSGGMMMSSGGShywybMMMSMSMSSGShywsSJGGJJJJJGSbswwsMGMMbMMMSSSGSMSSGSSSSbzzhshs433qhbMMMSSSSMSbsywyzbbbbbMbbMMbswyhSGMMMSMMMSGGJJ",
"MSMSMMMMMSGGJShwwsbSMMSSMSSSGShyyhSJJGGGGGGGSbywyhSSMMMMSSSSGGSSSSGGSSSMbbhhhyq34wbSSMSSSSSSSbhwwyhzzzbbbMbMSbyyyzSJSSSMSMSSGGJJ",
"GSSMMMMMMSGJUShwwsbGSSSGGGGJUJzsszGJGGGSSSSSbzywyhSSSMSGJGGJJUGGGGGJSSSMMMbzzhq34ybSSSMSSSMMMbswwyhzzbbMMMMSMbswsbGJSSMMSMMSGGJJ",
"GGSMbMMSSGJUUGhwwhSJGGGGGGJJEJzsszGUJGSMMMMMMhwqwhMSSSGGJJJJUUGGGGJGGSMSSSMMMzw4qybMSMSMMSMSSzswwyzbbMMSMSMSSMsyhbJUGMSSSSSSGGJJ",
"SSSMMMSSGUUUEJzyszGJJJGGGGGJJGhsszJUJGSMSSbbbhwqwsbGGGGJJJUUEUGSGGGGGMSMSSMMSzyqqybSSMSMMMMSMzswysbSMMSSSMSSSMhysbJUGSMSSGGGJJJG",
"MMSMSMSSJUEE!JzsszJUJJJJJGGGJMhyszGUGGSMMMMMMhw4wsbSGGGJJJUUUJSSSSGSSSMSSSSSSbyqqwzMSMMSSSSMMzyyyhSGSMMMMSSSGShsszGJGGSSGGUJJJJJ",
"bMMSMSSGJUEE!EMhszGUUJUUJGGJJShsyzSJGGSSSMMSMzwqqybSGGJJJJUUJJGSSSSSMSSSSSSGGMw434hbMMSMSSSMSzywyhSGSMbbMSSGJShyyzSJGSGGGJEEUUUU",
"bbMMMSSGGJU!(EMhszGEEEUUUUJGJMhyszSJJGMMMSMSSbw4qsbSGGGGJJUUJGGSSMMMSSGGSSSGJMy4>4hbMSMSGGSSSbswyhMGSMbbMMSSGMhyszSGSSGJJJUEEUUU",
"MbbMSMSSSGJE!UbsyhGUEEEE!EJJJMhwyhSGJGSMSMMSSzyqwsMGJGGGJJJJJJGSbMMSGGGGSSGJJMs4>4zSSSMSSJGGSbswyhMGSMbbbMSSSMywyhSJGGJGJJJJJJUE",
"hhhhzbzbbbMSGSswqySJUJGGUJSSSbw4yhSJJGSSMSSSSbwqqwzSSMbbMMMMMMMzzhbbMSMSbMMSSzw4>4sbzzhzbMMMMhwqwhSGSMMMbMSSSMyqqybMSSSSSMMSSSGG",
"4qqqwwwyyysshsq>3qhbbzzzzzhhsw43whSJGGSMSSGGGMy3>3yssyyysysyssyywwyyssssshhhhy4>*3wywwwwyyssyw3>wzSGSMMMMMGGGMsq33wshhhhsssshhhh",
"*>334444qqqqww3>>4yhsyyyyyyywq33wzGJGGMSMSSGGby3@*4wqqqqqqqqwwq433qwwwwyyyyyyw4>>3qqq444444qq3*>qhSGSSSSSGGJJMs4**4wyyyywwwyyyyy",
"@*333334qq4qqqqqwwyyywwwwwwwyw44ybJUGSMSMSMMSby3**4qq4qqqqqwww3>*>4wwwyysswwwwwwwwwq44q4q44333>>qsSGSSSSGGGGGMs4*@4wwyyyyyyysyww",
">>4q4qqqwywwwshzzzhssssysssszzyyhMUUSMSSMMbbbbsq34wywwwyyyyshs4>*3wssshhzhsshshhhhssywyyyw44qq43qsMGSSSGSGSGGMsq33wsysshhhshzhyw",
"4wshhhhhzzzzbMSGGGSMbbzbbMMSGSzhhbGJSMMMbbzzbzswqybMbbzbbbbMSbsq3qzSSMMSSSMMSMSSGSSbbzbbzhshzzywqyMSGSSSSSMSSbswwybMbbbMbbbMSMhs",
"wszbzzzzbbSMSSJUUUJSSSSSSSGJEJSzzzMGSSSMbzzzbzywyhSJSSSSMMMMSbsq4ybGJJGGGGGGGGJJUUGGSSSMMbzbMMhwqwbSSGSMMMSSSbswyhMGSSMMMSSSGShs",
"yszzzzzzzbMSMMSGJJJGSSSGGSSGEJMhshMSMSMMbbzzbzywyhSJGSSMMbzbbzwq4wbSSSSSMMSSSSGJJJGSMSSMSMbMSbsqqwzSSSSSMSSSJMsqwsMSMbbbbMSSSMsw",
"yhzzzhhzzbMMMbMSGGGGSSSSGSSSUJbhyhbSSMSMMbbbbzywyhSGGGMMbzzhzhw44ybSSMMSMbMMMGGJGGSMSSMSSSMMMbyq4wbMMSGGSSGGJMyqqsbMbbzbbbbMMbsw",
"yszzzzzzzbMSbMMSSSGSSMMSSMMGGGzsyhMGSMMSMbbbMzywysbSSMSMbzhhzzwqqyMGSSMMbMMSSGJJGGSSMSGGGGSMSbyq4wbSSMSGGSSGGMyqqyzMbbbbbbbMSbsw",
"ysbbzzzzbbMMMMMMMSSSSMSSMSMSGShsysSGSMSMSSMMSbswyhMSSSMSMbhhbzyqwsSJSMMMbbbSSGJGGGMMSSJJGGSMSbyq4wzMMSGGSSSSGMyqqyzMMbbbbbbMMbsw",
"yhbMbbbbbbMMMMMSMSMSSSMSMSMSSbsyyhSGSMMSMSSSSzywyzMGSMSMMMbbMbswwsSGSSMbbbbMSSGSSMSSSGUUUJSSSby44qsbMSGGSSMSGMsqqsbSSMbbbbMMSbsy",
"shMMMMMMMMSSSSMSSMSMSMSSSSSMMbywyhMGSSSSSMGGGbswyzSGSSMSSMMMSMsyyhSGSMbbbbbbMSSGSSMSJJUUUJSSSbsqqqhbbSGSSMSSGMsqwsMGSSMMMMMSSbhy",
"zzMSSSSSMMSGGSSMMMMSSGSGJJSSSbywwsSGGGJJSSGGGMswwsMSGSSSSSSGGShyszSGSMbbzzhzMMGSSMMSJUEUJJSMMbywwwhbMSGGSMMSGMswwsMSMMMMSSSMSMzh",
"zbSGGJGGSSGJGGSMSSSSGJJJUJGSSbswwsMGGGUUGSGJGMsqwsbGGGSMGGGGJShsyzSJGMMMbzzbMSGGSMSSUUUUJJSSSMswwszSMSSSSSMSGSswwybMSSMSGGSSSMzz",
"zMGUUUJJGGJJJGSSSGGGGJJUUJJGGbswwsMSSGUUJJGJGby4qsMJGGSSSGGGGShyyhSJGGSMMbbbMSGGSSMSJJUUUJGGGMswyhMGSMSSSMMSGMswqybSMSMSGJUJGSzh",
"szSJJGSSMSMSSMbbMSMMMMMSMSMMbhw4qwhbbbSGSMMMbsq34sSGGGSSGGGGGMhqqwbSSMbzbbzzbMMMbbzbMSGSSMSMSzyqwybMbbbbbzzzMzy4qyzSSSSSJJUUJGbh",
"qyzMbbhhhhsssssssssssssssssssw>**3qwyysssssywq>*4sbGSGSSGGSSSbsq>3yhsssyyywwysssywwwysshsssssy4>>4wsswwyyyyysw43qybSSMGGJJJJJMzs",
"34yshhyyyywqqqq44qqwwwwwwywww4>*>>44qqqq4qqq4>**4yzSMMSGGGMMSby4*>qwwqqqqq44qqq43343qqwwwwwww43*>3qqqq44qqqqq4>>qsbMMSGGJJJJGSzs",
"*>qyyyyyyywqq4>**3qwwwqwwyywq4334q4qqqqq44qq44**4ybMSSSSGGMMSby4**qwwwwqwq44q4>*>>3444wwwwyywq333qqqqq44qqqww4>3qsbSSSSGGJGGJSzs",
"34yshszzzhsysw>*>4wsssssshhsywwyyysyssyyyyyssw334yhbMbMSSMMbMbyq>3wysssyyywwyw3**3qwwyysyshsswwwyyyyyyywwsyssy44qsbSMSSGGJJGGMhs",
"ysbMSSJJJGSSMzw44ybMMMbbzbbMMMMMbzbbMMMbbzbbMbyqwyhzbbMSMMbbSbswqyzbMbbbzzzzbzw44whbzbMMbbMMbzbbbbbbbbbbbbzbMbywwsbMMSMSGJJGGMhy",
"zbGJGJEEUUJJJShwwsSJJGSMbbMSGJJGGSSSGGGSSSSGJShywyzbbbMMMbMMMbswyhMSSMSMbbMSSbywqybSSGJJSSGSGSSMMSSSMMMMMMSSGSzywsbSSMSSGJGGSbsy",
"hbSJGJJUUJUUJMswyhSGGMMbbbMSGJGGGSSMSSSSGGGJJShsysMSMbMMMSMSMbswyhMGSMMbzzbMSbyqwybSGJJGSMSSGSSMSMSMMbbbbbMGJJzsyhSGGSMSSGSSSbsw",
"zbSJGGGJJJUUUShwwhSGSSMbbbbSGGGGGGSSSMMSSGGGJSzyyhSGGSSSSSSMSbswwhSGSMMbbzbbMbywqybSGJJGGSSSGSSSMSSSbzzzbbMGJSzyyhMGGSSSSSSSMbyw",
"zbGJGGGGJJJJGShywhMGGSSMMMSSSSSSGGSMMMMMMSSSGMhyyhMGGGGGSSSSSbswyhMGSMMMMMbbbzywqyMGJJJJUJGGGSSMSMSSbzzzbbMSSMsyyhMGGGSSSMSMMzyw",
"zbSGGGGGJJJJJShywsSGGGMSSMMMMMMSGGSMSMMbMSMMSbsywsMGSGGJGGSMSzywyhSGSSMSMSMMMzyqwsSJJGGGJUJGGSSMMSGSSMbbbbMMSbswyhbSGSMMMMMMbzyw",
"hbSGSSGJJJGJJShyyhSJGGSMMSMbbMMSGGSMSMMMMMMMMbswwsMGGSGJJGGGSbswwsSGSbMSSMSSSbsqwsGUJJSGGJJGSMSMSSGGGSMbbbbbMMsywsbMSSMSMMbMbzyw",
"hzSGGJJUJJJGJShyszSJGGSMMMbbbbSGGGSSSSGSSSMbSbswwyMGSSJJJJGGSMswwsbSMbMMMMMMGMsqwsGJJGSMGGSSSMMSMSSGGSSMbbMSSMhywsMSMSMMMbbbbzsw",
"szSJUUEEEJJGGSzsyzGJJGSMMbbMSSGJGGGGGGGGMMMMSMswqwzSMSSJEUJJGMhywsbSbbbbbbMMSbyqwsMJSMMMMSbbMSSSMSSSSSbMMSSGGShswsMGMbbMMMbbbzsy",
"szSU!!((EUJJJGzyyhSJJGSMbbMMGJJUUJUJJGJGGSSSSMhwqwzSSSGJEEUJJSzsyybMMbbbbbbMSbyqqyMGSSbbMbzbMMMMSMMSMMMMMSSGJShyysMGMbbMMSMMMzsy",
"szGE!((!EUJJUGhyyhGUJGGMbzMSJUUUEE!EJJJGGSSSGMhq4wbMMSGJUUJJJSzywybMMbzzzzbbMbw44ybSSMbbzhzzbbbbMMMSSMSMSSSGGShwwsMSMbbbMMMMSbsw",
"shGUE!!EUUJUUGzwqsMJGSbzhhzMSGGGJJJJSSSSMMbMMzy43qhbbbMSGGSGSbswwyzSMzhhhzbMMbw33qhbbbzhyysysysshhzbzbbbbbzbMby4qwzzzhzhhzbbbhwq",
"wsSJUUUUJJJJUGhq3qsbzhswqqyssshzbbbzhhhhhssysy4>*>wywyyhhzzhhy434wzMbzssszbSSzw3*>wssyywq33333>34qwsyyyyyyyshy3>34wywwwwwwyssw43",
"wsMGJJJJJJGJUGsq34wysywq44qqqwwwyyssssyywwwww43**34qq4wwyyssy4>>3qbMbzssshbMMby3**qqwqwq3>*@@@oo@>4qwqqwqqwwyw33>4wwq444444qw43>",
"yhbGGUUEUJJJUGzw44qwwwwqqqqqqq44qqshsssyywwwqq344qwwwqwyssssyq>*3wzSMzhhzzbMMby4*>qwqqq443>*@o...@3qqwwwwqwwyywwqqwywq44qq4qqq33",
"yhbGJJEEEEUUEJbywqysyyyyywyysyw44yzbzzzhzhsssywwyhzhhhhzzzzbzy3>3wzMMMbbbbzMSbsq33wsyywwywq33*o.o*4wyysyyyyshzzhsshhsywwywwwyswq",
"szMJUUUE!!!!!UMhyyzbzzhzzzbbMzywwhSGGSSSSSSMMMbbMGJUGGSSGJUUJbw33qhMMSSSMMMMMbswqwhbbzhhhhssyq>*>4yzbMbbhhbbMSSMbbMSMMbzbzzzMbzs",
"szGUUUUE!((((UbsyhMMMbbbbbMSGSsyszGJGGGGGGGGGGSSJUE!EUJJUEE!ESy43qhMMSGGGSMSSMhywsMGGMbzhzhzhy4>3wzMMMMMbbMSGGGSMMSGGGSMSMbMGGMz",
"szJEEUUE!((((UzyysbSbbzbbbbMGSsyhbSGSSGGSSGSSSSGGJUJJUUUUUUUUMy43qhbMGGJGSSMGMhyyhGJGSzhsshzzsq3qyzMbbMbzbMSSSMMbMbSSGSSMSbMGGbh",
"szJEUUUEE!!(!JzwqyzSMbbbMMMMGMhssbSSMMSSSMMMMSSSGSGGGJJJUJJGGby43qhMMSGGGGSSGMhyyzGUJSbhhszzbzq3qybSbbbbbbMMMMMbbzbMSSSMMMbMSMzh",
"szSJJJJJUJUUEJhq4wzMMMbMSSMSGMhyszMSbbSSMMMMMMSSSMMSSSGGSSSSSbyqqybMMSGGGSSSGShyyhSJJSbzzhzbMzw44ybMMMMMbbbMbMMMbbzbMMSSMbbMSMzh",
"szSGGGGGGGGJJSs43wbSSMMMSGSGJShsyhMMMbMMSMMMMSMSMMbbMMSMSMMSSbyqqybGSSSSGSSSJSzyyhSJJGMbbbbMMbw4qszSSSMSbbbzbbMMMbbbMSMMMMMMMbhs",
"yhMSSSSSSSSSGbw33qbMSMSGGGJJUGzyysbMSMMSMSMMMSMMSMbbMSMMSMSSGMswqyMJGGSMSSGJUGhywhSUGGMMbbbMMbwq4ybGSSSMMbzzzzbMMSMMMSMSGSMMSMhy",
"shbSMSMMMSMbMzw33wzSMSGGGGJJUGzywsMSSSSMSMSSSMSSSMMbMSSSSSMSJMswqsMJGGMSMSGGJGhywhGUJJSSMbbMSzw4qybSGGSbbbzhhzbMMMMSSMSGGGGSSbsy",
"hzMGGSSMSMbbbhq43qhMSGGJGGJJJGhwyhMGGSGSMSMMMSGGSMbMSGJJUJGGJSswqsMJGSSSSGSGJShywsGEUJSMMSMMMzw4qsMGGGSMbzhhhzbbbMMSMSGGJJJJGMsw",
"bMSJGSSSSMbzbhw44qzMSGJJJJJJJMswyhMGGGGGSMSSSSJJGSMMGJUEEUJJJShwwhSJGGSSGGMSGShwwsSJUGGMMMSSSzwqqhSJGGSMbbbzzbSSSMMSSSGJUEUJJSsy",
"bMGGSSGGSbbzbzwq4wzSSSGGJJJGGbsqwsMSSGGGSSGGGJJJGSSSGJUUUUJJUGhyyzSJJGGJGGMMGSsqqybSSMSMMMbMSbw4wzGJJGGSSMMMMSSGGGGGSSGJUEUUJSsy",
"hzMMbbMMbzzhzsw44yzSSMGGJGGSSzwq4qzbbbMMbbMMMSSMMMMbMSGGGGSSJMswysbSSMMSSMzzbzw43wzMzbMMbzbbbzw4whSGSMbbbbbbbMSSSSSMMMMSGGJGGbyq",
"qwsswwwywwwwyw33qsbSMSGJJGSSSby3>3wyyyyssysssssshssshzhzhhhzzhq>3qszhshhsyywyy3>3qhbbzMbbzzzbhq33qyhsyyyyyyyysshzzhhhssshzzzhy43",
"44wwq4444444q4>>whbSSSGGJJSSSbw3**qwwwqqqqqwqqq44qqqwwyyyyyyyy4334yswwyywqq4q4>*3qhbzbbbbzzzzhq>*3qwwqwwwwwwwqwwwwwyyyyyssssyq3>",
"qqwwqqqq44qqq4>3yzSGGGGGJJJGGMs4*>qwwwwywqwwq43>*3qqqqwyywwwwwwwqwyyyyyyywqq44>*3wzbbbzbMMbzzhq>*>4wwqwwwywwwq3>>3qwwssssssywq44",
"shhsssyyywyyyq34sbGJUJGJJJJJJMs434yhhhshhssssw>*>3qywyshsyyyyshhhhhzhzhhzhsyyw3>4wzSMbbbMMbzzhq3*3yssssshhsssy4>>3wshzbbzzzhssss",
"MSSSSMbbbbzbbzywyzSJUJJJGJJJGMsqqybSSSMSMSMMbhw44whbzbbbzzzzbbMGGGSSGGSSSMMbbhw44yzMMMbbMMbzbhy44ybSSbbbMSSMGMhwwybSGGJGGSSSbbMM",
"SGGGGGSMMSSSGbswyzGJUUUJJJUJJShwwsSJJGJJJJJJGMhwwyzSSMMMbbbMMSGGJUJJJJGGGGSSSbyq4wbSSMMMMbbbzzwqqyMGGGSSGGJJUJzsyhGUEEUUJJJJGGGG",
"SSSSGSMSSSSGGMhyszGUJUEEUUUUUGhyyhSJGGSSJJJJJShywsbSMMbbzbbbSSSGSGGGGSSSSSSMSby44yMGSMMMbbzbbhw44ybGSMSMSSGJEJzyyzU!!EEUJJUEUJGS",
"MMMMMMSMMSSGGShywhSUJJUEEEUEEJbsyhMJGSSSGJGGJMhywsbSMbbbbzbbMMMMMSSSSMMSMSMSMzw44yMGSSSMbbbbMhw44ybSSMMSMSGUEGhyyzJ!!EUUUUUEUJSS",
"MSMbbMMSSMSGJMswwhSJJJJUEEE!!JzsshbSSSSGJGGSGSswysMGMMMMbbzzbMMSSMSSMMGSSMMSSzw44ybSMSMSMMMMMzw4qybGMSMSMSGGUSsqwhSEEUEUUUJUJGSM",
"SMbbbMMMMSGGJMsqwsMGGGGJUEEEEJzywsbSMSGGJGSSGMswyhSGSSSMbzzzbbMMMSSMSSSGSSSMSbw4qyzSSMSMSSSMSzwq4sMGSSSMSSGJJMsqwsMJUUUUUUJGGGMS",
"MMMbbbMSMSGGGMsqwsMGGSSGJJJJJSsqqwbSMSSGJJGGJMhwyzGUGSSMbzzzzbbMMMSSSMSSGGGGSzyqqybSMMMSMSMSSbw4qyMGSMGSMSGJUGsqqsSJUUJJJJGGSSMS",
"SMbbbMSMMSSGGMyqqsMGGSSSSGGGGMyq4qhMMSSGJJJJJSswszGJJSSMbzbzzbbMSSMMMSMSGGGGSbyqwsMSMSSMSMSMMzwqqsMSSSSSSSGJUSsqwsMJUJJGGGGGSMSM",
"bbbbMMMSMSSSSbyq4ybSGGMMSSSGSbyq4qsbMMSSUUUJJShyyhSGGMMMbbbbbbMMMSMSSMMSGGGJGMsqqybSSMSMMMSMMhw4qyMSSMSSGGGJJSyqqsbSGGGGSSGGGSSM",
"bbbbMSSMSMMMSzyq4wzSGGSSSSGSSbyq3qhzSSSSJJUUGMhwyhSGSSSMbbbbbbMSMMSMSSSSSGGGGMyqqybSSSSSSSMSMhw4qybSSSMMSGGGGbyqwybSMSGGSMGGGSSS",
"bzbbMSMSSMSSSzw44wbSGGSSGGJGSbyq4wzSGGGSGSGGGbywwsbGSSMMbzbzzbMSMbSMSMSMMMSSSby43wbSGGGGGGSMbhw4qsbSMSMSSSGGSby4wsbSSMSSMSSGGGSM",
"hhhzbbbbbbbbbzq33wzMSSbbMMSMbhq44wbGGGGGSSGGSbyq4whbbbMbzhhhhzzzhzbMMMbbzzzbMhw33qzMMSSSMMMbbs434yzMMMSMMSGGSbw4qwzbMMbbbbbbMMMM",
"wywyysysssshhs4>34hzzhssshhhsw3>4sMJGGSMSMSGSzw3>3wshhhsyyywyyysyyhhzhhssyshhs4>>3yzzzzzzhhhsy>*3qzMbMMMMSGGSzyq44yhzhshhsshsssh",
"qwqwwwwwwwyysy3>*4shssywyyyywq*@4sSJJGSSMSSGGbw>**4yssyywqqqqwwwwwssssyyywyssw3>*3yssshhsyyyyq*o>qhbbbMSMSSGSby433wyssysyysywwyy"
};
