/* XPM */
static char *east[] = {
/* columns rows colors chars-per-pixel */
"128 128 61 1 ",
"  c #797979",
". c #7B7B7B",
"X c #7C7C7C",
"o c #7E7E7E",
"O c #7F7F7F",
"+ c #808080",
"@ c #818181",
"# c #828282",
"$ c #838383",
"% c #848484",
"& c #858585",
"* c #868686",
"= c #878787",
"- c #888888",
"; c #898989",
": c #8A8A8A",
"> c #8B8B8B",
", c #8C8C8C",
"< c #8D8D8D",
"1 c #8E8E8E",
"2 c #8F8F8F",
"3 c #909090",
"4 c #919191",
"5 c #929292",
"6 c #939393",
"7 c #949494",
"8 c #959595",
"9 c #969696",
"0 c #979797",
"q c #989898",
"w c #999999",
"e c #9A9A9A",
"r c #9B9B9B",
"t c #9C9C9C",
"y c #9D9D9D",
"u c #9E9E9E",
"i c #9F9F9F",
"p c #A0A0A0",
"a c #A1A1A1",
"s c #A2A2A2",
"d c #A3A3A3",
"f c #A4A4A4",
"g c #A5A5A5",
"h c #A6A6A6",
"j c #A7A7A7",
"k c #A8A8A8",
"l c #A9A9A9",
"z c #AAAAAA",
"x c #ABABAB",
"c c #ACACAC",
"v c #ADADAD",
"b c #AEAEAE",
"n c #AFAFAF",
"m c #B0B0B0",
"M c #B1B1B1",
"N c #B2B2B2",
"B c #B3B3B3",
"V c #B4B4B4",
"C c #B5B5B5",
"Z c #B6B6B6",
"A c #B7B7B7",
/* pixels */
"cxggpieeee855888e8eee8e8e8228e88e8e88eiiiie858iee522888888e8e8eeeeiiii88888eeipppppiee8885:28eiie522:25eeeippiee5555228eee85eepg",
"xxxgpiieee85588eeee885888525888e888eeiiiee8888iii85558558e8e8ee8eeeiie858e8eeiggiiiieee88522eippe82222588eeeiee88888558eee88eipg",
"xxggpiiiie88858eiee85555855888e8888eeiiee88888eiie85552288eeee8888eeie88eeiippggiieeee888858iggpe85522222255885288ee8eeeeeeeiipp",
"ggggpiiiiiee888eiie8255888558e8888eiiiie855558eieie885:288eeee8555588eeeeiipppgpeeee888e888epgxgi8882222222222228eiiieeeeeeiiiii",
"pgggppppeeiee88eiee8558ee85288eeeieeieee85225588ee85552288eeee8522225eiiipggpiiee8e8888e888eipggpee88888855522::5eipiiiiiiiiii88",
"pppggpppieieeeeeiiee88eee8258eeeipeeee8852:25555585255228e88ee8522228eppppxggieee888588e8e8eipgppiie888ee8852:*:5eeiiippiiiiie88",
"ppggggggiieiiiiiii888eeeee8588eippie88882::2552255225555e888888888858eipgxggpieee8855258e888eeppggpi88eee885::*288eeipxxgpiiiie8",
"ippggpgpiieeeiiiiee8e8eee8888eippppee8882::25525852255588e8888e8eeeeeiipggggpieee8852258885558iippie88eeee85:::25eeeipxgxpiiiie8",
"eeipiiiieeiieeee8e8eeeiee8588eiippppiie82225555888888522588858ee8eiiiiipggggpieeee8885555522:58eieeee8eeiee52::288eiigggggpiieee",
"eeiiiie8eeeiiee8eeeeeeiiee88eeppgggpiei8255588eiieee552258e888eeeeipiiiippppiieee88885855522:288ee8888e8888852558eiiipppgppieeei",
"iieeiiee8eeeieiiieeeiiiiieeeeipgxxxpii8855588ippiie885228ee888ipppppiiiiieeiie8e88855558885522588e8858855588858eiiiiieiiggppiiii",
"iieiiieie8eiiiipiie8eiiiiiieipgxxxgpe8e885588iggiie852258eie88ipggppppiee8888e885552555588552258ee852552258e888eiiiiee8ipgppiiii",
"iiiiiippiieeippgpie8eeiippppipgxxxgpe88e88588ipgpi8522558eii8epgxggppppie555ee8822:2::2288e5225eee852:22258e8eeiiiiieeeepgppiipp",
"eeiiiippiieeipggpieeeiiipppppppgxxgp88eeee88eippie85222588eeeigggxggpiiie8558ie822::::258e882588e882:::2558eeeeeiipiieeiggppippp",
"58ipippgppieeipgpiiiiipppgppppggpppiee8eee8e8eieee852222228eippgxgggiiiie88eeiie5:::*:2558e85588e8852:22588e8e8eippiiiipppppgppp",
":28eiipggpieeepppppipppppgppppppiiiiieeeiieeeeeeee552:2:::28iigggggpiiiiiieiiiii52::::5588e88555eee855255888888eipiiipppppppgpii",
"*:258eippie8ee8eippppppppppieeeeeeeeiiiiiiieeeeee822:2522:25ipgggpgpppppppppppii852:25558eee8525eiiieee88888555eiieeiiiiiiiipiee",
"::258eeiiieeee88eiiipppppppie88e88eiiipiiiieeeiee82222222228ippgggppppppggppppiie85558888eiee858ippppiiieee82258eieeiiiieiiiiiii",
"885558eeeee8888eeeeeippgpppieeee8eeiiiipiieeeiie85:::222:258epggggggggggpgpggpiie8588eiee8eeeieiiipppggpie8522888eeiiiii8e8ipppp",
"ee888888eeeeee8eee8eppgpppgpieeeeeiiiiipiieeiiiie5222252258eipgggggggggppppppiie8888eeiieeeippppiipppggpii852288eeeippie888eipgg",
"iiie888888eeee88eeeeiiggppppipiiiiiieiiiiiiiiipie888588558eeiippggxgggppeeeeiee8e88eiiiiieipgxxxppppiipiee8888eeeipggppi888eipgg",
"iiiie888eeeeeeeeee8eipgppgggppppppiie8eiiiiiiiiieieiee8e8eeeiiipxgxgxppieeee8eeee888eeeiiiipxcxxgpppiiieeeee888iipggggpieeeiippg",
"ppiiee8eeieeeiii8e8eiiipgggxgpppggpi888eiiiiiieeiiiieee88eeeieppgxxxxgpie888eeee8852888eiippgcccxxppieeeee88528eipggggpieeeipppp",
"pppieee8iieiiiiie8eeiiiigggxggpggxpi8525eiiiiiieiiieee88e8eeeeipggxxxgpii8888iiie8525558ipppxcccxxpiee8e8e85228eippggggieeiipppp",
"ppgpieeeiieeiipieeiiiieeipggggpggggpe5225eeeeiiiiiee888eeeeeeeipgxccxgpie8888iiie8555558eiipgcMMxggiee888852228eiippgggpeeeiippg",
"ippieeeiiiieipppiiippieepppgppgxxggp852258eeiiiiieee888eee88eiippxxxggpi8858eeieee88888eiipppxccxgppie888522228eeiiippgpieeiiigg",
"ieeeeeiippiiipggpgpipieeippppgxxgxgge85588iiiiiie88888eeiee88eipppgppppe52588iiiiiieeeeeppipgxxxggggie88888888ee8eeiiiipiiiippgg",
"e8eeeippppppppxxxgpiiieeippgxgxxxxgpi8888eeiiiiie88888eiiieeeiippppppppe5258eeeiipiieeiiippppgpgggppee888e8888885588eeiippppppgp",
"ee8ippgxgggggggxxgppeeeeippgxxxxxgppiieeeeeiiiiiiieee8iiiieeiiiippiiiiie8588e8eepppieeeeeipgppippppiee888e885552222258iipgxgxgpp",
"588epggggxgggggxxxpii88eippggxxgppppppiie88eiiiiipe8eeeieieeeiiiiiiiiiii888ee88epgiiiee8eigpppiiiiiiee88855555222:::28eipgxxgppp",
"2225eippgpgxxggpgggiieeeeeeippppiipggppie8eeiippppieeee8eeeeeeeeeeeeeiieeeee8588ipiiieeeeippppieeiii88882225882:2::2225epgxgpppp",
"*::28eippppggpgpggpie8ee88eeeiiieipgggpieeeiiipppgieeee888888eee88eeeeeie888858eiiiiiieiiiiippieeepi885522:2885:22:2:258eiggpipp",
"::::258iiiieiipgxgpi88e8e88888eeeeipppppiiiieeeiipiiiee8855258e852588eeeee8858eiiiiiiiippieiipiiiiii8885552255552:22:2258eiiiiii",
":::::28eeee88igxggpe8888888825888eeiiipppipi8eeeiiiiiiee55:22255222588eeee8888ippiiiiippppeeipppiiie88555522555522:22::288eeeiii",
"2:*::2258e858ipgppee5888e885:::258eeeeippppieeieeeiieee852:*::2:**::588eie888ipgpppiiiipgpeeiipgpee552255522555522522::288eeiiie",
"22:::::258588eppiie88888ee82::22588888eiiippiiiieeiiee8885:***:::**:288eeieeeigppppppiiigpieiigppi82:::222222552:2552:258eeiiiee",
"88555222225888eeieieieeee88555588e8525eeeiggpppie8iiiee885:*:::::*:2588eeeiiipppppggpiiipieeiipppe5::*::2222222::2552:888eeiiiii",
"iiee855225558ee88eiiiee8ee88858eee85:28eeipxgppieeieeeee552222552222588eeiiipppippggie8eiieiiiiiie52:*::::2522::::222588e8iiiiii",
"pppie8555888888588eie8558e8888eeee85228eeippppppiiieeee885555888888e8e8eeiipggpippppe88eiiiiiieeee82:::2:22255552:22288eeeeeeeii",
"pgppie8888888885588e8525588888888ee8258eeeipppppiieeeeie8888eeeeeee888eeiiiipppipppi8858eippiieeee852222222255552::255eeee8eeeie",
"ppppiee888855855888e8588555222588e88588eeeppppppppieiipiee88eee888888888eeeeiiiiippiee8eippppgpieeee8e88885588852225588eiee8eeee",
"piippieeee8555888888888e8552255888e85588eipppppgppieeipppiieee88885858588e888eiiiiiiieeipppgggppeeeeeeiee88888885558888eiiieeiee",
"pppppipie885228888888eieee858888eee8558eeipgggxggpiieepgppieee8888888888e82258iieiipgpipggggggppiieeiiiieee88eeeeeeeeeeeiiiieiii",
"ppppppppie8525888888eeeieeee8eeeee88258eiipgxgxgggppiipgppiie8888eeee8ee852258eiieipggppppgpppppiieiipiiieeie8eeiiee8eeeeiiiiiii",
"pppgppgpiie822888e8888ee8eeeeieeee8888iippppggggggppipgppiee8858eiiieee8852258eeiipgggppiiiiiieiiiiiipppiiieeeeeiie8888eeeeeeeie",
"ipgggppgpii8228eiiee858888eeiieee85558eipppiiipppgppipggpi888888ipppieee52222558epgggppieeeee8eeiiiipiiiiiiie8eeeee858e88e888eee",
"eigggppgpgi822eippiee885885eeiii852:25eeiipi85eeippgppggpe88888epggpiee82:::::25iiippipi888e8888eiiiiiee8eie88888e858e8e88858888",
"eipxxggpgpe525epgpiii8888888iiie8222258iiipe5228eiggppggpie88eeipppiiee82::***:58iiiiiiie8888e8eeiiiii8888e8888888888eeeee8858ee",
"eigxxxxgppe5558iipiiie88eeieiii8525558eipppe82228eiiiipgpiee8eeippppeee82:*$**:28e88eiiiieeieee8eiiiiee888888888e8888eiieeee8eei",
"eipgxxcgpe8588eiipiiie8eiiiiiii855888eippppi85258eiiiippieee8eiippiieee82*$O$*::55525eeiiiiiiie88eeieeee8888eeeeee8e8eeeeeeeieii",
"iipxccxpe85888eipiee8888eeeeiie858iiiiippgii8858eieeeeii8eeeeeiiieieeee82*$$$$*:2:**258eiieeeeeeeeiee8ee85258eiiiiee888858eeiiip",
"eipgggpi8588eiippie88888eeeiiiieeeiippppggpe888eiiee888885eeeeeieeeeie882**$$*::::*:25eiiieeeeee8888888855255eiiipie858558eeippp",
"eieiiee858eippggiie888eeeeeippppipppppggggpieeeeipie855558iiiieeeeiiiie52:$$O*::::2588eiiieeeeiee852252555558eeipggpe85888eeippp",
"eeee88888eipgggpiiieeeeeeeippggggpgppppppppie8eiippee555eiiippiieippiie85:****22228eeeiiieeeeeiee822:222585888eipxxgi8888eeiiipp",
"iie88888eipggggpiiiiiiiiiipgxxgxxggpiiiie8ee888eiiiieeeepppgggpiippgiiee852:22255888eeeieeeeeeiie82::25888888iipxxggpee8ieeeppgg",
"iee855eepgggggpppipiiiiippgxgxxgcxggiii888588588ipiieiipggppxxpiipgpieeee8555858e8ee888eee88eeiiie555888ee88eippxxxppieeiiiippgp",
"pie888epgggxcxgppgpgpgppppgppggxcxxgppi888885555eiiiiippgggxxgpppppieeeeiiee88e8e88e8e8ee88888iiiieee8eeeeeiiipxxxgpiiiieepgpppp",
"ieee88ipgxxxccxxxgggggppppppipgxxxggpieee8885525eiiippppgggxxgpiiiiie8eiiiiie8885588e8e88e8888eipipieee8eeiiiiggxxgpiiipiiggxgpg",
"88888eiiggxxMVMMxxxxxxggggppiepggxggpieeeee88558eeeiipppggxxxppiieeeeeeiiiiiie5222258e8eie888eiipgpie85558iiiiipggppiipppgxxxgxg",
"5555eeeipggxMMVcxxgxccxxxxgpeiipggggpie8eeee8888eeeeippppgxggpiee888eeiiiiiiii52:::28e8eiiieeeipggppe82258eiiiiiggpppppppgxggxgx",
"25558eeipppgxccxpggxcMxgccggpiipggpggpiieeee8e88eeeiiiiippppppie8858eiiiiiipie85:::58855eiieeeeipgpiie8558eeeeeeipipgppppppgggxg",
":2558888ipipggxgppgxccxxccxgpiippggpgpiieeeeeeee8eiiiiiiiiiiiiee855eiiiiipppiie852258825eiiieeeepgpiie8588eieeeeiiippggpppppgggg",
"*:2225588eiipppppgxxcxggggggppiippgpppieeeiiee8888eeeeeeeeeeeee8888eiippippgpiee8888885588eeee8epppiee8eeepppieeeeeiipggppgggggp",
"*::::2558eeipppppggxxgpgppggpppgggggppeeeeiieee888888eeee8eeeeee88eiipppppgpieieeeee8e88888888eipppie8eeeigppieeeeeeiiggpppggggp",
"222::255888eippppgggiiiiiippgggxcxxgpieeeeee88eee888888eeeeeiiieeeeiiiipggppieiipiee8888852258eiipiiieiiiiiiiiee88eeeipgppppxxgg",
"552:::258858eipggggpeeeiiiipgxcMMcxgpie8855558iiiee888eeeeeeipii88ipppppggpieippppie8ee8e5:*58ipiiiiiiieeiiiiieeee8eeeppppipgggg",
"882::222888eeipgxggiee8eeiipgcMVMcgiiee82:::25epppiieeee888eeppi55eppgpiggpiippggpiee8ee82**58iieeeiiiieeeeeeeiiiiiieee8eeiigggp",
"882:2:::258e8eigggpie8eeeeipxcMVMcpieee82:*::5eigppiee8888558eee55eigpiippppippggppeeeee85:258eie8eeeieeee88eeiiiiiee8558e8epppi",
"e82:::::228888eiggppeeeeiiipxcMMcgiee8e8522:55eippppie8552::2288558iiiie8eeiiipppppieeiie8558eeee88eeieiieiiieieiiie85:22588ieee",
"882::::::28e88eepgpiieiiieipgxccxgieee888522588ippppiee52:**:255888eie88588eiippiiiieiipie88eeee88e8eeiiiiiiiieeiee8852222588e88",
"852:**:::588888eiipieeeeeeeigxxxggpiee888855588epppiiee852:*25888eeie8885888ipggiie8iippiieeeee8888eeeiiiiiiiiee888555552558e888",
"e852:*:225888888eiiiee8e88eeppgggpiie8eeee8888eiggpieeee852:588eeeiie8555558epgpiieeiippppeeee885558eeiiiiiiiee88ee8885555588888",
"iee522255888888e8eeeee8e8eeeeeipggpieeeieeeeeeiiggpieeee88558eieipgpi8222258eiiieeeiipgggpeeeee822:28eipiieeeeeeeeeee885588888ee",
"ppie5558e8eeeee88eeeeieieiee8eiigpiieiiieiiieiipgpiieeeeeee8eiipppgpi852:2258eeieeeippgxgpieee885::28eiiiieeeeeeeeiie85588e8eeei",
"gpppieie8eiiiee888eeiippppeeeeiipppiippppiiiiiippiiiieeeiiiiiipggpppe882::228eiiee8epgxxxpieeee885558eiieeeeiiiieeeeee88eeeeippp",
"ggpppppieeippieeee8eipgggpieeeiippiiipggppiiiieeiieeiieeiiiiiiggggpiie852::25eeiee88pxxggpieeeeeiee888eeee8eeiieeeeee88eipiiipgg",
"xggpgpgpiiipiiiiieeeiippggpieeeiiiieeipgppiiee88eeiiiiiiiipippppppppiie852228eiii888iggxgppieeiiiiie88ee8888eiiiiee88e8epgggppgg",
"ggxxxxggppppiieiiieeeipppppieeeeei8eeeppiiie88558eiiiiiiiiiipppiiipppiee8522eeiiee88epppppiiieiiiiie8588e8888eiieee8eeeiggggpppg",
"pgcMMcgpipiiieeiiiiieiiiieiiee888e88eeiieee85225eeeieiiiiieeiieeeipppiiee8528eiee8888iipiiiiiippiiiie888eeeeeeiiii88eiipggggpppp",
"ppccccgpiiiiee8eiiiieeiiieiie8558888eee8e88822258ee8eeeiii8eeieeeeipiieee8228eiie88588eiiiiiieieiiiee8588eee8eiiii88eippggggpppp",
"pppgxggggpiee888iiiieeiiiiiie825888eeeee85885558e8888eiiii88eieeeeiieiiee8225eeiee8588eiiiiiee558eeee8888eeieepgppeeeeipgggppppp",
"pipppgggggiiee8eeiiieeiieiiie8558e8eeeee88e88eeiee8588eiee558eeeeiieeeie882288eeii8858eeiieie85288ee888888iieigggpeeeeiippppppii",
"ppiipggxxgipieeeiiiieeee8eeeiieeeeeeeeieee88eiipie22228888528eeeieeeee8e85888eeeee858eieeeeie8888eeee888e8eeiiggpiee8eeeppppiiie",
"ppppppxxxgppiieiiippiee8558epppiieeeeeeiieiippggpi522558852588eiiiie888555888e8e8e88eiiie8eeieee8eee8885888eipxgpiieee8eipppieee",
"gggpppgxggxgppppppppii85528epgiiieee8eeiiiiipggxgpi88888e888eeeeiiiie852:2588888e88eipppeeeiiieeeee852:2258epgxgggpiieeeiipiee88",
"gggggppgggggppppppppii88258eppiipiie88eeeiiiggggggpieeiiiee8eeeeiiiie852222555888eeiipggiippiieeeiee52::258ipggggppiiieiiiie8855",
"ggggpppppppgpgggppiiee8888eeieeippi88888eeiiiippppiiiiiiiiii88eeiipiee885552558eeeiipgppgggppieeiiie82::258eeippgppiiiiee888852:",
"gggppppgppppggggpppieee8e8e888eigpie8888eeieeeippiiiiippiiieeeeiiipie8eee85588eeeippggppgxgpiie8eppie5225888eeppiiiiiiiee855552:",
"gggppppggggpggggggpgpie8ee8555ippiiee8eie888eiiiiiiiiipppgiieeiiiipie588eeeeeiiiiiiipiiipggpie8eeippi88888528eppeieeeeee88525585",
"ggppppxxggppggggggggpiee888225ippieeeiipe858eeiiiiiieippxgpieiipiiie8558888eeiieiiiiiieeppieeee8eeppiee8e8558eppieeeee85882:258e",
"ppppxxMcxgppggxgggxggpi888258ipggpiiiippie888eeie8eeeeigxcgpiiggiie885552588eieieiiiie88e8558eeeeeeeee8ee8e8ipgpiieee85588222588",
"pppgccVMxggpgggggggggpe55225iggxgxggpppppi88eeie858888ipccxgppggiie8855222588ee88eeee8855222588888ee8888eeeiiiggpei885:288522588",
"ppgxMVMMxxggggpppggxgp82::5epxxgxxxxggppiie8eeee855558ipxxgppgggi8e88822::558e8888ee885::**:22258888ee888eeeeipipie8522258555885",
"iipxcMMcggggggppppggxpe5:25epxgxxxxxxgppiie8eeee855258ipggggppppe88885***:5588858888ee5:*$$$$**:258e8888eeeeeeiiiie852225558e888",
"eepgxxxxgpggxggppggxxpe8558eipgxgxxxxppiiieeeeiiee8558iiggggppie88852:$O$:2888888e8eei85*$$$O O$*28888eeeieeiieeiiie8855228eeiii",
"88iipggggggxgggggxgggpe8888eippggxcxxgppiiieeeeiiiie8eipggggpie885552*$O$*25888eeieiiee52**O   $$:88eeeeiieiiiiiiiiie8552258ippp",
"eeeiigxxxxgggxxxxxgpiee88e8eipggxxcMcxgggppieeeeeippiiipgggggpee855552:*::2288eiiieeeee852*$O O$$:28ieeeiieppgggpppie8855525epgg",
"eeiiipxcMcxgxxccxgpiee8888eeiipggxMMxxgggpppeee8eigxppppgxxxxpi852558855522558ipiiee888552:$OOO**:28eie888eiggggpiiie8858555ipgx",
"eeipgxcMMMMMcMMcgpie8522228eipppggxxgpggppppieeeipccxgpgxxxxgpi822258eee88888ipgiee88822::**O$$**:228e88228epippiiipie888858pgpp",
"iipxxccMVVVVMMcxpie85522225eipppggggiipgpiiiiiieipccxggggxxxgpe82:258eiiei8eeiggieiie8:::***$***:2225855:28eiiie88eiiiiee888pgpp",
"ppgxxxxcMVAAVMxpiiee852::258eiipxggpieipppieiiiippgxgxgggxgxpie822258iiiiieeiiggipggpe2**$**:::258555255::5eeee8528eiiieee8eippp",
"ppxxxxxxccVVVcpee8e85552558eiipggxpi88eiiieeeeeiiiipgggggpppiee82258eeiipieipppgppggpe5:*$*:2225ee882555225888882225eiie8888ippp",
"ggpgxgpgxxcccgie88885588eeieippgxgpe558e888888eee858eippieeiie8888eeeeiiiiiipggppgggpi522:255558ee8888885525888522228eee8525eipp",
"ppiippiippggpi85555588eeiiippggggppe55888555888ee8258eiieeeeeeee8eeeieeiiiipggppggggpi8522555858e8e8eee885::2555555558e88858eiii",
"ieeeeeeeiiieee5222558eipiippggggppiee88e8885888e88588eieeeeeiiieeeiiiieeeiipgpppppgggpi5222588858eeeiiee82**:25585588eeiie8eeeee",
"eeeeeee88e88852225588eippppggxgppieeeieee888eeiie8558iieieeiipiiiipppieeiiiiggpppppxgpi8555888588eeeiiii82***:55588eeeippiiiee88",
"gpiiiieee85222552558iipgxggggggpiieeiiiie88eeippi855eigpgpiippppiiipgpeeeieipgppppgggpie88888558eiiiiipe5:*:*288858eeiipggppi888",
"xgpiieiee5:::2585558ipgggggpppiiiieieiiiee8eipgpie55ipxxxgppgpppipppgpieiieepgpiiippgiiiee88888eippppiie52:225eee88eiipggxxpie88",
"cxgiieiee52::2888558iipppppiiie8eeeeeiiiiieeiippie8eipxxggggggggpgggppiiee8eiiieeeeeeeee8585588ipgggpiee88888eppiiiippppgxxgpie8",
"xgpieeee85222588888eeiipppiiee88eeeeeeeiieieiippiiieppgxxxgggxgggggpppiiee88eeee888585855552588epggpiieeee8eeepgppppppipgxggpiee",
"pppie855225858iieieeeeppppiie8888eee8eeeeeeiieipiiiipppggxppgxpppgggppiiii8ee8e85222:2222::2225eipppieeeeeee8eppgpgpppipxxxxpiee",
"pppie85225888eiippieiipppppiie88eeeeeeeeeeiieeeiiiiiiippgppippppppggpppipie88e8522:222:2:2:::225eipiee8eeeeeeeippgggpppgxxxxpie8",
"iiiiie88558e8eigxggppipppggppie8eeiiieiiiiii88eeiiieeeippiieeiipppggggppgpee88e822258522552:::225eiiieeeiiiiiiippppppgxxxcxgieee",
"iiiiiie888888eipxxgggppggggpppieeiippippppie888eeeee88iiie88eeiippggggppggiee8e8525588555822:::258eiiieeipppppppppppggxxxxxgeeee",
"iiiipiee8eee8eipgxggxggggpppppieeeppppggpiiie8eeee8888ee5558eeiipgggggppgpieeee888555555882:::588eiipieeiipppggppppggxxxgxggieii",
"eiiiiiee8eeeeeipgggxxxxgxgggppppiiggppgppiiiiieeee8858852255eeiiggggpppippi8888ee88888888522:25e8eeiieeeiippgxxggpggxxxggggpieii",
"eeeeeee88eeiiiippggxgxxxxxxxxpggpppppippppppgpiiiie8855222258eeiippiieeiieee888888eeee85522::2588eeeee88eiipxxxxggxcccxxggxgpppp",
"8e88888eeeiipiiippggpgxxxcccxxxgppppiippppppggpiiiee8552222588eeiiiee8eeeee885555eiieee852522558e88888eeiippgxgpggxccccxxxgggppp",
"e88558ee8eeippiipppppggxxcMMcxxgppieeiipgppppppippie888852::588eiiee88iiiee8852288eeeeee888888888eeeeeeeeeipppiipppxcccxxgxgppie",
"e852588e8eippiiiiipppppggxccxgxpieeeeeppggppiiipppppeee852::258eeieeeeeiiiiee85588eeeeeeeee8888eeeieieeeeipppieeiippxxxxxggppeee",
"e85555888iiiiieeeiiiiiiipgxggpieee8eeeipggggppppggggpie85::::258eeeeeeeeiiiie888eee88888eee88858eeeiiieeiiipgpieeiipgxxgppiiee8e",
"88588888eeeiiieeeeeiiieeipppiiee85888eeipgggppppggggppee222::25888eeeeeiipiiieeeeeee88888e885558eeiiieeeiiipgpeeeeipggpppiiiieee",
"858588e88eeeeeee8eeiii8eiipiee8822228eeigggggpipgggppie85555558888eeeeeeippiieeeeeeeiee8e8e85258eeeeee8eiigppieeeeeeiiiipiiieiei",
"55558eeee88e8e88888eiieeiipiee882::28ieipgggiiiiggiiiee855522588558eeeeeeiiiiie8e8eeiiieee8852558eee8e8eippppee88eeeeeiiiiiiiiii",
"22:288eee8e88885558eiieeiiii88e85528ipiippppieeeiieeee852222:288558eeeee8e8eee85558epgpiieee55228e88eeeeeiiii888eeeeeeeeeeeiiiee",
"2::25e8e888eee85558iiieeeeiie888888eppiiiiiiee8888e8ee85222::28525eeee888888888855eipppiiiee85::58588eeeeeeiee88eeeeeeee8e8eeiee",
":2:25888888eeeee88iiieeeeeie852588ipgpieeeiie8525888eee85522228822eiiee888eeeee888ipppiiieeee52::2558888eeeeie888e8eeiee8e8eeee8",
"2:22585558eeeeeeeeiiee888eii82225eipggie8eeii8225558iie8522:228825eiiiee8eeeeeeee8ipppiieeee88::::55588eeeeeiiee888eiieee8e888e8"
};
