/* XPM */
static char *north[] = {
/* columns rows colors chars-per-pixel */
"128 128 25 1 ",
"  c #847768",
". c #86796A",
"X c #8B7E6D",
"o c #8D806F",
"O c #8F8171",
"+ c #938674",
"@ c #968877",
"# c #978A78",
"$ c #9B8D7C",
"% c #9F907F",
"& c #A0917F",
"* c #9F9180",
"= c #A39582",
"- c #A79886",
"; c #A89987",
": c #AC9D8A",
"> c #AFA08D",
", c #B1A28E",
"< c #B4A591",
"1 c #B8A794",
"2 c #B7A893",
"3 c #B9AA95",
"4 c #BDAD99",
"5 c #BFB09B",
"6 c #C2B29D",
/* pixels */
"33,,>;--&&&&&&&&&&<&&&&,&&&&&,&&=====;:>;;-&&-;;-%$%&&=&======;;--;;;-&%==&&-;22>:>:;-;==%@$&:::=&$$@$&&--;;::;;&&&&%&=--=&&-:2,",
"322,>>;;2&,&&&&&&<<&&&&&&&&&&&&&&==-;;::;;-&&=;:-&&&&&&&&=-==-----;;--&&=-==-;2:>::;-=-=&&$%=:>:-&&$$@&&&&--;---=&==&&=--=&&;:>,",
"2222,>>;2&<&&&&&&<&&&&&&&&&&&&&&%==;:>;;-&&&&-;:;;&&&%$$%=---====&----==--;-::2:>;;;=&=&&%$=:,2>-&&&$$$$%%&&&&$&&-;;==&--==-::::",
"<<,,,>>>&,&&&&&2<&,&&&&&&&&&&&&<===;::;;&&%%&&;;;;=&&&$@%=----=%%%%%=---;>>2::2>:;-=&=&=&&&-:,2,:-&&%$$%%$$$$$@$&-:>::----;;::;;",
"<<,>>>>;&<&&&&&,&2<&&&&&&&&&&&&&-;==;---&&%$%%&=&;&&&&$$%==---=%%$$$&-;::>>22:::;===&==-===;,22,>:;-&&&&&&&$$@@@&-:>>:-:;;;::;==",
",,,>>>>>2&,&,&>&2&&&&&&,<&&&&,&2:;;;=-=&%%$$$%$%&&&&&&$%&&=====&%%$$&;;:2:2:;;;;;;==&&==;==;:>,222:;=&&=-=&$#@@@%&;>:>>:>::::;=&",
">><<,>>>,&&,&,2><2&,&&2&&&&&&2,&>>:;=&=&$@@$$%$$&&@@@$%&==&&=-==-&&%=;>22222::;;==&&$$%&===&=;:,>,:;=&----&%$@@@%&;;:>222>>::;-=",
">&,,>>>>2&<&<&&2&&&&&&&<<&&&&&&52>:;-=-&$@@$&&$%&&%%%%%&==&=====-=-=-;>22>22>;--;=&&$$$&==%$$&;:>:;-===---=&$@@@%&-;:,2222>:;-;-",
"&>>>>>&>&>&>&>&&&2&2&2&&&&&&&&22>>>:;;-&%@$%&&%%-&;&%%@%%&%====--=-;;::>:>2>:;;--==&&&$%&&&$$$=-;;===-;;;;-&$@@$&=-;:>222>::-=--",
"&&&&>>>&&>&><&&&&&&&&&2<&&&&&2&22>>>::;=%$%&-&--;;;;=$$$%=&=%=--;;::::::::>::;;=;===&&%%&&&$@$&=-=&&&=-===-&%@&&=-;:::>22>::-=-;",
">>>&>&>&>&>>&,&>2&2&2&2&2<&&&&22222>;;=&%$&&-->>:;;;=%$$&---&=-::>:::::;==;;;:-==&&%&&&&&&&&$$&&==&%&&&&&&&&&&==;::;-;;:>,>::;::",
">&>>&>&>&&>&>><&2&&&&2&2,&2&22&2222>;===&&&&=;>>::;&&%$%=-;;=-;>222>>>:;=&&=-;-=&$$$&&&&&&=&$$$&=-&%$$%$$%&====;:>::-=-;,2>::::>",
"&>>>&>&>>>>&<>>,22&&&2&&2&2&<<&5222:-===-&&==;:>::=&%$$%=-;;;;:>22>>>>:;=&&&=-=&&$@@@$@&&===&$&&;;&%@$$$$&=-=-;;>>>:;==;>>>:::>>",
">&&>>>>>>>&>&>,<2&&&&22<&2&2&3<322>:-&=---==-;:::;&%%@$$%&-;;:>>:2222>:;-&&&--;=&@@+@@$&&=-=&$&=-;=%$@$$$&&--==;>,>:;;;:>2>>>>>:",
"%&&>>>><>>&&>><22<2&&&&332&3&5&52>>:-==-;;--;;;;-;%%$$$$@$&-:>2>>2>>>:;-;-==;;:;&$++@@@&&&==&&&===&$$@$@$&==&=;;:>>::;::>>>>>>::",
"@%&>>><><>>&&>&<&,222&2&4&4&3&2&::::;-=-;;;-;;;-==%%@@$$$$%&;>>22>2>:;;:::;-::::=@@++@@&&&--&&&&=-=&&%&%&&==&&=;:::;;:>>:>::2>:;",
"@#&&&,23232&2&&2&&2,<&<<&2&<&<&&==;:;;;;;;;;;;;=;-&$@$$%$$$%=:>>>2,>::>>>>:::::==&$@$$%&&=--=&$$&-;:---&=&==%%&-;;;;;::>:>>:::--",
"#$&&&&&&&&&&&&&&&2,&&<&2&<<<&&&&==;:;:;;>>>;:;;;-&$$$@$$$$$%=;>22>>:::>22,>>>>::;&%%&&=&==---&$&-::::>::;-==%%%=;;--::::;:::::;;",
"&&&&&&&2&22&&&&&&&&&&22&22<&<&&<==;:>>>>>>;;;:;;&%@@@$$$@$%&;:>2>>>:,,>>>>,,>::==&&&&;:=-=------::>>,2,>:-&%@$%&&==;:::;&&;;::>>",
"&&&&&&&&&&&&2&&&&2&&2&2<<&&<&&<&;;;::>>>>;;;;::;-%$$$&$$$$%-;>>22>2>2,>::>,>::=:==&&::::;--;:>,2>::>,,,>:-&%$$&===;::>:-&&=::>,2",
"2<&&&&&&&&&22&&&<&<&<<52&<<23&2&;;;;;;::;:;:>>>:;&&&&&&&&&-;::>>2222,:::;;::;;;=;&&&;:>:;::>22222>::>>::--&&&&--::>2>>:;=&=;:,22",
",&,<2&&&&2&&&&&2&&&&<&&233&&2<<2>:>;-=;;;>::>:::;;;:-&---=-;:::>,2222,:;;;=;;=;;;;=&=:;::;:,22522>:::::----=&&-;>,,22,:-==-;:,,,",
"2&<&&&&&&22&&22&<&<&&&2<222<<<&22>>:=&&;:>>>:;;;;:::--=-=---;;:>22222,,:;==&=;;;=&%$&&%&-:>>222522,:;---;;-&%%&-:>,,,,>:-=;;::::",
"&,222&2&&&2&&2&&&&&<2<&23&25&,,<>22:=%%=;::::;;;;:::-=-=--=--;::,22222,::&&&=;;;;&%$%%%&-;:>225222>:--=---=%%%&=:>>2,,,>;;;;;:::",
"2<2,&&,&2&&&3&&2&&2&232&&3&5&52&22::%@@$&;;::;;;:;;-&&------&;:>,2222,>:=&&&=:>;;&&&&&&&;;:>>22522>;;====&&%$&=-::>>,2,>;---:>>,",
"<&,<&&&<&52&&52232&3&&&&&2255&352>>;=$$$%&;;::::;;--&&&-;;&--;:>,2222>>;&&%&;::>:;;=&&&-:>::222522,:;=&&&&%$%&=--;::>,>>:;--:>,2",
"&2&<,&,,&&&&222&3&2&3&&2<&3&3&22222:-$%%&=;;:::;;-&&&&=;::----:>>>,22>:;&%$&=:>>>>:;--;;>,:>,2222,,::==&&&&&&&--&--::::>>>:::>,,",
"&&&&&&,,5&52&522566&4&&2&2&4222322>>:-===-;::;::;;&&==-;>:-&--::::::>>:-%%%&==;>2>:;--;;:>>,>>2,>,,,:==&&&&&&&=&%%&=--:>,,,>>>,,",
"&&&&2222&52&4&&346&42&&&&2&232322222>:;;=-;;::;:>:-=---;::;-::::::;:>>:-&%===&=:>>;;;-=-;;>,,>>>::>,;;=&&&&&%%%%#$$%%=-:>2222,>>",
"&&&&&322262224542&4&&&&&&&352222>>>:2>:;==;;::::>>;---;;::;;-:::;;;::::;&&===&&=:>>;;--=;;>,>:;;;:::;==&&&&&%%$$##@@$%--:>22,>>:",
"&&%&&,&25&22&5&55&&2&22&&22&&5&&;:>>>>>:==;;::::2>;---;;---;-:::;;;;:;:;;&;;=&%&;>;>;;;-;:,,>;;-;;::==&&%$$%%%$##@###%&-;>22>:::",
"$$$&&&,&&2&25&4&424&2&&&&&&2&&&2;;:>>2::;;=-;;:>>>;-----&&&&-&--&&&-;;;;;;=&&&&&;;;;>>;>;:>>;;;-;;::=&&&&$$$%%%$%%##$$%&-:>,::::",
"####$%&&,,&,>,2222:-=&=-===&==-;;;:>>>>>:;;-==;:>>:;;;-&&%%%&&--&$&&&--;:;&&&&&&&,>,,&&>2&2&&&2&:::;=&&&&&$$$&&%$$@@$#$%=;:>;;>:",
"##@@#$&&&&>&&,222,:=%%&=--=%$%%==-;;>;>>>>:--=;:::::;;--&$@@@@%$$@$$&&&;;:&&&&>>2<&&&><,22&&2&2&::;;=&&&&&$@$&&&%$$###@$&-;;::::",
"$@++@#$%&&&&&&>22:;=%%%=;-=$@@$%%=-=--:>>:::;;;;;;:::;-&&$@@+@@@++@$&&&;;;&&&:>><,&,<><<<&&2&2&6:;;&%&$&%$$$&&&%$$$$$@@$&&;::;;;",
"%$@+@#$%&&&&&&,&>;-=&&==;-=$@@@$&=&%%&;;::>>:::;-;;;;;-&&@@+++@@++@$&&&&;::;;:>,<,>,,&&<<22&2&6&:;&%$#$#$$%&&&%$@$$$#@$%&-;;::;-",
"&&&%%$&%&&&&&&,,:;;;-----=%%$$%&--&%$$-;-:>>2>:;-=;:;;;=&$@@@@@@@##$&&&;;:::>:::><<,,&,2&<&<22&6:-&#@@@@@@$$%$$#@$$$@$%==-;:>::;",
"2&&&&%&&&&&&&&&&=;;;;-======%%&=--&$$$&--:>22::;;;;;;=-=&&$@$%$%$$$&&;;;;::>>>>:&<,>,<&&<&2&&62&:;&@@+++@@$&$$$@$@$$$$=--;;;:::;",
"<&22&,&&&&&&&&&&==-;-=&%=======---&%$$===-:>>>>:>:;;=;-=-$%&&&=&&-&&&&;;;::,,,,>>>&,&&&,&<,&2&2&;=&$@@@@@@$$&%$$$$@@$&-;;;--;;;:",
"<,2&&&&&&&&,&&&&%%==-=&%%%===&&===-%$%--=-::>2>>>>;;=;;;-&&&-:--;&;;;&&&;:::>,,>>><&&&&&&&<2&2&&;==&%$$#$$$$&&%$$$$$%&=;;;---;;;",
">>>>:;&&&&&&&&&&%&=====&%%%%%%%&===%%%==--;:>>>>:::;;:::;-==;;-=&&=&=-&->&>:>>>:&,,>&&>&&2&&6&&2=-=====&&%%%&&&%%$$%%==;;:----;;",
":::>:::&&&&&&&&&%%%===;-=%%%$$%&===%%==;--;>>>>>2:;;;::::;--;;=&&&&&&&&&&&&&&&;;&>&>>&>>2&626&&&;;;;;;;;-=&=&===&%%%%==;:;;---;:",
":::,:::;,&&&&&&:==%%=-;;-=&&%%&====%%%=;->>>2>2>::;-=;>2>::;---&&&&&-&-&&&%$&:::,>>>>>>>&66&6&66:::;::::-=--===-;;===;;;:::::;:;",
":>:>>,>:,&&&%&&&===%=-;;---====-;==%%%=;:>22222222:;;;2:>:;;-&&&;;-&=-&-&&$$&&&>&<>>,>>>6&26&2&&::::>,>:;;;----;;;;;===;::::;;;:",
">>>,>>:>:::&$$&&=-=====-==--:;;=;;=%===:>>>2>22>22::;::2>:;--&&&;;:;---=&&$$&&&&&:>,,,>&&6&66&6&::;:,,>>::;;;;;;;;;==&=;;;;;;;;:",
"::,<>>>,,>:&$$&&;;;;=%&=&==-::;;==%%%==;;>;>:>:>>2::::>>>:-==&&-;:,:;--=&$$$#&&&::,,,,>>2&&&&&&&;;::>>:::::;-=-;;;===&=;=====---",
"-:,2,,,,,>;&$%:>>>:;==&&%%%-:>:;=%$##%=;;>:;==%=::>>2>2>>;=&&&-;:<,,:;-&$###@@$&::>>>>>:&&&&&&&2;:::::--=-;;=&&===&%&==;=&&&&&==",
"&:>22,22,>:&$&&>>2>:-===&&&-:::-=%%##%=;:;:-=$#%=::::2>2>:==&&-:,,,,;;;=$@@+++#&&:::::>:&2&&&&&&;;:::;=&&=;=&%&&%=&&==;===&&===&",
"-:>22222>:=%$%=:><>::-==---:>>:=%$$%%%;:;::-&%#%&-:::>2>>:;===:>>,::;-==$XX@X#$$&&&&&&&&5&&&3&&&&>&>&>&&&&&&&&&&======;;===-;---",
"-:><2222:-=%%&-:>>::--=--:::>>;=%%===;::2:;-&%#%&-:::::::;;==;::::;;;;;=$$$X@XX$&&&&&&3&&6&6&&&&&&>,>&>>&&&&&&:&;;;;==;;=;;;::::",
"::,2222,-=%%&=-:>:-===&=---:::--%=;;::>22::-&&&=;-----:;===-==;::;;;;;==$$XXXX@$##@#&&&&&&&3&3&3>&,&&&&&&&$&&::,,:;==&&%&&;:::>:",
"::>,<<,;=&===-:>::=&&&===--:::;--=;::::222:;&&-;:::-&&&-==----;:;;;;;;=*$XXXXX$X@@@%&&&553&&&3&&&>&&&&&&&&&&&&:,<,:;&%%%%&=:>>>>",
";::-;:-&&=-:>>>>::-=======-::>>;;::::>2222:;---;;::;&%%&=--;::;--;;:--==$#XXXX#$&&&&&&3&&&&&6&3&>&&&$$$&&&&&&&,>,,<:=&&&&==;:>>>",
":--=&&%%&=:>>>2>>:;--=--=-::>>>>>2>>>:::>::;-&--:2::=%&=-;::>>;;;:>>;-===$#X###$&&&&4&&&&6&&&&&6&&&&@$&&&&&&&&::,22,;&======;,>>",
":;-=%%&=-:::2>>>:::;;:::;:>2222222>>::;;----%&--:2:;---;:>>>2>:::>,>:;-==$####**&&&&&&&4&&&6&&&&&&$@&&&&:&&&&:;,222,:-==;;;;;>,,",
"::-=%%=;:>>2>2>::>>>::::::>222222222>:;=-&%&%%&-:::;-;::>>>>22>:,<<>:----====**=&&&3&&&&&6&&&63&<&&$&&&&:&:&&::,222<>;;;;:;;>,,,",
":--=&&->22222222,>,2>::::>>>2>222222::-==%=%&%%&-;;:::>>2>222>::>>>>;;=;;:;-====&&&&&&&32&&&&&&&<&&&&&&&::;;::>,222,:::;;::,,,,:",
"-----&;>2222522222222>>>>>>::>>222222:--=%%=&%%%--;;::>>>22222>:::::;=;;:>:;;==&%&&&&&&&&&&&&&22222&&<<&&::::::,22,>:::::,,,2,,,",
"==&=--;><2235555222,22222>>;;;:22222>:-===-=&%%&---;;:>2>22222>:;;;;--;;;:::;;=$$+$%3&&&2&&&&&2&2,&2&&&&&;;:::,222>::::>,<222<22",
"&&&&-;;::<22255522222222222>;;:22>2>>:-------&=%---;::>:>>22>2:;====--:::;;;;;=$++@%&&3&&22&2&&5,,2&&&$$&&&;:;:,<,:::::>,,222<22",
"$$$&==---:>22222,,,22522222>:;>>:>2>2:;;--;;-=&--;:;::::::>>>:;-=**=;;:::;;;:;=&&$$&&&&&&&4&&2&&222&<&&&%&;;;:&::>>:>>>>:>>>,<<<",
"#$$$&&&&=->>,22,>>2252222222>;;;:>>>>::;-;:;--%---;;:::---:-;;;&*$*=:::>:::::;-=&&%&&&&&&4&2&2&4&&22&<&&&&::::&&;:::,,>::::>>,,,",
"@@#$%%%&=-;>>>>>>>22222222>>:;:>>:>>::;---::;-%%&-=-;;---=---=-=$*=;:::::>,,::;;&&&&&&&&&&2&&&&&2&<&2&&&&;:,::&;;;;::>,>:>><<,>>",
"@@@##$$%&--;:>>>>2222>>>:>>>::>>>22::;;---;:;--%&&&-----=-------==;:>:::,,,,:::;5&&3&&&&&&&&&&&2&224&&<&;:,,>::;&-&-:><>>>><<<,>",
"$+$++$$**===-;,,,1,,,:,;::::,,11111,,;:;-=-===--====*==-=;-;::::==;;:::><<>:--::::;==&==&&$$$&;:,>,>;;;;:>>>::;-=*=-;>,,,,,,11,1",
"*$$+$##$*====;,,,,,,;;-;;;;:,146641,:;;==**$**;;-=-===--;==;:,:;==;;::>,<<>--:>>,,;-===-=$++$=::::::::;:;:::;;:----;;;:,::,,,11,",
"**$$$+$$$*==;;,11,,:-=--;;;,,166611,:;==$$$+$$;::,:;-=-===*=;::;==;:>>,<<<:::>,<,,:;==-==$@+$=::-=;:::;;-=--;;;:>:;;;;==-;;:>,,,",
"=**$$++$$*=--;:,,,,:;=----;:146641,:;-=*$$++$*;:,,,:;-==****=-;=$==;:>>>:::-:>,,,,:;-=--=$@$&=:;===;::;===--;;::,,:;==&**==-;:::",
"==$+#+#+#$=-==;:,,,;;;;;;;:,114411;;;;==*$$$$*=:,,,:;;==*$+#$***$===::;--=--;:>>,,:;;=;;-&$$&;;:;===;;;;-;:::;-;;:;-**$#$***--==",
"=*$$#####$==*==;,,,:;;;;;;;,114411:===-=**$$*=-:,,,;;;=*$$+++$**$==;;;==**=-;:>,,,:-;;;::-&&=-;;-=&=-;;>;::>::--;;--*$$$$*$**==*",
"=**$++##$$****=;;,;:;;==-;;:,1111,,=======**===:,,:;;-==*$++$***==::;==$$$*=->>,,:-=-;::>,-=--===&&=-;>>:;::::-=--****$$****==**",
"=**$++##$**=====-;;;;;===;;;,,,11,,;=========--;,,:;;=;==*#$*====;,,;=&$$$%=-:>>::==::,,,>--=-==&*$*=-::::-:::-====**&******====",
";;=**+$$**========-;;;;===---;:,,,:;;--------;;,,,::;-=-==**==--;:>>;=**$*$==;::;;;::,,1,>:-=--&$##$=;:>:;;::;;-;;;===*****&=-==",
":,:=*****=--=======-;;;;---=--:,,,::::::--::::;:,,,:;---=-==;;::>>,>-=*==X$*=;;;---;,1111>:==-==$$#$&;::;;;;;;;;;:;;===*=&===-;;",
",,:-----==;:;;=====-;:,,,,:;--;:,:;;;:,,-:::--::;:;;;---;:::::,,,,,>;=*X$*$*=;::;==-:111,,:;-==-=&*$=-;;-=;;;:::;;;;;=*=---;;;>,",
"11,:,:,,;=::,;-====-;,,,,,:;--;:::;;;,,,,:,:----;;;:::--:,:::,,1,1>:;=**$XX*=;::;===,,11,,::;;;::;==&-;--==-;:::;;==;===;>>;:>,,",
"1111,1,,;;:,::;;;;-;:,,,,,;;---;;:--;,,1,,:-=***=-::,,-:,:,,:,,,,>>>::==**X$=;:::===,,1,,>>::;:>::;--=--==*=-;:;;======;,<,,>:,<",
",11111,,::,:,::::;;;;,,,,,:;--==---=;:,,,,;-****=-:,,,:;:::::::::>>>>:;====$=;::==&=:>,,,>::;::::>>;-==-=====-;;;=*==;;:,<1,,>,,",
",,4441,,,,:::;;;:::::;;;;:::--=======--;:-=**$**=--::::::;;;::;---:>>:;===**=;:;=&&&==:::::::;;;:>;;-=&&==-=--;::;==;;;:,<<,,,,,",
":,1141,,,,:;;;=;;:::;;;;;:,:-=**==*====-===*$$**====--:-:-------=-::>:;;-=$*=-;;====&==:=;::;---;;;;-&*&=;----:>,:==;:::,,,,::::",
"=;,,11,,1:;--=*=-:;:;;;:::,:=****====-===*=****=;==&==;::;===;-=--;::::;;&XX:;;;;;***==;;;::;-&&=-;-=&&&=;;---,,,:==;;:>>>>>:::>",
";:;;:11,1,:--=**-::;:;;;::::=***=----;;-======--;;&$$==;;==&=;----;;;;;;===*&;;;;;=&*=;;--::;-&&=--===&==;-;;:,,<,-=;;::>>>>:;::",
",::::,111,:;;-;--;:-;;;-=--;;;;;----;;;;==;;--,:;=$$$*&=&&&&===;;;-;;;;=;**==;;;;;&&=;;:=-;;;;-&--=-==*====;=;,1,,;==--;:>,>:;;;",
",,,::,1111,,,::::::::;-=**=;::::::--;;;;;;;::,,1,;&$$$&&&&&===;;;:;=====:X*==========;>:--;::;-==-====&&====->,1,,:;-=-;:>,>:;==",
",,,,:,,1,1,1,:::::,,:;=**$=;,,::::;-===;;;,,,111,,;=&&======;=;:::;-==%$X===*=*==-==:>,>;-;:>>-----=&$#$$&==>,,11,::;;--:>>:;=**",
"1,1,::,,,,1,,:,,,,,,:-=*$$=-::,:,::-===-;;,,,,,,,,:;;=;;;;=;;;-:>,:;=**$=XX;**===-;;>,,>;;;>,>-----=&$##$&=;,,,1,,>::;;;:::;=**$",
",,1,,:::,,,,:,,,,:::;;=***=-;;;;,::-**=*=;::;:,,,,,::;;;;;;;=--:>,>:;-=*=&*;*====--:>,,>,,,,>:-&-;:;=$$+&*==-;:>,::;:>;;;===*$$#",
"1,,,,:::,::,:,,,,::::;=========::,-==*===---=-::::::,:::::::;-=;>,>:;======X==----;>,>>>,<,,,;-=-:>>=*$$&*&==;;:::;-:::;==***$$$",
",1,,::,,,,,:::,,,,::::====****=;::;-==-;==*==-::::::::,,,,,::=-;;>>;=*==-==-;:;;-:>>,>;;,<,,;;;-;:,,-=**&&$&==:::;--;;;==*$*$$**",
",,,:,,111,,:,,,11,,,,:===***$*;:,:;;;;::;=**=-::;;;;;:,,,,,:;-:::;:;****===-:::;;:>>>;-->;;------:>>;-=*==&&=;,,:;--===&=**$$***",
",,,,,1461,,,,,11,11,1:;=**$*=:,,,,::::::;-**=;::=====;,,111,:,,,;;-=**===;==;;---;::;-====&&&=-------==*===;:>,,:;-===**=*$$$**=",
"::,,146611,,,1,,,,11,,-*$$$=:,,,,1,,,,:,:;==--::=&=&=;;,11,,:,,,>-=****=*X**=====----=&&%$@$%&===--===*==;;:>,,,>:-==&$$*=*$****",
";,,1446411,,,,,,,,,,1:=$+$*=,,1111111,:::-==--:-==**==;,11,,,,1,;-==*%*XX*-=========-==$X@$@$%=&&===&&===;:::::>::;=&$$$*****=**",
"=;,114441,,,1,,::,,1,,;*$+*;,11111411,,::--=--:;==***==:111,,,,:-===-X*XXXX=*=**&======X@XX@XXX@$&=======;;;;:;:::==&$$$**======",
"=;;,1111,,,11,,:,,,11,;=$*=;::,111111,,:,:---:;:;===*=;:,1,,::,:=%***$XXX*=*****===-:;=%@X+XX.XX+$&===--;;;;::;;;:;;=*$$$$==-;--",
"==-;,,,1,,,,11,,,,1,1,;=**=;;:,111441,,,,:;:----;;;===;:,,1,,:;=*%**$XXX%X%**===---;;;-=%XXXX..Xo+*==--;:;;;:,,::::;=&*$$*==::::",
"-==;,,11,,1,,111111,:;-===--;>,1114411,,,,::;-==-;:::::,111,,;;=****$$#+##$$*=;-;;=;;;=*&$+o..oo++$*=;:;;:;:,1,,>:>:-=&&&***=:,1",
"-;-;,,14441111411,,;=****==--:,11114111,1,::;;==;:11,,:,1111,,;**$*******&$&*=;:;;;;===&&*++XXoo++$&=;;;==;:>,11::::;-=*&***->,1",
"--,,1114664644441,;=***$***-;:>,,111,,,,,,::::;;:,111,,,1111,,=*$$$&==;=;=&&=-:,>;;==&$$##+ooXoo++$$&==&**=;:,::=;:,>;==&&*=;,,,",
";,,1414466666641:;;=*$$#***=-;;,,11,,:,,,:;:::::,,1411,,14111:=*$$$*=-:;:-==;;1,,;;;=&$#++++ooo+$$$$&&&&$$&=;:;=&*;:>:;==&&=:,,,",
";,1414416666641,;;;;**$$$$*=;:,1111:;-:,:;;;;:,:::,1,,,1111,,;=*$$$*=;,,,;-;:;11,,,,;;$++o+++###&&&&$$&&#$*=;;=&$*&;;;;-=**=:>>>",
",,111111146661,;====****$**=;;,111,:=*;:;----;;:::::,,,,,,,,;;=*$$*&;;,,,;--;;,,1,,1;;*++o++$$**=-=&$&&&$$*&===&$$$&;;;;=**=;>:>",
",,,,,,,,,11411;=*********;;;;;,,11:;*$*====*=**=;===;:::;;;;;;===**=;-,;,:;;;,,,,11,,;&##+$&&&&*=;-=&&&&*$$*&&&&*$$$&==;&***=;:,",
";;::::::,,,,,,=*$$***===;:,:,,,,,,:=***=*******===**==;;;;=;:;-===;;;;-;-;;,,,,,,,,,,;=*$$&*****=---=-==&$$$$&&&&*$$&=;===**=-::",
"==;;;;;=;:;:;=*$$$***=;,,,:,,1,,,:========&=*====***=;;-==;;;:;;;=::;:--;;,,>>,;;>,,,,=&*$*&&***==;;;;;=&$###$$&=***==-;:;===-=-",
";;=;;;=*====***$$$**=;,,,,,,1,,,,::=;:;;======;===*==;;:::;;:,::;:;:,;:-;;:>,,,;;,,,,,;=&&*&&*&*=-;::>:=&$++##$$***==-;:,,:=:-==",
",,,;::;=**$$$$***$$*;:,,,,,,,1::,::;:::;===;=;;:;=**=:,,,,:::::;;;>;>:--;,;,,,,;;>,11,,;====&&&==;;:>:;;*#+++#****==;;:>,,,,:-**",
"11,,:;;;=*$++$***$$*;,,,1,1,,,;;::;::,,:;;=;;,,:;=**;,1111,,,,,:,>,,>:::;;=,>,,;;;,,,>;;;==&&&==;>:>:>>=*$$#$**==-;;;::,111,,;**",
"11,:;=;;==$+$$*=****;:,,1,,,;;==:;;:;;:,;;;::,,::;=;:,1111,,,1,,:,,,>>::;;==;:;===;=;===&&&**==;,1,,:;;;=&&&&-:>,:::;;:>1111,;==",
"11,:==;==*$$$*==*==*;;,,,,,:;=*======;;;:;;::,,,:;;;:,1111,,,,,,,,,,>:,:;;===;;==&&***&&***$**=;,1,,>;;;=====:,,1,,:;;:,1111>::=",
",,:;=*********;:;;----;:::;;-=*==;;===;;;;;::::,:::::,,,,,,,1,,,:,,,,>::;;;=====&$$$+$*$$+$+$$&=;1,,;-===-==-;:,,1,::::,,111,:==",
",:;;==*******=:,1,:-;;;::,,;--*==;;;===;;;;;---;:::;:::,,,,::,,::,,,,:,:,;;=====*&$#$#$$$$+$+$$&-;;:;--=;;;;-;:,,,:>>,,11111,:-=",
";;;;;;=******=;,111:::::,,,,;;===-::---::::-=====::===:,,,:--;:,,,,,,:,,,,;-==-==****$#$$*$$$+$$=-;;;;;;:;>;;;;:;:;::1111111:-==",
";;::>:==*==*==;1111,,,,,,1,,;;;=-;:,:::::::;==*=::====;,;;=*==:,,11,,,,,,,;====-=*****$$**$$++$$*-;;::;;>>>:>:>::::,1111111,;-;;",
";::,,,;=--===-;,111,,11,,:,:,;,;-;:,,,,,,::-=-----**====****=;:,,,,,,,,,,:;===-=**********$$+$*==-:,:;--;::,,,1,>:>,11111,,,:;;:",
";:;:,:;;=-;;=;:,,1,111111,,,:;,,:;:,,,,,,,:::-:::-=***=*$$**=;::,,,,,,,,:;-=*====*==*=*=**$#$$&==-;:;;=-;;,,,111,,111111,,1,::::",
";;;;;;-===;;;:,,,,11,1111111111,::,::,::,,::::::,:==**$$$+$*=--::::::;::;-=**==**==;====*$$$$$*========-;:,1111,,1144111,,11,::;",
"=======-=-;;::,,,:,1,,1444411111,,::-;;:,,,::,,:,::=***$$$$$==-:;;;;---:--==*****=;;;;;=***$$$*&*=-====-;::,,1,,,,11144111111,;-",
";=****-===:,::::;:,,,,,,144111,1,,:--::,:,:::;::,,:===****+$$==-------;-;;;-=*$$*=-;;;;;====****=-;--=---;;,,,:>:>,11414111,,:;-",
"==****=-=-;,,::;;;;;::,11141111,,,----::,,:-::::,,,::==***++#*==---==-:::::;=***===--===-===***==-;:;----;;:>,;;-;:,111111,,:;-=",
"==***$*==;:>::;=;;;:::::,111:,;;-====:,,,,,:,:::,,,,,:;=$$++$$**==--=-;>,,,:-====;===========**==;;:;:-;;:>,,,;--::1111,,::;-===",
"==*****==;:::;;-==;:::;;;:,,;===****=-;:,,,,::,,,,,,,:;**$$$+$**===---;;,,,:;===;;;===*=====****=;;;:-:;;:,,,>;-=;:,,,,,:;::-===",
"****=====;;=;;;===;;::==;:,:;==*$$#$==;,,11,::,,1,,,::==$$$$*$*===----;;:,:::;;-;-;=--===-==*$*=;;----=-;:,,>;-==;;;::>:::,:::;-",
"**$*=;=;;=======*==;:>;=;:;;===*$##$=;:,,1,,::,,,,::;;=***$$$*==**==---=-;::;;=====-;::;;-==*$$*--===-=-;:,>;;===;-==;:;;;,,,:::",
"$##$*==;====*==***=;:,;;:::;=*;**$$*;,,::,::;=;=;;===;=*$$##+$*****=;;=====;;==***=;::,,,;;=**$$**===-=-;:::==*==;==----==:::::;",
"#$#$**=======*=**==;,>;=;::;;******-,,,:;;:-;=======;==*$$$#$$***$=;;;=**===-=****=;::,,::;=**$$****=-=-;;;;;===-===-;--==----;-",
"$#$$*=*====--==--;;::;===;;;=****=-:,,:---::;=***=*=;;==*$$$$$****;;::;=*==-;=====;;::,::;;=**$$$$***===-;;;;;===-==;;;-=*--=--=",
"$$$$*****==;--=;;:;::=====;;=****=:,,,;-==::==*****=;;;=**$*$$****;:>:;==*=--;---;;:;:::;=;=*$$#+$*=****=-::;;-=;===;:;-===-===="
};
