/* XPM */
static char *texture_z_23[] = {
/* columns rows colors chars-per-pixel */
"64 64 59 1 ",
"  c #787878",
". c #7B7B7B",
"X c #7E7E7E",
"o c #808080",
"O c #818181",
"+ c #828282",
"@ c #838383",
"# c #848484",
"$ c #858585",
"% c #868686",
"& c #878787",
"* c #888888",
"= c #898989",
"- c #8A8A8A",
"; c #8B8B8B",
": c #8C8C8C",
"> c #8D8D8D",
", c #8E8E8E",
"< c #8F8F8F",
"1 c #909090",
"2 c #919191",
"3 c #929292",
"4 c #939393",
"5 c #949494",
"6 c #959595",
"7 c #969696",
"8 c #979797",
"9 c #989898",
"0 c #999999",
"q c #9A9A9A",
"w c #9B9B9B",
"e c #9C9C9C",
"r c #9D9D9D",
"t c #9E9E9E",
"y c #9F9F9F",
"u c #A0A0A0",
"i c gray63",
"p c #A2A2A2",
"a c #A3A3A3",
"s c #A4A4A4",
"d c #A5A5A5",
"f c #A6A6A6",
"g c #A7A7A7",
"h c #A8A8A8",
"j c #A9A9A9",
"k c #AAAAAA",
"l c #ABABAB",
"z c #ACACAC",
"x c #ADADAD",
"c c #AEAEAE",
"v c #AFAFAF",
"b c #B0B0B0",
"n c #B1B1B1",
"m c #B2B2B2",
"M c #B3B3B3",
"N c #B4B4B4",
"B c #B5B5B5",
"V c #B6B6B6",
"C c #B9B9B9",
/* pixels */
"zdyqq4488q888>88888yy84y8>84888qqyy488qduuq84-qu8>>8qyyq44>qq4qd",
"hhuuy848y8>444884quy444yy84-8qq448q8quuhqq8848dh84>>>>4>8yqqqquy",
"uduuqy8qu84qq>88yqq84>44844>88q4>-8uuhyq884q88uduq8884>%8uyyyyy4",
"udddyqyyy88qq48uuy48--4>4-44q488q8quhduq84>4848udy4qq4--88uzdyy8",
"8yyqqyq88qqy848uduyq>448qq4>484q8yyyddyqq8444>-8q88qq8>>8yuddyqq",
"uqyq8qyyy8yyyqydzdq844qdy84>qq4yduuy88q8444484>4q444>84qyyqqduyu",
"yyyuyqydu8qyyuudzd4q84qdy4>48yqdhduy8>q8>-->88>8q4->48qquuqqduyu",
">yuddqqduuyuduuduuq8y8qqq4>>-4udddyyqqyu>-%44844q4>>4888uuyuuudy",
"%>8yu8q4yuuyuu888qyyyyqqq>>4>>ydduyuduuy8>448y4>yuyq88>4uqyyyuyq",
"q448qq88q8uduuqq8yuuu8yy4->>>8yddddduduy84qy8qyyyuddy4>88quy48ud",
"yy848qq8q8ududuuyyqyyyuuqq888quuhhdy8qq888yyyyzzuuyyq88qyddu8qud",
"uuq8yqyu88uydhduhu44uuyqyyq88qqyhzhyq4qy8>44yuzzzuq8q8>8uddu8yyy",
"udqquqyuquu8ududhd4-4qyyyq48q8qudndu84qy8444yyhnhuq84>>8yuddqqud",
"q8quyyuhhuyquudzhd848yyy848qu8quuuuy>4qyuyqyuydhddq4888q4qqyuyud",
"8qdhhddhzuq8ydzzduuy8qyyuq8yyqyuyyuy4888dyq8qduyyuq8844>>-4ydzdu",
"->quuhhuduqq8qyyqddy8quudqq888qq8qqy8q44yyyqyuuqqu44>>8>>>>4yhyy",
"-->qy8qhhy48844q8uuuuy8quyy84>48>48qq44yyyyuuqyuyy844>44>>>>8qyu",
">%->848du844q4%-488yuuqyqyq84%%-%%48y8qduyyudqydy4>>4>44>4->8qyq",
"q84>>488qyyqq448q4-qqhdy8yqq4-->->48quuyuhyqyquuy>%--4>--4>88yuy",
"duq484844q8>8888q8>qquuuuqqq44qqqq8qyuduuy44yuy8q4->>>44>-4qq8qy",
"yuy8844448484>>48848qyuuuqyuy8q84444q8qyyuqquudyqqqq8484>448yqqq",
"uyuuq4>884qyq888q8>8ydhhdyqduyq488888>4yqududdduuquuqq8qyqqquuyy",
"ududuq>8q8488qyqq48yuuddduydy844yyqq4>48ydduqyqqyyuuuyqqy84888qq",
"qhdudq-ydy8444uy4->qyy>4ydudu48qddqq--%>yuuy4484yyy88q44848q8448",
"qdzzy44quuy8yyuq>84yuy4-8yyduq8uuyqq-+%-84qyyyy8qyqq488q888yqqqy",
"ydzd448yu844qqyq8yuudy48yq8q4q8yqqq8-++--+>qyqqq8q8q4>8uuq444quu",
"qq844yddyq8q8yuduuudduqquy4>8yuqquy8>++>-8qyyqqy8>>>448qdh848quu",
"y848ydduyyyyyhzhzdyq4848uyqyduzyudyq8>44888qq8qyq>>884quzhy8yqud",
"yq4yhhzddddyuuuhzhuq844>yyuudhhyuu8qyy888888844yuyqqqyudzuuyqddu",
"44qydzBBzhzhhuquhdu8qq44qquudzdyq8qyyyy>->q8yq8udu8>4yyuhyyudzhh",
">488yuhhuhnhnhyydudyqqq8qyyyyuyq44yyyyy8->8>yuqqduy44qq8uuduyudh",
"%>>48yuuuzhdudyyudyqquq848qq8q8q4qyyudyqq8844q88uu88qduqqqudyddu",
"4--484yuddqyyyhznhyq884y884qqquu8yyyhyquyq888%4uuuyyyuyq88qduuhh",
"8>>-48qdhu88qyhBnuq8-%>ydyq884yy>ydudyyddy8q4%4u8qyq88qyuyq4qqdu",
"8----q4qduqyyyznhqq84>4quuy4>%-448y84qyuuyquq4qq88qyyyyqyq4->4q8",
"8>%->848yyq88qdhdy88844qdyqq4%488u8444ydy8yuuqq848quyyy884444484",
"yq>488888qqq8q8ydyqyqyqyduqqq4qyydq>>4qy8yuhdqq8--8uyqqqqy84488q",
"dyyy8uy888yddqqyuyydyuyyyqy8uuydduq4--8yq4dzdqqqq48y8qyyqqq4yqyd",
"hdhduuuyyqyudyqqyqqduy84quuyyuuuuuuq4>qyq4uduuqyuy4884qyq88qdhud",
"unnuuyqqyyqyqyq484qq88>>qqqyy8yqquuqq>qy848yyyyyyy84qq8yy4yuddyy",
"yydddqq4yyqyuu8>88qq4848q48yy4qqqyqy8-8qy44qyyq>8q848yqdd8quduuu",
"uyuzhuyqyyqq4qyyqqqyqqydy->44>8qyq88488qq4qy8qq88q8888yhuq88uuyq",
"dduddhuuuuy4>8duuq8qyudhdy8qq8qquy8>-4448qudqyuqqq>->qdhduyquy84",
"dduuuudduyq88q8qdq44qyquuyuyyy8quuqq8>4qqyduhdu8yu4-48quuyyy844-",
"duydduddddu8q4>yuqqy84qyyyyudyqyyu44qqyyyuuqduq8qdq88>8uqqq88>48",
"uuzBhudhdhd84>yhduuuy4qy4q8undyhy844>4qqqyq48>8q8q88qquhyq8>8>>8",
"yhBnhdduudd4%8hhzzhuy8qq4>4yhdud888--484488>+%->4884qqqyy8>>4484",
"8udhuhhudhh848ydhzduyqqyy84yddyq44-.+484qqy8%+ .%88qyquqyy84>8yy",
"qquzzdhzzuq88qydhBzdduq8qdyuhhdq444>>>4yyq884%.+%4yqqydhuu844>yh",
"qdhnBnnnuq4>>8yydhuduyyqunhuzzd8->qyq8qhqq8--%+%->84-8uyquy884du",
"uzzznCBuqq4>>4yuzu8yyqyyudhhddy8>4quuqyduhy-+%>>q4>4-888-4yy88uu",
"dududhd84448yyyddy>844488>qyqqq88qqyyyduddy4>444q8884>444>884>yu",
"88q8qq8>>48uuuhduqqq848q84qqqquyqyu8yydyudd8>4848qyy4+-4488yyqq8",
"huyq8->444udhddyuqyu88ydq>uhduuuuudqyqduyddy8844yyyy>--848yuhdq4",
"zuqy8->844yuuuq8qqquyquuyquzhdhdddyuq4yq8888444qdduq88qduuyyhhuq",
"uy8>>88yuqquuy84qq88qyqyuyuuhuduuduyy888>>->-->4uuq8qq8udduuzzu8",
"yyy8488uzduuddyqquyuuy48yq8uy8quuddudq88>48>8>--4yyquuyyyydzzhqq",
"yuuq8q8uhdzhduyyqduduyqqq44q>4qudddudq8q84448>-88uy8yudhuuzhddqy",
"8q888yyuuhdzzzhhuuyyuudyyq4>>48qyy8qq8444yq8>>>48888yuzhdnzzhhdy",
"q>4q8yuyuyudznzhuqqudyyyuy884%48yq8yyq8>8qqqq888qqqqquuqyuzzhdyq",
"8444quyqqyuqudyq88qudduudhuq>--48qqquuq8qq44q844qyyqyudqquhdyyq8",
"448q88q88qu8yu88--8qdhyuhuy844484qqquuyqqqyq88>4qq88ydy8qqqyyuyy",
">-8q8884>quqyy8844duyyq8q8q4>>-8>qq84884>qduuq4-84qqqy84qqqq8qyq",
">>444qqqqyq88y4>8udq8yq>44y84>>8>yy88qqq8yyuqq8--448qqy888yq8888"
};
