/* XPM */
static char *texture_z_20[] = {
/* columns rows colors chars-per-pixel */
"64 64 149 2 ",
"   c #837767",
".  c #867969",
"X  c #897D6C",
"o  c #8C7F6E",
"O  c #8C7F6F",
"+  c #8D806F",
"@  c #8D8070",
"#  c #8E8070",
"$  c #8E8170",
"%  c #8F8171",
"&  c #8F8271",
"*  c #908272",
"=  c #908372",
"-  c #918372",
";  c #918473",
":  c #928473",
">  c #928574",
",  c #938574",
"<  c #938675",
"1  c #948675",
"2  c #948775",
"3  c #948776",
"4  c #958776",
"5  c #958876",
"6  c #958877",
"7  c #968877",
"8  c #968977",
"9  c #978977",
"0  c #978978",
"q  c #978A78",
"w  c #988A78",
"e  c #988A79",
"r  c #988B79",
"t  c #998B79",
"y  c #998B7A",
"u  c #998C7A",
"i  c #9A8C7A",
"p  c #9A8C7B",
"a  c #9B8D7B",
"s  c #9B8D7C",
"d  c #9C8D7C",
"f  c #9C8E7C",
"g  c #9C8E7D",
"h  c #9D8E7D",
"j  c #9D8F7D",
"k  c #9E8F7D",
"l  c #9E8F7E",
"z  c #9E907E",
"x  c #9F907E",
"c  c #9F917E",
"v  c #9F917F",
"b  c #A0917F",
"n  c #A0927F",
"m  c #A09280",
"M  c #A19280",
"N  c #A19380",
"B  c #A19381",
"V  c #A29381",
"C  c #A29481",
"Z  c #A29482",
"A  c #A39482",
"S  c #A39582",
"D  c #A39583",
"F  c #A49582",
"G  c #A49583",
"H  c #A49683",
"J  c #A59683",
"K  c #A59684",
"L  c #A59784",
"P  c #A69784",
"I  c #A69785",
"U  c #A69885",
"Y  c #A79885",
"T  c #A79886",
"R  c #A79986",
"E  c #A89986",
"W  c #A89987",
"Q  c #A89A87",
"!  c #A99A87",
"~  c #A99A88",
"^  c #A99B88",
"/  c #AA9B88",
"(  c #AA9C88",
")  c #AB9C88",
"_  c #AA9C89",
"`  c #AB9C89",
"'  c #AB9D89",
"]  c #AC9D89",
"[  c #AC9D8A",
"{  c #AD9D8A",
"}  c #AD9E8A",
"|  c #AD9E8B",
" . c #AE9E8B",
".. c #AE9F8B",
"X. c #AE9F8C",
"o. c #AF9F8C",
"O. c #AFA08C",
"+. c #AFA08D",
"@. c #B0A08D",
"#. c #B0A18D",
"$. c #B0A18E",
"%. c #B1A18E",
"&. c #B1A28E",
"*. c #B1A28F",
"=. c #B2A28E",
"-. c #B2A28F",
";. c #B2A38F",
":. c #B3A38F",
">. c #B3A390",
",. c #B3A490",
"<. c #B4A490",
"1. c #B4A491",
"2. c #B4A591",
"3. c #B5A591",
"4. c #B5A592",
"5. c #B5A692",
"6. c #B6A692",
"7. c #B6A792",
"8. c #B6A693",
"9. c #B6A793",
"0. c #B7A793",
"q. c #B7A893",
"w. c #B7A894",
"e. c #B8A894",
"r. c #B8A994",
"t. c #B8A995",
"y. c #B9A995",
"u. c #B9AA95",
"i. c #BAAA95",
"p. c #BAAA96",
"a. c #BAAB96",
"s. c #BBAB96",
"d. c #BBAB97",
"f. c #BCAC97",
"g. c #BCAC98",
"h. c #BDAD98",
"j. c #BDAD99",
"k. c #BEAE99",
"l. c #BEAE9A",
"z. c #BFAF9A",
"x. c #C0AF9B",
"c. c #C0B09B",
"v. c #C1B09C",
"b. c #C1B19C",
"n. c #C2B29D",
"m. c #C3B29D",
"M. c #C4B39E",
"N. c #C5B49F",
"B. c #C7B7A1",
/* pixels */
"u.:.' U ! M v M S / S G S j S S S S I | / S m | M j M M S G S / U / / j G M I >.| | I U M q I X.M s q M G / ' / m m j U I j / >.",
"7.7.:.| / S M G / G a j v v M S v U O./ M v M ' ' M m q M / U M v S U S / X.X.0./ I M M j M >.7.G m s s s s j e G X.U I U I X./ ",
":.O.| | ! ! S ! O.G j I I v S G / U I G v j j j M m m s M G I m j e S X.X.7.' / I G M U U I :.>.:./ m M I j e 1 M X.X./ / / / M ",
"' 7.O.:.' ! / ' | S G / I j S O.:./ M S 6 6 v s M q s m G v I G I M I >.7.7.' I I j i j I j m X.>./ M I U m q 1 M I X.u.0.X./ I ",
"M / | I U / ! M S ! ! ! M v M :.:.| ' U s j S M I ! v e m M m I I / / | O.>./ I I G M j m j e G I M G ! I I e s S / | 7.>./ S U ",
"| I U ! G / | / / G ' | | / ! :.u.>.I S j m I >.' I v s U ! M ' >.X.X./ M S / I M j m m M M i j I j j j j M m I | / I I 7.X./ X.",
"! / ' | | U ' :.:.v I | / | O.:.u.>.M I I m U O.' m a s S / / O.0.>.:.' M j I S s > q s M I s M / m q s j I I I :.X.I I :.X.X.X.",
"s ' :.:.:.I ! :.:.X.! | :.X.O.:.O.X.I S / I / U I v e s q m O.>.>.>.' U / I / X.j > - s m I m m I j s i j S M I X.' / X.X.X.>./ ",
"> a S | | S G M U | | / O.| S M M / / U | / / U I a e j a s U :.:.X./ :.>.| | / S s j M M / M e U | / ! S I j M / I / | | X./ I ",
"I v v S U U I S G S | :.| | I U I / X.:.X.I / / m 6 a s e M ' :.>.O.:.O.X.:.X.! S j / / I U / X.| | 7.>./ j e M M I X./ j I X.>.",
"| ! S v S ! I G U G | 7.O.O.:.| ' / I / ' ' O.X.U U S S S U X.O.7.0.>./ I / U I I M ' X./ X.0.d.:.' | / U S M ! X.7.:./ M I X.7.",
"| :./ M ' U ! | S I O.' :.7.:.| 0.O.m m X.O./ U ' | U I I U U ' 7.u.0.X.I v I / S s j j ! X.u.j.u.| I I / S j M X.:.>.X.I / / / ",
"| 7.S I | U ' O.I | O.S | :.X.:.7.X.s q m ! ' / / I v S I S I X.>.j.>.X.M j / | I M m m ' / 7.j.0.' I M m s j I / X.>.>.U U X.:.",
"U M U X.' ! O.7.7.:.' U O.' ,.w.7.:.S m S / ' ' I v M U :.S I X.X.| :./ j j U O.:.' U / :.| >.0.:.:.U m M M M I v I / ' >.' | >.",
"M G :.u.,.7.:.7.u.| I M / :.u.u.>.:.:./ S / ' ' :.I I ' X.I ' X./ / X./ j I M M :./ I S I :.X./ / X.! M v m j s e e j / >.u.>.X.",
"q s G | X.7.:.O.,.| / I G ! / ' U O.>.| S I ' | ,.U U I M I I / S I / / I I M j / / | / ! :./ I I X.M M j s M s e e s m / 7.' / ",
"e 1 a S / S ! u.w./ j S I M v I I X.O.O.O.! M / O.' ! I j s j S i j M I / j j / X./ / X.X.I I X.| ' M v M e j M j q e e I / / X.",
"a - 6 a M v M >.X.S j M / v > q M M M | | | / / I ' / S j - - > : 8 m M / I I >.:./ / X.>./ / :./ M a j j j M v e j e e M / ' I ",
"! j j j a M M G ! / ! I I v j S ! j q I U 7.:./ S / U I v q q a e i m I / X.X./ X.>./ / / / :.X.' e > 1 1 j s q q s e I I / O./ ",
":.:.U M v S G v m I I s M I S S I S s I S ' :.X.:.U I U M v U I I I S I / X.>.:.X./ m m / X./ I I m q e q s m j s q v U / I I / ",
"' O.' M S v v v v M S I v s s j S M j I I / O.| X.! / O./ S / S j m M M I G / / / X.I I / :.X.U I U I U S m M M j j M I / I I / ",
"| | O.| ! v a S S v I ' U S M S ! m j I ' 7.7.7.,.U I :.O./ I v I M G G M i m / / X.>.X.7.0.>.| X./ X.X.I I I I / I I I X.| / / ",
"| :.| O.O.I e S U I v S S U | U U m M / O.O.:.:.7.X./ :.| I M M / | I I m i j m / >.:./ I / / I / / :.X.X./ U ! / I v I I I I / ",
"U 7.:.:.:.U e ' >.| G M j M X.' m q e I / ' j s / O.:.:.| m M U >.>./ I 8 8 > s / X.X.X.m M M m / | / S M / v v M j S I M j M M ",
"I >.u.u.| v j U :.X./ S / ' >.U s M M ' O.! v q S X.| >.| U S O.X./ I I q % : 8 G m I / | / / M I ' I I M M M S U I G / I ! / / ",
"| :.u.>.M v M | | M M M I / ' I M ' | >.7.! j I / U M I M U S ' / I / G 8 o O 1 8 % j I / / I / I I M I M s M :.:.I m j j ! X.X.",
"! U S v v | :.:.| U S I M / X.X.O.X.| :.:.O.I I X.X.j v I / X.U I X.I G i O % e e S I / / I I X.I e q j M j M ! :.7.M m S G X.X.",
"| S j S / O.,.| ' ' ' | ' 7.u.0.w.,.' U S M v S :./ I / O.O.u.' :.>./ I S j j m G M I I / I I / I e s G I M I X.u.7./ I / I X.:.",
"! U M ' u.u.u.7.,.7.:.' | | X.7.u.u.X.I M M v j U / | O.:.7.7.' X.X.I I X./ I M M I I M I j j / :./ G I / / X.X.u.>.| / / >.:.X.",
"M M I | :.u.b.b.u.7.7.7.7.| U :.7.:.X.S I U M M U U ' :.>.u.7.| I I I / / / / m : i I I | ! S X.>.X.M e M / / :.7./ / X.>.u.7.0.",
"a j S S U O.w.7.| 7.j.u.j.7./ ' X.:.:./ U ! I M / / | / ! | ' U s m / X./ / / S 8 j I s / X.I / X.X.| j j / I M X.| :.| / | :.>.",
"> e a j S ' O.X.O.u.7.:.X.>./ ' O.O.! U U O./ v M S ! I S I S I j / X.] X.>.| / I G M s m / M G X.:.I I U <.X.I I I X.:.| :.>.X.",
"s 8 e s S m I >.>.>./ / / / <.d.z.r./ / G M m / M S m I I R X.X.S / / X.0./ I X.X.R M I m 1 j X.X.O./ / X.X./ / M I / >.X.>.0.0.",
"S s q 8 j I R >.>.X.S I I / 0.B.g.X./ M e > i ] >.X.I I M M / / j / #.>.>./ X.<.>./ G I m > m X.M R X.I M I R / >./ I M G R X.X.",
"S q 8 8 q I m I >.X.R / / ] u.z.0.I I I M i m R >.X./ M s > e m j S / G m I / X.:./ I / I s I / I M R ' / X./ R / I j q j j G M ",
"S j : q s M m I / / / M I / >.0.7./ M S G m S R >.R I I m : m M G :.I j s m / >.X.M / X.:.I I S M M I X./ / X.S G m m j M j I m ",
"/ I i s M I S S M R / I S I G X.>./ / / R / / / <.X.I I S m I / / >.G j s j I / I / :.0.>.I I S e 1 I X./ / / I / / G m m m G I ",
"0./ ] X.M X./ S G S / <.>./ R / X.R [ >./ X.R / / R / I X.X.X.>.0.X.I j 8 8 I X.I M >.u.>./ I R R m G / S I / X.R I I m / / / >.",
"0.0.0.>./ X.X./ / I X.>.#./ I I / I / 7.>./ m m I X.>./ X.X.X.X.X.X.X.G m i I X.I m :.>.X.X./ X.X./ S I G m I / I M I I 7.<.X.>.",
"X.z.j.X.>./ / R ] X.R R / X.I M S m S I I M i s G I / / / I / I G X.X.R I j I / M m m / / / / R ' / I j I I I ' X.M / / :.>.X.X.",
"I / >.>.>.I I s / / / / X.X.M s S I I I m S m S / j M / / M I I I / / / S e M / / m m I / X.I s I I M m I / I >.>.M / X.X.X./ | ",
">./ X.d.0.X./ / / / / I m R / / / I / / I R ] >./ q i M j m S R / I I I m M I I I m I X.M / / G I I I M S S I 7.>.I G I X.:./ I ",
">.>.] >.>.0.X.X.X.>./ M e I >.X.[ / M I / >.>.0.>./ M I I I I / X./ M s q j M M I I X.>.I / :.I I I i 8 s R <.0.>.X./ I X.X.G j ",
"<.>.X./ X.X.X.>.X./ / M M I I I >.I m m I / I X.X.X.X./ / / I I :.X.R G G s M I G / :.X.>.>.X.M / X.m e m M I / X.I X./ G M j e ",
">.:./ >.>.X.X.>.>.X.X.S I j i R [ I I / S j I ] / / / >.>.X.I / / X.j M I I X./ / >.X.I >.X./ I / >.R M m i I X./ I I I m s j M ",
"X.X.0.B.0.X.>.7.>.0.>.G j s X.>.>.X.X.X./ m R X.M S I X.g.>.] <./ M m m j M I I I / I m M e M I G I G M I / X.0./ R M s G s j M ",
"R 0.b.x.<.>.>.X.X.>.>.m > G 7.0.d.u.7.X./ S I / M j m / 0.:.:.>.I S M > 1 m M m m G G s % : 8 i M G M G I / / / X.G j e m M G m ",
"G / >.7.X.>.7.X.#.7.0.I j I / :.0.d.>.X.X.I / / / S M / >.>.] / j m q X & M M M I I ' G > O   . > G G R / I X./ / / M j i I / / ",
"I I O.d.0.>.>.d.u.X.I S S I / 0.0.z.r.>.>.X.I M I >.| X.0.0.X.I m m j i s i m / / I I S m : . % : s / / / / >.0.X.X.I m m s / 0.",
"R >.u.d.B.x.b.z.X.I j i j G R X.>.7.X.>.X./ X./ :.j.7.X.r.g.<.m q s I / / M I 0./ I M q q > o O 8 s M M e G X./ M X.X.G M m X.:.",
"X.d.d.u.j.B.b.X.G R M i e m / >.d.:.M X./ R / X./ >.<.<.7.<./ M i j R >.X.I / >.>.7./ q o : i s I M i m q S I M q M / / M M X.X.",
"X.X.X.X.>.0.0.S s M m M / X./ >.>./ s m m m j M I j I / I I / S G I R / / / X.>.:.>.X.j e m m m I I M G j s m M m e M I M s I X.",
"G G / M I I G i i M S X.#.X.7.>.X.I I I S M M I M m I I R I X./ I / X.I / X.>./ / >.X.I i m m j G / X.R j : 8 j M M G / X.I R G ",
"0.X.[ R M 8 q m j i X.>.<.>.>./ X./ X.X.I I / X.I j / 0.7.X.#./ X.X.X.R / / >.X./ 7.0./ I I m m / / X./ s 1 8 M m I / X.0.>./ j ",
"d.X.S / I 8 s S m m / >.>.X.R M R I R X./ / X.:./ I #.u.0.:.>.>.X.>.X.X./ m / I M G m S m j m I 7.>.' R G M R >.:.X.R ' 0.0.X.I ",
"X./ M j j M M X.X.I G / X./ G M I I M I I / / / X./ X.X.<.X.>.X.X.>.X.[ / I M G j q 8 s 8 8 e M X.X.I G I I I X.>.X.X.X.u.d.X.S ",
"R / ] M m M M X.g.>.X.X.>.>./ G I X./ / X./ M M / I S X.X.I G X.>.>.X.:.>.I G I m m M q M j 1 e M / / / X.X./ / / / >.u.d.0.I I ",
"/ X.>.R I I G X.0.>.0.7.#.X./ X.R X.:.:.X./ I / / j m I i j I X.>.:.>.>.X.G M I M m m m M i q S I X./ I / X.>.u.X.>.u.0.O.>./ ' ",
"I I S I S / / >.X.r.>.d.g.r.0.0.X.X./ / :.X.X.X.X.I j s e s I / R / I / I M m m M / I I j i s M M G M G / :.u.>.>.j.g.u.>.u.>.R ",
"I j m I S X.X./ / / X.>.d.j.d.0.:.R R X.#./ / / >./ I M m 1 j I R I I / / / S i M R R R I G m m I / R I I / X./ / X.u.u.u.>.X.I ",
"S m j m I X.] I R / X.I X.>./ I S M R X.>.X.X.| >.7.X.I i q e j S R I / >.X.I S / G M m G G m m I / / / / >.>.I I >.0.>./ / S M ",
"m j I I I G I I M I X.S / ] S M e 1 G / 7.7./ :.>.X./ S j j j I m I I I [ X./ I I I / I I S s m / G I G / >./ G I I I X./ :.X./ ",
"e q M I S S M m j I :.I X./ S G j M >.X./ / I S I M I m i q e M i I / m m G I j s I X.:.X.I m e M m I I / / S m I G R I M / / / ",
"i s m M m R I I / / / M S / M j m X.:.R S X.I j m M / I j j s M j / X.I M I R I I / / X.I I M e e m m M I / / G I M / / M I S G "
};
