/* XPM */
static char *texture_z_32[] = {
/* columns rows colors chars-per-pixel */
"64 64 68 1 ",
"  c #726A60",
". c #746B61",
"X c #746C61",
"o c #746C62",
"O c #756C62",
"+ c #756D62",
"@ c #766D63",
"# c #766E63",
"$ c #776E63",
"% c #776E64",
"& c #776F64",
"* c #786F64",
"= c #786F65",
"- c #787065",
"; c #797065",
": c #797066",
"> c #797166",
", c #7A7166",
"< c #7A7266",
"1 c #7A7267",
"2 c #7B7267",
"3 c #7B7367",
"4 c #7B7368",
"5 c #7C7368",
"6 c #7C7468",
"7 c #7D7468",
"8 c #7C7469",
"9 c #7D7469",
"0 c #7D7569",
"q c #7E7569",
"w c #7E756A",
"e c #7E766A",
"r c #7F766A",
"t c #7F766B",
"y c #7F776B",
"u c #80776B",
"i c #80776C",
"p c #81776C",
"a c #81786C",
"s c #81786D",
"d c #82786D",
"f c #82796D",
"g c #82796E",
"h c #83796E",
"j c #837A6E",
"k c #837A6F",
"l c #847A6F",
"z c #847B6F",
"x c #857B6F",
"c c #857B70",
"v c #857C70",
"b c #867C70",
"n c #867C71",
"m c #867D71",
"M c #877D71",
"N c #877E71",
"B c #877E72",
"V c #887E72",
"C c #887F72",
"Z c #887F73",
"A c #897F73",
"S c #898073",
"D c #898074",
"F c #8A8074",
"G c #8A8174",
"H c #8B8175",
"J c #8B8275",
"K c #8C8276",
/* pixels */
"h9hl9h99uhuM92hM99hM999hy9Mhxzhh995*yyxMyh995yy55925Ghhhhhz99MMz",
"9955&592299uh5999MMy29hhhhhh9h999*5259hMhhMz999h2*yzMyyh9hhzhyhh",
"2h99i99229hMS95i9hzM2*99hhzhhS9h92yMzh9hhhyyMhzzy29yhhyhhyyMy5zy",
"999uh9u999h9ihl922hhhy999yM999h99yhhhh929h99hh499yyyyzMhy5hS9259",
"l9h22999huh9hhh229zhhhhMG9hh222999MhhMMS952*22*29yyy5zMh49MSh2*5",
"hll299995uhhlh9295hM2hh9M92yh2#999zhMhxMh9249y55hhhMzhz9yhSMyhhz",
"2hl5999hh92&9l9hh25h95h2952y9y#9h929959hhhhhyy**2yhMMMy2h99hyy29",
"99Mh95hMM995299hh22hh599y5hMhSh9hSh9zh99hSS92225*hyy9y2$9*25yy*5",
"hh9h9hh95ll92999h9h9hy9Mxhhh99y22h99zzhyMMMhh9yyh92hh44*4#25h99y",
"Mlh99h9&29i299hhhMh2zM9hMh#99&42*hhMhhhy9hyMzy9Mx94yMzM99*959y9h",
"9lhhhh222925929599h9hhMMMh2949559929h9zy.2y99959h94hh9hhhyhy9*hy",
"99uu99942h29h9ul2#5xh99hxz9h9h9hzz2#yyz9.9y9y5225y5h9$42hMh9y99y",
"929Mh9u99hhh*#hMM59M9h59h9hShMM99h9*99hzhh99M959yhhMy2299hy$9yyy",
"92299u522iAi*2MASMMSy92h22hh99h25522h99hhy9Mx995995hz29zy9h9929M",
"hhhhMM994999#2MuhMh9h959#29y59h9h999h9yhy999yhy594449yhzzMhh9yzx",
"M99uGMlMh55h42Mh9z92hhh9.*25h44hyM992#hMhh25hzhyy9y9y95yhzhMMhx9",
"h99hMhlh999Mh2hh29h99995*2&29h29hh4999hz429424h9y9yh229yyzzyh592",
"lhhl9hhh99hhh99i2922h9h9294hhy29h*$yMSyy9494#2MhyMhy2yMzhyh9yy29",
"hh9h52944499h99hMh299hh9hhh9h92hh45hzy5*yyyzh2*hzhhh49hhhh55y999",
"hMMMh9u49u92229lM9#hh9huMh29h99999zhh944hxyhz*9zMhSh*9hy9959h9yh",
"hhhlh5hu99hh92929Ml9#999hh94h929hy9hzMhyhMzyhyhzhhxy9hzh*9zz44yz",
"9hhh9#2&2992229h9llihMh9hhh9h9294y49yhyyhhy2zyyxh9My9yhh9zxy594h",
"999i922292299&9999ihM99999922h9h222yy49hyyzyyyMxy9hhh*49xSh9992y",
"9i9ih99hG929h99h299h9hh94hM99hMh9*.4549h9yy5yyyh5yzMy9zS9hyhhhh9",
"99h229MAh99Ml9hGh9ih49l9&2h94hhyMhay9999yy9yh49h4$9h2hMh99hSSMMM",
"h99222Mx5999929h929994hl94999Mh9hSM5449y94hSy29zh2494yxh9zhxyyhh",
"lh99299h2#uh952292&9hM9h9#9lhAhhxSzy2hhyy4MM9xMxh*995h929yxxhhh9",
"hlh92h2922M94299999hMlhh92hMMhhMMyyy5zzz99y9yyhh99hMz522h99zy995",
"9uh99hh29MG9999Mh9Mh99h9&&2hMhhhyy55z9azyMh999hy5yzSSyhy929hMh9y",
"9uxl59MMhhMlMu9429hh299Mi9999hh24h9yy249zMh9hyh9*495h94yyhxyh95h",
"ih9MM99hh9uhhu9h9iMh2hhM994hhMMhh9hhy#24zhMzzyyh#4hhhhyy9MMh2959",
"9hhhhh99hh9299ul9Mh99hhhMh9hM9hMhhMxhy##4y9yh92924hMzz442hh52hzz",
"7ay7yayyxxx9aay9aa94477yxh97zaaxhyMzMh429944h9494249$9249hhyyyMx",
"7axayz7aaaa77aa729y777zaayyyaxaza99yhhhy9h29hxa92$ah9yya4zSz944h",
"zza74yyz9ayay7SSazahayy9yzxy4zy454y2999hzMaahzhyy4hh9yy99yha944a",
"xz42$$ya27yz7axxa749xy42azaa4772hh42949yzz9azhh9$$9y$zy4hy9yyyyx",
"xxz799474$47axa4y9y9azxxxz9yxy47zy94zzy9yyhxzah994ahyz92y9yhhh9z",
"aaaxxxyaz99axay79477$z9xaa44a97xzyz99zz99hSxyy*494yaah92y9yaay4y",
"4aSxxaxzSxzyzyyy47y42427yy7997azyzzy44hxayhzza29xazy$4aaza44ha2$",
"7aSaxaxxza7-y4-$2y44aaaa9zaaay749y922y9xxy9xy*yyzzy*29ahhz24SS44",
"aay9Syyzz447ayyy9aayzyxxayyya7779$5zayy9449zy4xya999y429hy9yyazy",
"zxyyz44ya$4yazzza9947ySxa$#yh4-ayazMSha99hyyyxSyazxxM94492y979a9",
"ay44ayxzy$4774yzy29zy27742#7yyayhzzhy222yzhy4ha44ayyxzh4yxx9yhh7",
"yyyyxa7742449a7744aaay74y729yyyah*9499y4aM924aa4*444hzh7$axhyzxh",
"yaa9y977aa24a97y2-7yyay44aayaa4a449yzzxzzh424xzy799yaz9942hz9ayy",
"zyy4447aa7$492ah942-7ha7797y9ayayyhh9yhShhz99zzh9y9hMz7yy4yhyyay",
"7ya74y77aayxa9xSxa74yh2$4azaaxh4*9Mh94hz99yyyyh59hyhxha9y49hyyya",
"y7aa97zzaxyyxaahSxa797444aayza7a9*yhhyh429yyzz9$4y9yaayyhayayy99",
"4a7aaaayyazaSSxaaxxh42yy2a79ahaa44h7axz49aSzMx749422xxaaahy9zxzy",
"y7$axagaaxxyaxSx77ha4ayy4aahzxxzyhz9yhyayhyhxx94h979hhh9yzhhz947",
"y2-zzaaaxa74aazaa9xaaxy229ax74az947y9za9ax49yhhaxh9ahy9hy9zza2$4",
"y4$yy7yyay-4SSy497za7aaa47ya77ya4$$44azyzS794yyhxayyy74aazzzha9y",
"Hy774axxay4yy4y4494997ax4947zz7779a47$-$4ay9zxaah9y9yM9aSKxayy99",
"zaxyaaaaa7aSa47y9927xayh77499a-7z4yy7$444$9hzzayxy42zSaahxx92$44",
"7axzzaay4a9aa77ya7$9Mxh9447ayaay4-9y24ayM4yxxhahxa99axa444y922ay",
"yyyyyyxxyS7yz7yyay9axzy4y429xSxa4az944hyxy9zzazha4297zh9axzzaaya",
"7yy7-yzy447ay444a9ayx922yyzaaaxxhxay94a7444haay9429a29yhyxxMhhhx",
"77y44aa-4-ya7gy477yySa44244499zahy$yazx97779aazh9y9724$44yyxzh99",
"y747y7agayyyaxyy7ay2xxahaa44za7yy$4aayyhy79xaaayaa4h997yhz9ayya2",
"4yazayxxaayxzga4-ya7zxaxKa$4xaaz94xhxaaSa22yyyaaaSaShazyaaxxyhx$",
"4aayyyxxayyxzazy4yxzxxa7az9444aya9ayxzxz79yyyyxh4yza24za94aSh9zy",
"aaaSxaazx47xSaza7axa94y9hSx9-4y9yyayaSS94yxh7ySx7294$$ayyyazzhxz",
"a7yzz7zyyyyxzyxyyhx97a949yaa4yay79axzay4aayhyzzh942$7y9h2794yMMa",
"4ya7ayayyaxxazSyax7$2474yyayazazay7zzya4a97y449axy2yay79y9a74aha"
};
