/* XPM */
static char *texture_z_31[] = {
/* columns rows colors chars-per-pixel */
"64 64 146 2 ",
"   c #272727",
".  c #2A2A2A",
"X  c #2B2B2B",
"o  c #2C2C2C",
"O  c #2E2E2E",
"+  c #2F2F2F",
"@  c #303030",
"#  c #313131",
"$  c #323232",
"%  c #333333",
"&  c #343434",
"*  c #353535",
"=  c #363636",
"-  c #373737",
";  c #383838",
":  c #393939",
">  c #3A3A3A",
",  c #3B3B3B",
"<  c #3C3C3C",
"1  c #3D3D3D",
"2  c #3E3E3E",
"3  c #3F3F3F",
"4  c #404040",
"5  c #414141",
"6  c #424242",
"7  c #434343",
"8  c #444444",
"9  c #454545",
"0  c #464646",
"q  c #474747",
"w  c #484848",
"e  c #494949",
"r  c #4A4A4A",
"t  c #4B4B4B",
"y  c #4C4C4C",
"u  c #4D4D4D",
"i  c #4E4E4E",
"p  c #4F4F4F",
"a  c #505050",
"s  c #515151",
"d  c #525252",
"f  c #535353",
"g  c #545454",
"h  c #555555",
"j  c #565656",
"k  c #575757",
"l  c #585858",
"z  c #595959",
"x  c #5A5A5A",
"c  c #5B5B5B",
"v  c #5C5C5C",
"b  c #5D5D5D",
"n  c #5E5E5E",
"m  c #5F5F5F",
"M  c #606060",
"N  c #616161",
"B  c #626262",
"V  c #636363",
"C  c #646464",
"Z  c #656565",
"A  c #666666",
"S  c #676767",
"D  c #686868",
"F  c #696969",
"G  c #6A6A6A",
"H  c #6B6B6B",
"J  c #6C6C6C",
"K  c #6D6D6D",
"L  c #6E6E6E",
"P  c #6F6F6F",
"I  c #707070",
"U  c #717171",
"Y  c #727272",
"T  c #737373",
"R  c #747474",
"E  c #757575",
"W  c #767676",
"Q  c #777777",
"!  c #787878",
"~  c #797979",
"^  c #7A7A7A",
"/  c #7B7B7B",
"(  c #7C7C7C",
")  c #7D7D7D",
"_  c #7E7E7E",
"`  c #7F7F7F",
"'  c #808080",
"]  c #818181",
"[  c #828282",
"{  c #838383",
"}  c #848484",
"|  c #858585",
" . c #868686",
".. c #878787",
"X. c #888888",
"o. c #898989",
"O. c #8A8A8A",
"+. c #8B8B8B",
"@. c #8C8C8C",
"#. c #8D8D8D",
"$. c #8E8E8E",
"%. c #8F8F8F",
"&. c #909090",
"*. c #919191",
"=. c #929292",
"-. c #939393",
";. c #949494",
":. c #959595",
">. c #969696",
",. c #979797",
"<. c #989898",
"1. c #999999",
"2. c #9A9A9A",
"3. c #9B9B9B",
"4. c #9C9C9C",
"5. c #9D9D9D",
"6. c #9E9E9E",
"7. c #9F9F9F",
"8. c #A0A0A0",
"9. c #A1A1A1",
"0. c #A2A2A2",
"q. c #A3A3A3",
"w. c #A4A4A4",
"e. c #A5A5A5",
"r. c #A6A6A6",
"t. c #A7A7A7",
"y. c #A8A8A8",
"u. c #A9A9A9",
"i. c #AAAAAA",
"p. c #ABABAB",
"a. c #ACACAC",
"s. c #ADADAD",
"d. c #AEAEAE",
"f. c #AFAFAF",
"g. c #B0B0B0",
"h. c #B1B1B1",
"j. c #B2B2B2",
"k. c #B3B3B3",
"l. c #B4B4B4",
"z. c #B5B5B5",
"x. c #B6B6B6",
"c. c #B7B7B7",
"v. c #B8B8B8",
"b. c #B9B9B9",
"n. c #BCBCBC",
"m. c #BFBFBF",
/* pixels */
"w j x n n n n x n n * K ,.4.w.4.w.f.f.k.=.* y x x n n j x S x , f 8.2.4.8.4.=.,.8.,.9 7 f j x n M n n M y , ` O.@.,.4.,.,.4.4.D ",
"j @.,.4.=.,.8.,.4.8.7 I 2.4.8.4.w.f.8.w.O., ` =.=.,.,.@.4.,.=.x f 4.4.8.2.,.,.8.8.,.w S @.2.,.2.2.4.8.w.{ , ` ..O.8.k.w.,.@.=.K ",
"M 2.4.4.,.,.w.8.w.,.2 D 4.w.w.2.w.8.8.8...2 ..=.=.,.=.2.w.,.2.S y ,.4.w.4.2.,.y.y.4.7 S @.2.=.2.,.2.4.8.{ , ! ..2.f.f.4.,.,.2.D ",
"M 8.2.@.,.2.8.8.,...2 S 4.4.2.2.8.8.w.f.` * ..2.2.2.,.@.4.4.,.x f w.w.y.w.2.,.8.4.=.7 M O.=.4.w.2.=.=.,.E 2 I O.w.8.,.,.4.8.w.K ",
"K k.8.4.w.=.2.y.2.{ 2 x ! E K ` ` ` ! ! n % { ,.8.8.8.4.y.w.=.f w ` I E ` E K K I D , S 2.w.w.8.,.,.,.O.I 2 j K ..! K D I { @.x ",
"M w.2.8.w.,.2.4.w.O., 2 9 , , 2 2 7 9 7 * , O.2.y.c.b.w.w.8.,.j % 2 2 2 2 2 2 , , 2 * K 4.f.f.,.2.2.2.,.` * * , , , 2 2 2 , , % ",
"n 4.,.4.4.2.=...4.,., ` 4.,.,.,.2.2.8.,.D 2 ..,.w.y.w.4.2.,.@.x w =.@.@.@.2.2.,.=.=.9 M =.4.w.2.4.8.8.y...% I { O.O.=.,.@.@.,.D ",
"M w.w.8.O...` ! 2.4.2 I 8.4.,.,.@.@.4.,.I , =.=.4.4.,.,.O.O.=.x y 2.2.=.2.f.f.w.2.,.2 M @.4.8.2.4.4.2.4.` , I O.4.8.f.4.=.@.=.D ",
"S f.y.k.4.=.@.@.y.,.2 I 2.2.=.4.=.O.2.@.S 2 ,.w.4.8.w.@.O.=.4.M y 2.w.2.,.y.w.8.4.2.2 S @.@.@.@.,.4.2.2.{ 7 ..4.k.b.b.8.=.` ..n ",
"n 4.2.w.y.=.=.@.=...2 E 2.=.O.2.@.=.,.=.D 2 ..=.O.w.y.=.@.,.,.n w ,.2.4.,.@.2.2.,.2.9 M O.{ { O.@.=.=.,.{ 2 @.8.f.f.y.w.2.@.{ n ",
"* , , 2 7 2 7 2 2 9 7 E =.O.{ @.,.4.=.,.I % 2 7 2 7 9 , , 7 9 X y 4.@.2.,.=.2.,.=.,.2 + , , , 2 , , , , * + O.,.w.f.8.8.w.2.=.D ",
"7 S E K S D M D E D 7 I 4.=.O.@.,.w.,.@.K , I ! { E E E I I E w f y.w.8.w.c.y.,.=.@.7 n ..` ! I K ` { K n * @.2.8.f.w.8.2.,.2.S ",
"f @.4.4.,.=.@.2.8.=., ` w.2.O.,.8.w.2.=.I 2 =.8.w.4.2.,.=.O.,.x f w.8.2.w.c.b.4.=.@.2 E y.4.4.2.4.y.y.2.{ , O.,.=.w.4.=.O.@.4.D ",
"n ,.8.8.,.8.4.4.4.@.2 ` w.2.{ ` =.=.=.4.` * O.2.4.4.4.=.@.O.=.j w =.O.=.2.8.8.O.@.2.7 K ,.@...,.8.f.f.w.{ * ,.4.2.2.2.,.=.=.8.I ",
"S 8.y.w.2.f.y.2.,..., I 2.@.` { @.,.,.4.O.* E O.4.8.2.2.=...O.j y ..{ 2.,.4.8.O.,.2.7 I w.,.` =.8.w.y.8.! , 2.2.@.,.@.2.2.=.2.I ",
"x 2.8.4.8.8.2.,.=...* 7 f y y y j j j n f % ` =.2.8.2.2.2.=.@.j % w w j j f j f j j % I w.8.@.@.,.,.@.,.! + f j f j f f j j j y ",
"j =.4.=.4.,.2.2.=...* w n M n j x n j f 7 , ..4.,.8.8.2.=.O.2.n % x n j j j j y y f % ! 4.4.4.,.=.O...=.! + 9 y y x x x j x j y ",
"x =.4.8.2.O.,.y.8.{ * ! f.w.,.4.f.y.,.2.K 7 ,.8.=.,.8.2.O.,.y.D y 2.4.4.,.4.4.,.,.O.2 { y.y.k.8.=.@.@.@.E * { { ..w.y.4.4.2.8.{ ",
"x ,.4.8.,.@.@.w.y.=.2 ! 8.8.4.4.2.2.2.y.{ 2 ,.8.2.4.8.2.O.O.8.S y ,.4.4.2.4.4.=.@.@.7 I 4.4.f.4.@.=.,.2.` 2 { @.,.y.f.y.2.,.4.! ",
"n ,.=.2.2.=.,.w.y.4.2 E w.4.4.2.=.@.,.y..., 2.y.4.2.2.,.@.O.=.n f w.w.8.4.2.=.=.,.,.9 D ,.2.w.@.{ ..,.y.2., ..2.=.4.8.4.2.2.2.I ",
"j ` E I I I E O.@.` * { f.2.,.,.@.O.=.,.E * ` { K I { ` I D I y f w.w.w.2.,.,.f.w.2.7 j I ! ! D D M I { { % =.4.4.8.w.y.2.2.8.E ",
"% , 2 2 2 2 , , * % X ..8.=.,.=.@.O.=.O.D % * * , 2 2 , , 2 7 * f 8.w.2.O.@.4.8.w.4.7 % 2 2 2 2 7 , 2 2 * + ,.y.w.w.w.w.=.@.8.` ",
"f { ! O.=.=...O.=.{ 2 { 2.@...=.=.=.,.=.K 7 ` ` O.@.@...` ` ` y y ,.w.8.=.=.=.,.2.2.7 K 8.@.O.=.2.4.=.@.! % @.2.,.w.f.f.4.4.y.I ",
"j O.! O.,.2.2.,.4.=., ! 2.,.@.4.4.=.4.4.E 2 @.@.2.f.w.=.@...@.j w 4.k.w.2.@.,.4.2.,.2 K w.w.8.4.k.m.y.2.E , ..,.,.8.f.k.8.y.y.I ",
"j ..{ =.2.4.8.w.w.,.2 K 2.,.w.y.8.4.8.,.K , ,.w.8.8.8.4.=.@.4.n j f.f.w.=.@.2.,.=.O.7 n ,.4.4.w.c.b.w.@.D , ..@.,.,.=.,.2.4.4.D ",
"f O.@.@.8.y.k.c.c.2.2 I =.@.,.,.4.4.2.@.K 2 ,.w.w.8.y.w.=.=.=.y y 2.2.=.O.O.@.O.=...2 S 2.2.2.8.w.4.2.8.{ * E E @...` ..=.@.O.M ",
"j ..=...2.y.f.f.8.@., , 7 2 * , , 2 7 7 % , ,.k.f.c.m.w.,.,.O.f * 2 7 , , , 2 , , 2 X E 8.8.2.4.,.=.=.w.,.* 7 , , 2 , , , 2 7 % ",
"n 2.@.O.,.f.w.4.@...* x E ! E ! I K K I x 2 =.4.8.w.y.y.w.2...j y I E I K E E I I K * I 4.4.4.,.2.4.4.y.=.* D ! I I E ` K E I y ",
"x 8.2.,.8.y.w.2.,.O., { y.=.,.4.,.=.@.=.K 2 @.2.4.4.8.4.4.8.=.x y ,.8.f.8.4.,.=.w.w.w I =.` =.@.,.w.f.w.O.2 ,.4.8.8.8.w.2.@.=.K ",
"j 4.4.=.2.w.4.2.,.O.* { k.2.@.8.,.,.2.=.I * { O.=.,.,.2.8.@...j y ,.,.c.f.4.2.2.y.y.9 D @.{ ..O...=.4.2.! 7 { =.2.y.4.8.,.=.4.D ",
"x 2.2.,.4.8.2.4.w.,., E 2.2.=.2.,.4.,.=.E * { O.,.4.=.O.=.O.=.x y f.8.w.2.O.=.8.y.w.7 K =.=.4.,.@.@.,.2.` 2 { =.2.w.y.w.,.2.2.M ",
"7 j y n M n x n D S * K @.@.2.8.,.@.,.2.! X j n j j x x j x x 9 f 4.,.w.2...O.2.4.4.2 w M n S n x j j x y + ..,.,.8.y.8.2.=.@.M ",
"2 y y j y f y f f y % I ,.=.,.8.2.O.=.4.` + w y f j j j f f f 2 w O.,.2.2.,.@.@.,.,., 2 y w f f y w y j 9 * { 2.2.O...{ =.,.@.S ",
"n 2.2.8.8.2.@.4.8.2.9 E 4.w.8.8.8.,.,.2.E * O.,.4.w.8.,.@.=.O.n y =.8.2.@.,.,.=.O.=.7 M O.,.w.2.O.@.,.=.I , { O.@.O.{ { O.8.8.M ",
"x 4.8.2.2.w.w.w.8.=.9 K 2.2.w.w.w.4.@.,.E * { ,.8.8.2.O.{ ` @.M f 8.f.w.=.2.4.4.O.=.9 K 2.2.8.2...{ ..O.I , ....{ =.2.,.4.k.c.I ",
"n 2.2.4.2.y.w.4.4.@.7 S @.=.8.y.4.,.O.=.E , { @.=.2.2.=.{ E ..n y ,.8.w.,.4.4.4.=.2.9 ` f.2.2.,.2.@.=.2.` 2 @.O...2.2.=.8.y.y.K ",
"x @.2.w.8.y.f.4.2..., f K I { ` ` ` E E n , ,.2.O.2.,.,.@.=.2.M 7 I { E K ! { ! E ! 2 ! f.4.,.,.4.,.2.4.` , I { ! ! E ` ..E E x ",
"x =.=.=.,.8.y.y.8.=.7 * , * , , , 2 2 7 2 , =.4.2.4.8.4.,.,.4.M * , , * , * 2 , * , X ! 4.=.2.2.4.4.4.,.` X % , , 2 7 2 , , , * ",
"n 2.,.@.=.,.w.y.w.4.2 n ....@.O.O.O.=.O.S * { =.w.8.w.4.=.=.@.x w ` { { ..@.@.@.@.{ 2 ! 4.=.2.2.4.,.4.=.I + K I I ` ` ! ` @.O.M ",
"S 4.4.4.2.8.2.,.2.@.2 S 2.4.2.8.2.@.,.w.` , E ,.w.2.2.,.O.{ O.f f ,.@.@.,.,.2.w.4...2 K 4.4.4.2.8.2.,.,.E , O.@.{ O.,.@.=.,.4.I ",
"n 8.y.,.@.w.,.@.=.@.7 K ,.=.w.k.w.O...w.! 2 I 8.k.2.,.=...E { f j ,.{ ..=.,.8.w.,.{ * E w.4.2.,.@...=.8.` * ..,.O...@.2.2.@.4.K ",
"j ,.8.,.=.@.@.O.=.@.2 I 2.=.8.8.2.=.=.=.E 2 ..4.w.,...@.=.@...y y O.` O.@.,.,.4.,.{ , E f.8.4.2.O.! ` =.E + ..,.=.@.O.4.8.,.4.K ",
"* w 9 2 2 7 9 2 2 2 % ` 4.2.w.w.8.8.,.=.! * 7 7 9 7 7 2 7 7 7 * f @.@.2.=.@.@.=.O...2 * 7 9 2 7 7 , 7 7 , * ..=.4.4.2.,.,.=.2.D ",
"w D D D D E I ` ! S , E @.,.8.y.w.2.=.=.I 7 n S M M n S S S K y y O.O.O.2.=.,.,.O...7 j { E E E ! ! K S M * ! O.@.,.8.4.O.,.2.D ",
"j 2.,.O.=.,.,.w.c.2., K O.2.4.8.w.8.2.O.D 9 @.8.@.@.=.,.O.O.,.n f =.=.@.2.@.=.@.O.` 2 I w.w.8.4.y.y.2.2.{ * ..=.@.,.2.=.,.,.,.S ",
"j =.,...{ O.@.2.8.,.2 K @.@.=.@.4.w.8.2.E 2 ,.f.,.=.2.,.O.@.2.x y =.=.2.2.2.2.@.O.` 7 K =.,.@.O.8.8.2.w.{ 2 O.@.=.=.=.,.,.@...n ",
"j =.=.@.{ ..=.,.2.=.2 ! 8.@...=.y.f.y.2.I 2 2.f.2.4.y.4.=.O.4.x w 8.8.4.2.4.w.4.,.=.2 E 4.@...{ ,.k.f.f...* ` { O.@.,.=.@.@.O.M ",
"M 4.2.=.=.=.2.4.8.O., f M x f x S S M j 9 , 2.w.8.w.4.,.=.=.2.n , M n x n n n n n n % ! 8.=.@.O.=.y.y.f.O.+ 9 y j x x n x j x 9 ",
"n ,.@.@.=.,.2.4.2.@.* 2 y x f f w f y f w , ..,.,.2.=.=.2.2.4.M * w f j j f y w w 9 % I 4.@.=.=.2.2.4.8.! * w j y 9 w w y f f 2 ",
"f O.{ =.=.,.,.2.4.,., E w.w.y.4.2.8.4.8.` , ..=.,.@.,.4.8.f.w.n w ,.4.y.8.8.,...` { 2 I 8.,.2.4.8.2.,.2.` 2 =.8.@...=.=.4.y.y.I ",
"f =.,.=.@.=.,.2.2.=., ! w.k.k.8.w.w.w.4.! , ..2.2.,.,.y.f.8.8.x f w.y.k.w.4.2.=.=.,.2 E 4.4.,.2.8.4.2.@.! , @.2.,.O.=.=.=.,.,.K ",
"x =.=.=.,.=.O.,.4.O., K 2.8.y.4.8.f.w.8.` , O.4.4.O.@.4.O...2.n j 4.w.,.2.4.4.4.8.=.7 { y.2.2.4.4.4.,.,.O.* ..2.....=.,.@.=.=.K ",
"w I E E { ` S D { E , I ,.,.2.4.8.4.2.4.! % E E E E ! ! D E ` y f w.w.@.....@.w.w.4.9 n @.{ { O...! ` { ` , ..2.=.{ ,.8.2.2.,.D ",
"* 2 9 2 2 , , * , 2 % ! w.,.8.4.,.2.8.,.` % , , , , 2 2 * * * X w y.8.@...{ ,.4.f.4.9 , 7 7 * , * * , * % + ..=.,.@.=.2.y.2.@.M ",
"j ,.4.=.` I E E ` E * ` w.2.8.4.@.@.4.4.! * ` { O.=.2.@.O.@.@.x w ,.4.=.O.,.f.8.2.=., D ,.O.` ` { O.@...K , ..4.w.4.2.O...@.O.x ",
"D f.y.y.2.O...O.,.,.2 ` 4.2.2.=...{ @.,.! , 2.,.,.2.y.y.w.8.w.M w O.2.@.` =.8.4.,.@.7 I y.4...O.2.2.2.@.E 2 @.w.f.y.w.,.O.2.2.M ",
"M w.8.f.f.,.@.,.8.2., ` w.2.=.=.,.@.@.8.` , =.,.2.=.=.,.2.8.4.n y @.,.@.` O.2.4.=.@.9 K 8.=.O.,.8.4.2.2.` , ..@...2.k.y.4.8.w.K ",
"j =.w.w.y.4.4.8.k.=., ! w.,.@.O.=.=.O.2.! , ..2.w.2.=.=.2.4.8.S 9 { @.@.2.4.4.O.{ ! 7 D ,.,.8.w.y.y.2.w.2.2 ` { ` =.y.4.=...O.M ",
"x @.2.8.2.=.,.,.@.@., , 9 2 2 7 7 2 , 7 , * { ,.w.w.4.2.2.=.y.S % 9 2 2 9 9 7 , 2 2 + E 2.=.2.8.8.w.,.4...% 7 , * 2 2 w 7 7 9 2 ",
"M ,.2.y.w.2.O.....@.2 x K S K E E I D S j , { ,.2.k.b.8.,.,.w.M 2 D K K ! K S S S D , I ,.O.@.=.2.,.4.4.I % n D K E I M D I K w ",
"n ,.2.2.2.2.O.{ O.@., ` 4.@.2.y.w.w.2.=.I , @.2.@.4.w.4.=.=.2.x j @.4.w.8.,.@.=.=.=.7 D 2.@...,.w.4.f.w...7 E O.2.4.8.O.=.4.,.S ",
"x 4.2.2.2.@.=.,.4.,.* E 8.2.2.8.4.8.,.,.E , ,.=.O.,.,.=.,.4.2.x f 8.w.y.4.,.@.=.O.{ 2 S ,.2.,.,.2.2.4.k.@.9 ..=.=.=.=.,.,.,.,.D ",
"M 8.8.,.O.{ =.,.w.2., D @.O.,.4.=.4.4.8.{ 2 4.4.2.4.@.@.=.2.8.x w 4.4.f.8.2.,.=.@..., K 2.w.k.4.,.,.@.2...2 4.8.=.@.@.=.@.4.k.E ",
"f E I D M n S D E E , S O...@.=.{ ,.f.w.{ * D I D D M M S K I 9 y ,.,.2.2.2.2.@.,.,.7 f K D I I K D S M n * =.4.@.@.@.@.2.2.y.{ "
};
