/* XPM */
static char *bluewall[] = {
/* columns rows colors chars-per-pixel */
"128 128 88 1 ",
"  c #010101",
". c #080804",
"X c #00000E",
"o c #0E0E0B",
"O c #13130F",
"+ c #000013",
"@ c #00001B",
"# c #09091D",
"$ c #191915",
"% c #13131B",
"& c #1D1D1B",
"* c #21211E",
"= c #010123",
"- c #0A0A23",
"; c #01012B",
": c #0B0B2A",
"> c #131325",
", c #1D1D24",
"< c #13132C",
"1 c #1A1A2B",
"2 c #000036",
"3 c #0E0E34",
"4 c #00003A",
"5 c #0B0B3B",
"6 c #131333",
"7 c #191933",
"8 c #121238",
"9 c #19193C",
"0 c #212120",
"q c #2A2A27",
"w c #2E2E29",
"e c #33332E",
"r c #21213B",
"t c #343431",
"y c #3B3B37",
"u c #41413E",
"i c #000043",
"p c #0A0A43",
"a c #00004D",
"s c #08084B",
"d c #191943",
"f c #13134A",
"g c #000053",
"h c #090953",
"j c #00005B",
"k c #09095B",
"l c #1F1F5E",
"z c #262643",
"x c #2C2C46",
"c c #35354A",
"v c #000063",
"b c #0B0B63",
"n c #00006C",
"m c #08086D",
"M c #151569",
"N c #000073",
"B c #080872",
"V c #00007B",
"C c #08087B",
"Z c #202060",
"A c #404040",
"S c #4D4D4D",
"D c #434357",
"F c #4B4B51",
"G c #40405B",
"H c #565653",
"J c #000084",
"K c #080884",
"L c #00008C",
"P c #08088E",
"I c #000093",
"U c #080890",
"Y c #00009B",
"T c #0000A3",
"R c #0000AB",
"E c #0000B2",
"W c #0D0DB2",
"Q c #0000BB",
"! c #0102C2",
"~ c #0101CA",
"^ c #0000D6",
"/ c #0D0DD7",
"( c #0000D9",
") c #0D0DD8",
"_ c #2727D9",
"` c #0000EC",
"' c #1416E2",
"] c #2727EC",
/* pixels */
"yxMnnnnNnnNnNnnnNnNnnNnnnNnNnnNnnnNnnNnnNnnnnnNNNnNnNNNbxyyxbnnnNnnnnnnnNnnnNNNnnNnNNbxyyxkNnnNnnnnnnnNnnNnNnNNnNMxxkNnNnnnnNMxy",
"tzbVVVVVVVVNVVVVVNVVVVVVVVVVVVVVVVVVVVVNVVVVVNNNNNNNnNNkreezbVVVVVVVVVVVVVVVNNNNNNNNNbrwexbVVVVVVVVVVVVVVNNNNNNnnkrrmVVVJVVVVbrq",
"q9BILLLLLLLLLLLLLLLLLLLLLLILLLLLLLLLLLILLLLLJJJJJJVNNNNh:O*dBILLLLLILILLLLLLJJVVVVVVVv:O*rBYILLLLLLILLLLLLVNNNnvvp#:BYYYYYYILv:o",
"&9CYYYYYIIYYIIYYYYYYILYYYLILIYIYIYIILIYYYIILJJJJJJVNnnng+.$9CTYYYIYILIYYYYYLLJVVVVVVNg@.$9CYYTYYYTYYTYTYYYILLJNvvi+=VRTTYYYYLv@ ",
"*9BYYYYILJYIJJLYYIIJVJJLLLJVJLLLLLJNVJIYLVVNVNNVNNnnjjj4+.$9CYYYLLLLJLIYYYILJVVVVVVNvi+.$9CYRRTTRRTTRRRRRRTTTYLVNa+=VRRYLLLLLj@ ",
"*9CYYLIJVJLLVVLILLJJVVJLLJnNJLLJVVNNnNJLJVVNnNnNnnvjjgg4X.$9CYIILLLJVJLYIIJVVVVVJVVng2X.$9CTRRRRRRTTREEEREEERTIJVg@=VRTYLJLJVg@ ",
"*9CYLLVVVJJLJJLLVNNVLLLLIJnvVLLVnvNVNNVVJJJVNnNnnvjjjga4+.$9CYILIYILJJJLLJVVVVNVLLNvg4+.$9CYTTREERYTREEERRRRTYLJNg+=NYYYYYLJv4+ ",
"&9CYLJVNNVJJJJJJNNNNJLLLIJnvVJVNvvNNNNnnVJJVNnnvvjjgggg4+.$9CILLLIILJVJLJVNNNNNNJVnjg4+.$9CTTRRRRTTTREQETTTTYLLJNg@@nIILIILNj2+ ",
"*9BYJJLJNNVJNNJJVnnNVVJLJVVNNNvvnNnnVVvvNNnnvjjjgaaaaggi+.$9CILJJJJJJJLJVNVVNNnvvjjjg4X.$9CYRRRTTTREERRRYIILJJJVna+@vJNNVVNnj2+ ",
"*9CIJJLJVNJJNNNVNnNNnNJJJJVJVnvnVNnnVVvjnnnvjjjjgggaaggi+.$dCYIJJVVJLLJVNnNNnnnvgagga2+.$9CTRRTYYR!~ERRYYYULJVNNna@@jVnnnnnvg4+ ",
"*9BYJVVJLLIILJnvnnNnnVLIJJJJJVNNVVNnnnjjnnnnnnvjjjggaagi+.$9CYYLVJLIYLVNnnnvvnNnjgaga4X.$9CTERYTT/''/RTYTTYLJVNnng+=vJVNnvjjg4+ ",
"*9CIJVNVIYYYYLNnNVNNVJLIILLJLJVVVNnvvvjjnNNnNnnvvvjgaggi+.$9CYYLLJLIILNnvvvnnnVNvggag4+.$9CYRRTTT!''~EYYTRYYLVnnng@@vLJNvjjga2+ ",
"*9CYJJJJYTTYYIJJLLJJLIYYYLLLLJNnVNjjvvjjvNNNNnnnnjgaaag4+.$9CYYIILJJJVNnvnNNNVVNnjgga4+.$9CTTRRTTWW!QRYYYTTYVNnnna+@vJVnjaaaa4+ ",
"*9BYILLIYTTTYYYYYLLJJLIYYYLLJVNnNNjjnnvjvnnnNnNnvjgaaag4+.$9CYYYILVVVVNNnnNVVVVNnjjga4X.$9CYTTRRYYTRRRYYYYYYVnnnna+=nJNvgagga4+ ",
"*9CYYLLLYYTTTTYYIJVNnNLYYILJJVNNNnvjvvvjjvnNNNnvvggaggj4+.$9CYYYLVVNVVVNNNNNVVVnvggaa4+.$9CYTRERTYYTRRYTTTYLVnnnng@@nJnjgaggg2+ ",
"*7CYYLJJLYYTTYYLLJNnvnJLLJJJJVVVnnvvvnnvjjnnnnvjjggagjgi+.$9CYYLJVNNNVVJJJVVVNnnvggag4+.$dCYTTEETTYYYYYYTYYIVNvnng+@aja444i44;X ",
"*9BYIJVVJIIYYYLJJJNNNVNNNNVJVVVVvjjvnnNnjgjnnvvvjggggag4+.$9CYLLVVVNnnVJLILLVnnvnvgggi+.$9CYTREERTYYLJJLYYYILVnvvi+X+@++XX+++X  ",
"*9CYLJNNVJIYLLVVJVVVLJnjjvnNNNNnjgjvnNVnjgjvvvvvjjggaaa2+.$dCYLJVVNNnnNVLYYJNnvvvvgggi+.$dCYTRQETTTYJVVVJIIILVnjgi+ +@=;;====@  ",
"*9CYLVVNVJIIJNNNNVLIYJNjggjjjjnvgjnNnnNnvjjjvvvvjggaaaa4+.$9CIJVVVnnnnNNVJJVnvjjggjgg4+.$9CYTRRRTYTYJVVVJJLJJNvjg4++anVVVVVVVg@ ",
"*9BIVVVVJLLLVNnnNJLYYLNjggggaajjggnNnvnnvvjjvvvvvggaaaa4X.$9BIJVVNnvnNNNVVNNnvjgaaggg2+.$9CYTTRRTYTYJVVVVVJJVNvgg4X=nYTTTTTRYN= ",
"*7BLVNVJLLLVVNvnVJYYYLNvjjaaaaagjjvvnnnvjjjvnnnnvjgaggg4+.$9BLJVNNnvvnNVVNNnnnjgaggga2+.$9CTTRRRRRYYJVVVVVJVNnvgg4+=nYTTYYTYIv= ",
"*7mJVNVJLLVVJVNnNJLLJVnvvjaaaaaajvjjnnvjggjvnNNnnjgagga4+.$7BJVVNnvvvnnVVNvvnnjgggggg4+.$9CYTRREERYILVVVVVVVNnjjji+=NYYYJJYYVg@ ",
"*7mJVVJJVVNVLLVNnvNNvjnnjaaaaaaajjjvNngiaaajnNNNNvgaaga4+.$9mLVVNnvvvvnnVNjgjvggjjgaa2X.$9CYTTREERTYYLJVVVJJNnjjji+=nYYIJJLLna+ ",
"*9mLJVJJNnnNLIJNvvnvjjvvjggaaaaggggvnvai4iigjnnnnvgaaaa4X.$9BJJNNnnvvvvvNnjgjjagjjgga4+.$dCYTTREERTTYLJVVVJJNvjggiX@vLIIJVVNv4+ ",
"*9BJVVJJNnvvVJJNnvvjvvjvvvjgagjjggjjjgi44iiiajvnnvgagga4+.$9mJVNVNnvvvjjjvjjjgaajjgga4+.$9CYTRREERTYLLJJNVVVnvgga4X=vLYYLJNvg4+ ",
"&7mJVNJVNnjvNNNNnvjjnvvvnvvgagjjgajjgiiiii4iaajjjjgaggg4+.$9mJVNNNnvvjjggjjjjggggggjg2+.$9CYTTRRRRYLLJJJVNVNnjgag4+@vLLLJVnjj4+ ",
"07BLJJNNNNnvnnvjggagjvnvvvvvjgjgaagaaaaii4iiiaaggaaaaaa4+.$7mJVNnnvvjjgaaagggaggagjga4+.$9CYTTYTRTLJLJJVJVNNNvgag4+@vJJJVNvjvi+ ",
"*9mLJJVNnnnnvvjgjgagjjvvjgjjjjgjggaggaaaaiiiaaaaaaaaaaa4+.$9bVVNnnvjjgaaaaaaaaggagggg4+.$9CYTTYTRRIJJJJJJJNNnvgagi+@jVVNnvjjja+ ",
"*9mLJVJVvvjvvvjjvvjjvvjgggjjgggjjgjgggaaaaiaaaaaaaaaaga4+.$7bVnvNNvjjggaaaaaaaaggagag4+.$9BYTRTTRRRYJJLLJVnvjjaag4+@jNnnvjggg4+ ",
"*1hvgjvjaiiiiaiigaiiia422444244iiiiiii44444444444444444;+.$7hgaagjaii4444424444444244;X.$9mIRRTTRRRYLJLLJNvjgggga2X+4gaii4424;X ",
"*&#@@+@@++++++++@+++++XXX+++X+++@++@++++X++++X+++X+X+++X .%,#@++@@+@+@+++++++++X+X+++X .$9mITERTYYILJJJJVNvggggga4+ +@+++XXX+X  ",
"98;;=========================#+..........................o&$o..........................o$9mITRRTYIIIJJJVVNvjgaggg4+ +@=;;;;;;;;;",
"CCJJVVNNVVNnNNNnNNnNVVNNNnNNNk6$$$$$$$$$$$$$$$$$$$$$$$$$$$,&$$$$$$$$$$$$$$$$$$$$$$$$$$$&&7mITRRTILTYJVVJVNnvjgaag4+X2jVLILILLLIL",
"TTRRTTYYTTTTYTYYIYYYTTIYYYYYYB8$*00,177779779999999977771111111,,0000,117779999999777771,9mITRRTYYYYVVLLVNNnvggaa2++aJR!!!!!!Q!!",
"RRRTYYIIYYRRTYYYLLIYYYJJIYLLJj=o$*01pshbmmbkmmmBCCCBbkkkpp5i52561**0013sshmmmBCBmvkkhhhs17mITRTRTTYLJLRTIVNnvjjga2X@jLE!Q!~~QEQ!",
"EETTYLLLLYTRTYYLVVLYYJNNJLLJVj@.$,19hvNJJLVVJLLIYYYIJVVnjaggaaii6,,0&1pjnVLLJLILJNNNnnvs<7mITTTTRTYLJYTRLJNnvvjgg4+@jYR!!~((!QEE",
"ERTYILLJJJYYYYJVNVJILJNNVVJLJv@.$15hvnVJLJJJJLLYYTYYYLVNjgjjjjgap31**1hnVJYLVVJJVNVVNnvi@-nLIIYYTTRYILILJNNnnjgagiX=nYE!~(``(!ET",
"RRTYLLLLJLLIYLJNnNVJLJNnnNVJJv@.$7hnNVJLLLLLLYYYYYIIILVnvjvvvjjjgs1*&7hNJLIJNnNNnNNNnvvi+@vLLIYYTRRTIJJVNnnvvjgggi+=NTE!~(``(!ER",
"RTYYLLYYYYLLLLVNNNNVJJNNNnNVVj@.$7mJJJJLYYYYYYTYJVJJLJnvvvjggggjjh7**7kVLIVNnvvvnnvjgjna@@jLYYTTRRRTILJVNnvjgggjji+=NTEQ!~((QEEE",
"TYYLLLYTTTYLJVNnNNNVVJVNnnnNNg@.%9BILLLIYYYYTYYLNnnVJNvjjjjgagjjnh<$&7kVLLJNnvjjnvjggjvg+@jJYRTTRRYLJVVVNnjggagjgiX=NTQQQQ!QRTEQ",
"YYJJJLTTRRTIVNnNVJJJNVJNjjnNNg@ ;hJYLLYYLLYTYYJnjjvnNNvjggaggjjvng=O$7bVJJLJNnvvvvggjvvi+@jLTRRTRYVNnnVVNnvjjggjg4X=VRQQQQERYYTR",
"YILJJLYYRRTIVNNVJJJVNnNNjjvNNg@X;jLYIIYYLLYYYIVnjgjnnnvjgaaggjjvng@.$7bVJJILVnvvjjggjjj4X@jJTRTYTINjvnNNNnvvjggga4X;VEQQQQRTTTYT",
"IILLJJLYTRTYVNVJVNNNvjvvjvnNNg@X;jJYYYYTYYYYYYLVvvnnvvgggggggggjva@.$7hVLILJVNvjgjvvggg4X@gVYYYYYLNvvvnnNnnjgaaga4X=JEQQQERTERTY",
"YYYLVVJLYYTYVVJVNNNnjjjjvnvnna+X2gJYYYTTTTYTTYLVnvnnvjgggjjgjjgjja+.$7hnJJVNNnjgggvvgag4+@gVLIYYYLNvvvvvnnvjaaaaa2X;JEQQQERRERYY",
"YYLVVNVJLIYYLJVNNNVNvjjvnvjggi+X2jJYTTTTYTRRYLJVNnnvjjggggggjvjjj4+.$7hnNnnjjgggggjgjjji++gVJLLYYLVNnvvvvvjjaaaaa2X=VEQQRRRRRTYY",
"TYLVNNVVVJLIJVVNNVJVvjvnnvjga2++4vJYYYTYYYTTLJVNNnvvvjjjjgggjvjjg4+.$1phaii44224i4444ii;X@gVJLIYYYJNnvvvvvjggaaaa4+=VRQERTRTTYYY",
"TTYLVVJJVVJJVNVJJVVNvvnnvjvvg4++inJLYYYYJJJJJVVVnvvvnvvjjjjjggggja@.$01>#+++XXX++++X++++ @gVJLLITYJnnnvvvvvjaaggg2X=VRQERTYYLYTR",
"TTYIJJJJVVJJVVJLLJNnvnnvjjvvg2X@anJLIYILVNNNVVNNvjvnnnnnjjvvgagjva+X<d97;=;======@@=@@  .=kVJJLITYJNNnnvvvvjgggga4+=VRQQRTYYYYRE",
"TTTYLJVJIILJJJLLLJNnnnnjggggg2X+anJLYILVNNVVVVnvggvvvnVNvvnnvvvnvi+@kKCCJJJJNNNNnvvvvi+.O6vJJLILILLVNnvvvvgggggaa2X=NREQQETTREQQ",
"TTTYLJVJIYILLLJVVVVNNNnvgaaaa4+@aNVLLLJNVJLLJVnvjgvvnNLLVNNnvvnnna+=NYTTEERRYYYLJJLJJv@.$9BLIIYYLLLVVnnvvjgggggaa4X=NTEQQEREEQQE",
"TTTIJVNNJLYYTLNvNVJJVVVNvjgag4++anJLJVNVLYYLJJNvvjnnNJTRYIJNnvjjva+=NTREERTYILJVNNVJVg@.$9BIYRTTYLLJNnnnnjggjjjga2X=NTEQRREEERRR",
"TYYLJVNNVLYTTYNvNNVJVVVNnjgaji++inVJJNNVIYYILJVNnnNNVIRETIJNnvjvva@=NYTTRTTILJVNNNNNng@.$9mYRRRTYYILVNNNnvjjggggg4+=NTEQERQQERTT",
"YIIJNNNVLYYRRYLJJJVVVVVVnjgggi++4vNVVNNNJYYYLJJVVNVVJITTIVVNnnvvng+=NYYIYYYIJNnNJJNvva+.$9BYRERTRTYIJJVNvjjggagjj4+=NTQQQQQQRTYY",
"YYLJJVJJLYYTTTYYJNNnNVNNnvaagi+X2gNVVVNVKYWWYLLJJJVVVLIYJVnnNNvvng+=NYLLIILLVVNVLLnvji+.$9CTRRTTRRYYLJVNnvjgagjjj4X=nYEQQQQERTYY",
"TYLLIYLJLLYYTTYLnvnNnnnnvjgag4XX;gnNNNVVLW__WYJJLILJNVJLVNnnNNvvng+=NYYILJVVVJJLJVnvva+.$9CYTTYYRRYYLJVnnjjjgjvjg4+@vIEQQQQQTTTT",
"YYLLIYLLLLLYYTYJnjvnvjjvjjgaa2XX;avNnNVJIW__WYLJLILLVVJJJVnnnnvjna@=nYYILLVNVJLLVNnnva@.$9CYTYYYTTYLLJVnnvjggjjjg4+@jLRQQQQQRRTY",
"YIJVJJIIIILLYYYLvjvjggjjgaaaa4XX2avNNNNJLYWWYIIILLYILLJJJJNvjjvnj4+=NYYYYLJJLLVnnnNNna+.$9CYYYILYYLJLJVNNvgagagggiX@jLEERREQQRTY",
"YILVVJIYYILLLYIVnjvjgaggaaaaa4+X=4vNNNVJJLYYYYIULIIYILJJJVnvggnvg2X=NYYTYYILIJnvjvNNni@.$9CYIILLIJVVVJVVNvgaaaaag4+@jIRQEREQQETY",
"YILJVJLYYIYILLVNnjjgaaggiiiia4+ X=jNVVJLILJLYIJLLYYYVVLIVnjggjvvg4X=NTRETYYIJVnvjjvjji+.$9CYLLLIJVNNNNNNNngaaaaag4+@jLEQQEEERRTY",
"IIJJJJLIYYYIJVNnvjjgaggaii4ia4+  @aNVVVLIIVVLLLJLYYIVVLLngagjjjjg2X=NYRRRTYLJNnvjjjjji+.$9CYLLYYLVVNNNNnnvgaaaaaa4X@jIEQQQERYYTT",
"LLJJJJJLLYYLVNvjjggaaaaaii4igi+  +avnNNVJLVNJIILLIYYYLVnggggvngga2X=NYYYTTYIJNnvvvjvji+.$9CYLITTYLJJVNnnvvgagjaaa4X@jIRQQQRTYIYY",
"JJVJJJVJLIILNnjggjgggggaaiiagi+ .#ijnnnNVVNNVJLYILLIYLVvggjvvvgaa4+=nYLLYYYLJNvjvvvvj4+.$9CYLITRYYILVNnvvjgjvvgaa2X@jLEQQERTILLI",
"LJJVVVNNVJJJNnjgjjjvvvnvgaaaji+.O>igjvnNNNNNNVLIILVNNJVNnvvvjgaaa4X=nYLJLIYLVnvjjjvvj4+.$9CYIYTRRTYLJNvvjjvnnvgaa4+@jLEERREETYIL",
"JJVVJVVNNNVNNnvjgjvvnNNnvgaggi+.$18pagvnnnnvnnNVJVnjvnVNvvnvgaaaa2X=NYILJLLJNnvjjjjjg2X.$9CYYYTTRRYILVNvvvvnNnjaa2X@jIRQRREETILJ",
"LJVJLLJVnnNNNnvvjjvvnNNnvggag4+.$,1<5agggggggjjjvjgggjjjggggaaaai2X=NYLLYJNvvnnnvvjja4+.$9CYYYYTRTYIILJVNvjvnnjgg2+@jLEERRQRYJJV",
"JLJJIILJnnnnnvvjgjjvnnnvjgaaa4+.$q*135224444422222242222424442442= =nYLLIJnjjvnvvjjga4X.$9CYYTTTTYYIIILJVnvvnvjga4X@jIRQRRRTJVVV",
"LLLILLJVVNNnvjjjgggvvnnvjgaaa4+.$,00,#@XX++XXXX+X++XX++++X+X+XXXXX =NYYILVnvvjjjjjgaa4+.$9CYRRRTTYLLLLLJJJNnvjgaa2X@jLRQQRYJJJVV",
"JJLYLJVVVVNnvjjgaagjjjjjjgaga2+.$*001>#++++++++++++@+++++++++++X...;NYILVVNnjgggggaaa4+.$9CTREERYYLJJJJLLJJNvjgaa4X@jLRQQRYJLJJV",
"NVLLLJJVNNNnnnnvggggaaagaggga4+.$001psiiii4ii4iiaaaaaii4iiiii443>$$7CYJJVVnvgaaggggaa4+.$9CYREERYILJVVJLLLVVNvvjg4++aJRQRRRTIJLJ",
"nNJJJJVNnnnNNnnngagaiiiaaaggg4+.%*01sjjjjvvvvvvvnnnnnnvvvjjgjjgi>&*9CILJVNnvgaaagjgaa2+.$9CYTRRRYYLLNNVJJJVVNnvjg2++aVRERRRTIJJJ",
"nNVVJVNnnvNNNNNngiii4iiiaaaga4+.$0*1sjjvnNVVJVnnVVVNVNNnnnjjjgg4@O$9CYILJVNvjgaaggaaa4X.$dCYYYTRIITYVnnnVVNNnvjjg2++iVRQRTYILJJJ",
"NNVVNNnnnnvnnNnvgaiiii4iiaaaa4+.$001sjvnNVJLJJVVJJNVVNNnnnvjjgg4X.$9CYYLJNNnvgggggaaa4+.$9CYLITTIITYJNvnNNnvvjjga4X+aVTERYIJJJVV",
"nNVNnvvnnvvvnNnngaii4i4iiaagg4+.$001sjnNVLLLJVJJVNnnVNnnnnnnvjg2+.$9CYYIVNVVnjjgaaaaa4+.$9CYYIYYYYYLJVnvnnvjjjgjg2++aNYRTYLJJVVV",
"NNVNvjjvnnjjvnnvgaiiii4iiiggg2+.$001svnVJJVVVJJJNnnnNNvjvnVVnvj4+.$9CYYLVVJJNvjggaaaa4X.$9CYYYYYYYLJJVvjjjjjjggga4++aNITTYLJJVVV",
"nNJJnvjvnnjjvvjgggiiaiii4iaaa2+.&001svVJJVnNJJLJnnNNnvggjnVJnvvi+.$9CYYLJLILNnvjjgaaa4+.$9CTTTYYILLVNvjaggjjgaaaa4++iNYYYLJVJJJV",
"NNVJVNvvnnvjvjgaggiiiai4iiiaa4+.%001svVJVNnNVJJVNnNNNvggjvVVnvva+.$9CYYIILILVNnvjgggg4+.$9CTRRYILLLJnjgaaajjggaaa4X+aVYTLJVJLJVV",
"NNVJJJVnnvnnvjaaaaaaiii4iiaaa4+.$0,1svVJNNVJVNNVJVNnNNjggjvnnjj4+.$9CYLLIILLJNNnvvgggi+.$9CTRRILILLVnvjgaaagjjaaa2X+aNYYIJJJLJVV",
"NNVJJJJNnvnnnvjgaaaaaiiiiiaggi+.$0*1svVJVVJJNnnNVNvvnnjgaajjjjg4+.$9CYILLIJJVNNnvjjjj4+.$9CYRTLLIILVnvjjgaggjjgaa4X@aNLYILLLJJJJ",
"NNJJJVVnvvvnnnvjgaaagggaaagjji+.%0*1svVVJJJJVnnvvjggjjgaaajggga4+.$9CYYILVNNNNnvjjjgg4+.$9BYTTLLLJVNNnvjjgggggaaa4++aNJYLLLJVVJL",
"gjvvvjjaiiaagggi4224i442444ii;+.$**1svVJJLJVNnvjjgggggagggjjgga4+.$9BIYLJNNnnnvjjgjgg4X.$9mLYYILJVnnnnvjggjgaaaaa2++ihvvvvvvjgvv",
"@@@=@@@@++@+@@+++X+++++XX+++++ .$0*1svVLJVVNvjggggggggggjvvvvjg4+.$9BLLJVNNnvjvjgggjg2+.$7mIYYLJVnjjnnjaagjgaaaaa4+.><=@=@@@@@@=",
"............XX++++++@@@@@@@++++#>1175gvvjjggii42244i4244iaaaaii;X.$9mLLLNnnvjjvjgaggg4+.$9mLLJVNnvagvvjgaaggaaaaa4+.$&#+++++@+..",
"%$$$$$$$$$$%;224iaaagjjjjjggaiii5i557>=@@@@++++XXX++++++@++@+@+X .$9mLILVnvjvvvjgaaagi+.$9bJVNvjjjggvvvjjgaaaaaaa4+.$1paaaaaa5>$",
"000,79999d9fbvvnNVNVLLLLLLJVVNNnnvnhf7:====@@@=@#@X..............o&9mLYLNnvjvjvjgaaag4+.$7mVNnggggagjjjjjggaaaggg4+.$7hvvvvnvh1*",
"0*07kBCCKKPUYYYYYTTTTTTTTTTTYTYYYYILKKVVNNNnnvvvjp<$$$$$$$$$$$$$$$&9BLLJVnvjjjgaaaaag4+.$9mVNnjgjggaggggggggggjjg4+.$7hvgjnnjp1,",
"0**9BYYTRREEEEERERRRREEEERRRRREERTTTTRTTYLYILLLJNh<$,,111111717100*7mLJJNNvvggaaaaaaa4+.$7hbkgiiii44422424ii44ia4;+.$7hjggvvjp1*",
"0**9CYRRREEEEEERRTTTRRRRTYYYYTRETYYTTRTYJVJJJJJVna#o&13pipsssshs70*9mJVNVNnvgaaaaaaaa4+.%071=@++++++X+++X++++++++X .$1sgaagjjh1*",
"0*&9CYRERRRRRRRRTTYYTRRRYIYYYTRRTYYYTYYYJNNNVNNnji+.$1pagjvvnnnh<&&9mJVNVNvjggaaaaagg4+.$00$o......................o$,3ii55php10",
"0*&9CTRRRTTTTTTTTTRRRRERILYYRRRERTTYYYLLYLnvnnjjji+.$1pjnVNVLLVg#o$7mVNNVNvjjjjgaagggi+.$00*&$$$$$$$$$$$$$$$$$&$$$$$*&,11111110*",
"0**9CTEERRTTYYTRRTTRTRRTYIYTTRRRRTTYYLJJILnvnvgagi+.$1pjJLLLYYVa@.$7bVNNNnvvvjjgaagjji+.%0*19ddddddddddddddddddddddddd9999d9971*",
",**dPRERRRTTTTRRRRYYIYYYYRRTYYTYLLYYLJJJVVNnvjaaji+.$1ijJYYYIVv4+.$9bNNnnvvvvjggaaagg4@.&**9BUUUPPPPPPPPPPPPPPPPUPPPPPKKKKKKCb7*",
"***dPERRRRTTTRRRRTLJJLLYRRRYLJIILJLLLLLJVNVNvgaggi+.$1pvLYTYIJvi+.$1skjgiiiii42242244;X.$**dUQEEEEEEEEERERRREEREEEERRRRRRTTTYB7&",
"0**dUETTTTYYTTTRRYLJJLLIRRTYJJJLLLVVJLLJJJNNvjgaa4+.$1svLTTTYLVg@.$,71-++++++++XXX+X+X .$**9PEEEEEEERRRTTYTTRTRRRTTTYTTTRRTYLv;.",
",**dPRTYTTYIYYTTTTILLJJITTTYLJJJIIVVVJJLLJNnvjaag4+.$1snITYYIJVg@.$07<=@@=========@@@@@#,0*dUEERRRERTTTTTTYTTTTTTYIYYTTRRYYIJj@ ",
"***dPERRTYILJLYTTYYLLJJLYTTRTTIIIYIJVVJLLJNnjaaagi+.$1snLYLJNnji+.$7hbvvNNVVNNNNNnvvjjvs1**dPERTTRERTTYYREERYYYTYYLITRRRYILLJj@ ",
"0*&dPEERTYLLLLYTYYYYILILYYYTRTYYRRTIVVVVVNnvgaaggi+.$7snJIVnvjg4+.$9mJLYYYTTYYYYYYYLJVVv6$&dPERTTTRRTTYTEQQEYIIYIIJLYTRYJVJJVj@ ",
",**9PEERILIYYTTYLJYYYYYTTYJJYYYR^^RYJVnvnnvgaaggg4+.$7snJJNvgga2+.$7mLYYYTYYLYYYIIYYVnng#o&dPERRRTTTYYRREQQRLVVJLJJVVJILNNVVVg@ ",
"***dPEERYYYTRTYYLLLITYYYYLJVLIYR((TLJVnvnvvjgagjg4+.$7hNJVnjgag4+.$9BLYYTTYILJYYLJILnjva+.$dPEERRTTTYYRRRRETVnnNVJJVVVVVnnNNNg@ ",
"***dPEERRTRRTYLLYYLLYYJVVJLLJJLYRRYLVNVVJVnvjggjji+.$7hNVVngaggi+.$9CYYTTTYIJVVVVVNnjgji+.$dPERRRRRTYYTRTRTIVNnNNVJJLJVNnnNNna+ ",
",**dPERRRETTYLJLRTLLYYVnnNJLJJIYLJJVNVJJJVNvjjjjj4+.$1shjgai44i2X.$9CYTTYYYLJNNnNNvjgagi+.$dPERTRRRRTTTYYYYLVNNnnVJLILVNNNnnva+ ",
"0*&dPRTTRRYIYYLYRRYYIJNNnNNJLIYLNNNVVJVNNNvjagvvj4+.$07<#@+++++X .$9BYYYILJJVNnvjjjgaag4+.$dPEERTE!~~QTYLIYILVNnnVLYJJVVJVvjg4+ ",
",**dPETYTYLLIYTRRRTYLJVNNNnNIYYLNnnNJVVNnnvgggvvg4+.$0*&o........o$7hnnnjjjjggai424i444;X.$dPEERTR~((~RYIIYIILVNVJLJVNVJLVvga4+ ",
"***dPERYILLLYE!!ERTYJJLLNnnVLYYLVVNVNVJVnvvvjgggg2+.$***$$$$$$$$$$*&#@@=@@@@@+@+X++++++X .$dPERTYR!((~QRRTTYYLJLIIVNnnVJLVvga4+ ",
"***dPRRYYLLYR!))!EYLJJILJNNVLIILJVVVNNVVvjjjgggga4+.$,79979999999d98;==@==@@@=@@@@@@+@++.O$dPRRTYTQ~~~!QETTYILLLYLVNnNJLJNvgg2+ ",
",**dPETYTTYYQ)]])QYLJLIIJJVNVVJJVVVVVVNngiiaagggg4+.$7kBBBBBCCCCCCCCNnNNnnnvvvvvvjjjgaa5>$*dPRRYYYYYQ!!ERYILVVJJJVVNVJJJVNvgg4+ ",
"***dPRTYRRTT!)]])QYJJJIYIJVNnnnNVVVVVVNvai4iiagga4X.$9BLLLLLLYYYYYIYYYYYYYLLLILJVVVNnvva>**9PRRYYILYTRRRYLJJVVJJNnVJLLLJNvjga4+ ",
"0**dPETTERTTE!))!EYLVVIYYLnvjjvvNNVVVVnja44iiiaaa4+.$7BLYILLJLYYJJLIYYYILJLLYLJNNNnnvvji@o&dURTYIYYYYIILLLJJLLJVNNVJLIJVnvjja4+ ",
"0*&dPRRTRRTRRE!QRYYLNVJLLVvggjgjvnNNNNnjaii4iiaaa2+.$9BLLIJJVJJLJJLLIYYIJVJJLLVnnnvvvjg2X.$dPETYYYYYLJVVJJVVLIJVNNVJLLVNnjggg2+ ",
",*&dPRYTRRRTTRRRYLJVVNVVNvjjjjgjjvnnnnnjaii44iaaa4+.$9mLLLVVVVJJLLLIIYYYLJVJJJVNvjvvgga2+.$dUERTYIILLJVVVVNVVJJJJJJJJVNvjjgaa4+ ",
"***dPRTTRRTTTYYLVNVJJJNNnnvjjgjggjjvjvvjgaaaiiaaa4X.$9BLJJJJJJJJIYYYIYYYLLJJVVVNvjvjgag4+.$dPEERYILJJVVNVNNnNVJJLLJVVnvjjggga4+ ",
"***9CTRRRRTTYIJVNNJJLLJVJVnvjgjgjgjjvvjgagjvaaaaa4+.$9BIJJLIIIYILIYYLIYYIIILLJVVNnvjgag4+.$dPERTYYLJVNNNNnnnNVVJLJVNvjgggjjjg4+ ",
",**9KTTRTTTTYLNNVVJLIYILLJNnvjjgjjjjvvjgagvvgaaag4+.$9CYLJLYYYYYLJLLJJLYIYYYLJJNNnvjggji+.$dPERTYYLLVVNNnnvjvnNVVVnvjaaaajjjg2+ ",
"0*&9PRTTRRTYLJVJIIVVLYYLLVnnnvggjvnnnvggggjgaaaagi+.$9CYYLJJIYILJVVVVJJIYYYILJVVNnjggjji+.$dPERTTRYYIJVNnvgggjnNNnjgaaiiiagjg4+ ",
",**dPRTYRRTYJVVJILNNJYYIIJNnnvggjvnNNnjgggaaaaaggi+.$9BYILLJLIJJJVNNVJJLILYLJJVVNvgaggj4+.$dPERTRRTYYLJVnvgiagvnvjaaaai44iaga2+ ",
"***dPRYYRRYYLJVVJNvvVLIYYLJVnvjgggvNnnnjggggaaggg4+.$9BLJJIILLJJLLNNVVJLLLLLJVNNnvjggag4X.$dPERRTYYIVNNNVNjaiajjvjgaaai4iiiaa2+ ",
"0**dPRYYTTYLLJJVnvvvnNLIIILJnvjgggnNNnNngagggggga4X.$9BLJJLLLVVJLLVNNVVJJJJJVNnnvjggaaa4+.$dPRRTYYYIJVNVJVjgggjjjjgaaaiii4iia4+ ",
",**dPTYYLJJJVJIJnvnNvvVJLLLJnvvjgjnnNNNngaagjggga4+.$7mLYLLVVNNNNVVNnnNNNVVVVNnvjggaaaa4+.$dKTYLYYLIYYLVVNnvjgjjggjjaaaiiiiia2+ ",
"***9KTTLVNNNVJJJnnNNvvVVVVVNnjjjjjvnnnNvgaagjjgaa4+.$9mLILLVNnnnnNNNnvnnnNNNnnvjjggaaaa4X.$dKTYIILJLTYLVnnNnjgvjggjjaaagaiiia2+ ",
"00*dKTYLNvvvVNnnJJVNnNJVvjvjgggggjgjnNNvgaaajjgga4+.$9mJLLILVnvnnnvvnnvnNnnnnnnjgaggggg2+.$9KRTTYLVVLLNnnvnnjgjgaagaaagggggga4+ ",
",*&9KTYINvvvnnvnVJNvnnNNjgggggagjgagvvnvgaaaggjgg2+.$7bJJLLLVnvvnvjvnnvvvvvvjjjjgggjjga4+.$9KTTTYLVNJVNnvnnvgagggaaaagggggggg2+ ",
"***9CTYLVNNnvvnNvjjjggjvvjgjjjgjjjgaggggaaaaaaaaa4X.$9vJJLJVNnnvvjjvvvjjjjvjggaggggggaa4+.$9CYJJLJNNVVJVNnnvjgagggaagggaaaaga4+ ",
"&*&9CYYLVVJNnnNnjggjggjjvvjjvjjjvjgaaaaaagaaagaga4+.$7bVJVVNNnvjjjvvvvjgagjjggaggjjjgggi#o$9CYVVVVNNVVVVNvvjjgggggggggagagaga4#.",
"0&&9CYIJVNVVVVnnvjvjvjjvvvjjjjgjjjggggggggggggggg4+.$7mVVNnvvvvvvjvvvvjggjjjggggjjjvggjs>$&9CYLVVNVVNNnnnvjjggggjgggjgggggggjp>$",
"qqqdBLLVNNVVJVnvvnvnvnnnvvjjjvjjjjvjvjjvvjvjjvvvva-$*9bVNnnnnvnnvnnvnvvjjjjjvvjjjvvvvvvk7qq9BLJJNNVNNnnnnvjvjvvjjvvjjvjvjvjvjs70",
"eetzbVVNCNNNVNNCnnNnNnnnnnNBnnnnnnnnnnNBnnnnnnnnnkrwezbNNNnnnnnNnNnnNnnnnnnBnnnnBNNnnNNMzeezMJVNNNVCnNnnnnnnnnnnnnnnnnnnnnnNnk9q",
"ucucZMMMMMMMMMMMMMMMMMMMMMMMMMMMMMMMMMMMMMMMMMMMMZcAucZMMMMMMMMMMMMMMMMMMMMMMMMMMMMMMMMZcuucZMMMMMMMMMMMMMMMMMMMMMMMMMMMMMMMMlxy",
"SSFFDGGGGGGGDcGGGGDcGGGGGGGGGGDcGGGGGGGGGGDcGGGGGDFFSFDDGGGGGGDGGGGGGGGGGGGGGGDcGGcDGGcDFFSSDGGGDcGGGGDcGGGGGGDGGGDGGGGGGGGGcDSS",
"HHHHHHHHHHHHHHHHHHHHHHHHHHHHHHHHHHHHHHHHHHHHHHHHHHHHHHHHHHHHHHHHHHHHHHHHHHHHHHHHHHHHHHHHHHHHHHHHHHHHHHHHHHHHHHHHHHHHHHHHHHHHHHHH"
};
