/* XPM */
static char *darkbluewall[] = {
/* columns rows colors chars-per-pixel */
"128 128 61 1 ",
"  c #000001",
". c #080806",
"X c #00000A",
"o c #000014",
"O c #00001C",
"+ c #181815",
"@ c #15151C",
"# c #18181C",
"$ c #000022",
"% c #0B0B23",
"& c #00002C",
"* c #0D0D2E",
"= c #161622",
"- c #191923",
"; c #13132C",
": c #1C1C2B",
"> c #000033",
", c #0C0C33",
"< c #00003B",
"1 c #0A0A3B",
"2 c #111136",
"3 c #1B1B35",
"4 c #191938",
"5 c #242423",
"6 c #292926",
"7 c #23232B",
"8 c #2B2B2A",
"9 c #31312E",
"0 c #2C2C35",
"q c #23233C",
"w c #2E2E3A",
"e c #353534",
"r c #3B3B37",
"t c #33333C",
"y c #3C3C3B",
"u c #40403F",
"i c #000043",
"p c #080844",
"a c #00004C",
"s c #0A0A4C",
"d c #000054",
"f c #0A0A53",
"g c #00005C",
"h c #0D0D5A",
"j c #212141",
"k c #2B2B43",
"l c #2C2C49",
"z c #000064",
"x c #0E0E63",
"c c #00006B",
"v c #0E0E6E",
"b c #000073",
"n c #00007B",
"m c #434343",
"M c #494949",
"N c #000083",
"B c #00008B",
"V c #000094",
"C c #00009A",
"Z c #0000A2",
"A c #0000B2",
/* pixels */
"rkhzzzzzzzzczzzzzzzzzzzzzzzzzzzzzzzzzzzzzzzzzzzzzzzzzczhkrrkhzzzzzzzzzzzzzzzzzzzzzzzchkrrkhzzzzzzzzzzzzzzzzzzzzczhkkhzzzzzzzchky",
"eqhzzzzzzzzzzzzzczzzzzzzzzzzzzzzzzzczzzzzzzzzzzzgzzggggfq00jhzczzzzzzzzzzzzzzzzgggzgzfj00jhzzzzzzzzzzzzzzzzgzggddfqqhczzzczzzfq9",
"63fzczzzzzzzzzzzzzzzczzzzzzczzzzzzzzzzczzzzzggggggdaaaap1;*1gzzzzzzczzzzzzzzggddddddda1;;1dzzzzzzzzzzzzzzgddda<<<1,1gbccccccza,%",
"+;fzzzzzgzzzggzzzzzzggzzczggzczzzzggggzzzgggdddddaai<<<>$$O>dzzzzzgzzgzzczzggdaaaaaai<$$$>dcccczcczzccccczgddd<>&&$>gbbcccccgi$o",
".Oazzzzzddzgaagzzzzdadzbczdagzzzzgdiidzggaaiiiiiii>>>&>$oXX$dzzzggggddzzzzgdaaaaaaai<&oXXOacbbcbbbcbbbbnbbbbbcdai&o$gbbcggggd<oX",
" Oazzzgddaggddzczggdadzbbzddgzzczgai<idgdaaiiii<i<>&&&&$X  oazzzgggdadgzzzddaaaadaa<>OX  OacnbnbnnbbnnNnnnnNnczda&Xodcbzgddda>X ",
" oazzdaaadggcbbbzggggzccbczzzzzzzgdiiiiadddai<<ii<<<&&&$X  oazgggzzgdagggdaiaaiagd<>&$X  OacbbnnnbccbNNNnbnnczgdi&XOaccczzgd<$X ",
" Oazgaaaiadzbnnbzzzzgzcccbbczgzzzzdaaiiiaddaiiiiiiii>>&$X  Oazgggzggdadddaaiia<ida<&&OX  oaccbnbnbccnnNnbcbczggai&XOagdgzzda<$X ",
" Oazddddaidznnnnnczggggzcbbzdagzzzzgdaiiii<<<iaaaaai<<>$X  Oazgdddddddgdaaaii<>><>>&&$X  oacbnbbccnnnnnbczzgddaa<$Xo<a<iiaa<>OX ",
" oagddgdaadgcbnNnbgddddgcccgaagzzzzzgaiii<&><iaaaaaai<>OX  oazzdaaadggdai<<ii<>>&>&&&$X  OacbnbccbBVNnbcczgddaii>$Xo<a<><<<>>$X ",
" oazdaaagggggznnNbzdaadgzzdaddggzzzgaiaaai>&<iaaaaaai<>$X  oaczgdaggzgai>>>>&><i<>&&&$X  OacnnccnBZZVnccbbcgga<><&Xoida<>>&>&$X ",
" oazdapagzgddgcbncgdiiagzdiiddggzgzdiiaaai>><<iaaaaii<>$X  Oazzzgdgzgdi<&&>>><aai<>>&$X  oacbbccnBCCBnccbbczda<><&Xoidai>&&&&$X ",
" oazgdddgzzgaagzczgdiidggdiidggdgdaiiiaaaai>>><iiiiii<>OX  oaczzzgdddai<&&iiiaai>><>&$X  OacbbbbcbNBNbczzcczdi<<>$Xoida<>&&&&$X ",
" Oazggggzzcgaiddgggaiadggdaaaddggdaiiiiiaii>&&><<<><><>$X  Oazzzggaaaaii<<iaaaai>&<<>$X  oazcbnnccbbnbczzccza<<<>$XOidi<&&&>&$X ",
" Oazzzggzzzzzdaadgai<idgdddadaggdddii<iii<>&$$$$&&&$$$&$X  Oaczzgaiiaaaiiiiiaai<>&&>&$X  Oaccbnnbcccbbcccccga<>><&Xoid<&&&&&&$X ",
" oazzgddgzzzzgaiddi<iiadgggdaadddaaii<iii<>&$OO$&$OOO$&OX  oazzgdaiiiiaaddaiaii<>>&&&$X  oaccbnnbczccbbccccga<>><&oX><&$O$O$$oX ",
" Oazzdaadgzzzgaaddiiiaiadggdiiaai<<<<<iai<&$$OOO&$OOOOOOX  Oazzdaaai<<idgggdai>><>>&&$X  oaccbNNbccbbbczczzzda>&&$XXXoXX XXX X  ",
" oazgdiidgzzzgaadaiaaaiaaddaiiai>>&&&>iii<<&$OO$$&&$$OOoX  Oazgdaaii>>idgzzdi>>&<<&&&$X  OacbbnNbcbbbbczgzggga>&&$X ooOOoOOOooX ",
" oazdaaaadggaaiiiaddddaaiiiii<ii<&$O$&><<i<<&$OO&&>>$OOo   oazdaai<><<<iadda<>&&&>&&&$X  oazcbnncccccczzddggdi>&&OXX>idddddda<X ",
" Oagaaaaddggiiiiiidggddaiiiiiii<<&$OOO&><i<>>&&&&><>&OOOX  Oagdaai>>><iaaaii>&&&&&&&&$X  Oacbbnbcccccczzdaddai>&&$Xoizbbbcbbcao ",
" oigaiaaggddaiaaiadgdgddai<iiai<>>$OOO$&<<>><<<><<>&&&&OX  oigdaii<<><iaai<><<&&&&&&&$X  oaccbnnnbccbbzgdaaaa<>&&$Xoazcczzccg<o ",
" oidaiadgdaaadaaaadddggddaiiaii<<>$OOOO$><>><i<ii<>&&&&$X  oiddii<<<>>iiaa>&>>>&&&&&&OX  Oaccbnnnnczbbzgdddai<>&&$Xoazccggcza>o ",
" oidaaddaiiaggdaaaiadggdaaiiiii<<>$OOOOO&><<<iiii<>&&&&$X  oigdai<>><<><ii>&>>&&&&&&$oX  oaccbnnnnbcczgdggddi<>&&$Xoizzgddgdi$X ",
" oidaadda<<idgdaaa<iadaaaii<<<<ii<$OOOO$$><<<<<<<<&$$&&OX  oidaii<>><<>>i<>$&$&&&&&&$oX  oacbbnnnbbczgdagggai<>&&$Xoigzzdadi>OX ",
" oidiidda<><adaaii>>ii<<i<>>&><ii<&$OOOO&&&>>>&>>&$$O$$OX  oidaiaii<i<<<>&$$$$&&&&$$&OX  Oaccbnnnnczggddaaaaii<<>OXoigzzga<>&$X ",
" oidaaadi<>><iii<>>>>>>><<>&&>><<<>&$OO$&&&&&&&&&$$OOOOoX  oidaiii<<<ii<>&OOO$$&&$OO$OX  oazbbbnnbzgggdaaiaii<i<>OXo<gggda>&&$X ",
" oigddaii<<<>>>>>&&&>>><>&&&&&>>&&&&&$&&&&&&&&&&$OOOOO&OX  o<dai<>>><ii<>$OOOOO$&&$OOOX  oacccccnbgddddddaiiii<<>OXo<ddda<>&&$X ",
" oigdaaii<<>>&&&>>&&&&<<&&&&&&$&&&&&&&&&&&&$&&&$$OOOO$$$X  o<aii>>&>><<<>&$$OOOO$$$$OoX  oacbcccbbzdddddddi<<ii<>$XX<aii<<>&&$X ",
" oidaada<>>>&&&><>>&&&>>&&&&&&$$&&$OO$&&&&$$&&$$&$OOOO$OX  o<a<>ii>&>>>&&&&$$OOO$$$&Oo   oizbncbnnbcgdggdi<><ii<>OXo>i<>>>&&&$X ",
" o><>><<$OO$$$O$&&$OOO$O$$$O$OoOOOOooOO$OOoOOOOoO$oooOoXX  X&>&&>>$$$$$$$$$OOooooo$OOoX  o<zbnbbbbbcddggdi>&><<>&$XX$&$$O$OO$oX ",
" XXooXooXXXXXXXXXXXXXXXXXXXXXXXXXXXXXXXXXXXXXXXXXXXXXXXX   XXoXXooXXXXXXXXXXXXXXXXXXXX   oizbnbbcczggddaai>$$&&>&$X XXXXXXXXXX  ",
"ooOOOOooOOoooooOoOoOOoOooooOoXX                                                          oizbnbczgzgddaaai<&$O$&&OX XXo$OO$OO$O$",
"aagggdaaddaaaaaaaaaaddaaaaaaa<o                                                          oizcnnbzzccdidaii<>$OO$$oXXo>dczczzzczc",
"cbbnbczcccccccczzzzccczgzzzzzao     XXXooooooooooOOooXoXXXXX          XXXXoooOoooooXXXXX oigcbbbzzccdaggdii<&OOOOo X$anBBBVVBBBB",
"bnbbczgzzcnbbczzgdzcczadgzzgd>o    Xo$&><<>><iiiaaai>&>&$$$OX        XO$$&<iiiaa<<>&$$$OXoizbnbbbczgdgbngai<&$$OOoXX>dnBBBCCNNNB",
"nnbczggdgzcbczzgaagzzdaidggda>X   Xo&<iadgaadggzzcczdaii>&&$XXXXXX   X$>><dgdgggaaii>>&$Xoizcbbcnbcggzbbgdi<>$$OOoXo<znBBCZZVNNN",
"Nnbcgggddddddggdiadggdiiaadgd<o  Xo$>iaddgddgggzccczzgai>&&$$$OOOOX  X$>idggaaadaiaai>>$Xoiggzzcbbbcggzgaii<>&OOOo oicnVCZAAZVnb",
"nbbzgdgdddaaaaddaiadgdi<<iaddio  X&<iadggggggzzczzzgzga<>&&&&$$$&OX  X$<dzgdi<ii<iiii<>$XX<ggzzcbbnbzdddi<<<>&$OOoXoabNBCZAAZBNb",
"bbczgggzggaaaaaaadiaddiiiiiai>o  o<ddddgcczzccczdaddgd<>&&&&$$&$$oX  X&iggdi<>>><<>>>><&Xo<dzcccbnbcgddai<>><>&&&OXOacNBVVZZBnNN",
"cczgggzcczdaaaaaddaadaaii<<ii>X  oaggggzzzzccccgi<iidi>&&&&&$$$&$OX  o>aggai>&&><>&&$&<&Xo>gcbbbnbbcgddii<>><<>>&OXoabNNBBVBbbnN",
"zzdddgzbbcdaiiiiaddaaidai<<ii&X  odcggzzggccczdi>>>>ii>&&&&&&$$$>&X  X<addgdi>&&>&$$O$&$XX<gbnbbbbczgdaai<<<>><>>OXodbNBBNNbccbb",
"zzdddgzbbbgii<iiiaadaaddaii<i>o  Odczzccggzccga<>&&><>>&&&$&&&$$>>o  o>aaggga<>&&$OOO$$$Xo>dcbbccczggdaai<i<>><<>OXOdnNBBNbccccc",
"zzggddgzbcda<iaiiiiadggdaaiii&o  Oaczzcbzzccczgi>&><>&&$$O$$&&&&>$X  X$idggdai>&&&OOOO$o X>azczzczzzdaiiiiai<<>&&$XOgNNBNNbbnncc",
"czzgaaagzzgaaaiaiiiazzgddai<i>X XOaczccbbcccccga<><<>&&&OOO$$$&>&$X  XO<adaia<>&&&$$O$$OXo&agzzzzzggai<iiiaaii>>&OXOgnBBNNbnnncz",
"czgaaiadggggdaaiiiaggzzgddiii>XXo>dccbccccnncgdai>>&&&&&$OOOO$&&&$X  X$&><>>>>>&&&$&&&$OXX&idgzzzgda<><iiaaaai<<>$XOdnNNnnnnnbzz",
"bcgaiiddgzzzgaaiiiddgzzzgda<<&oXO<dzcccczzcbgdaii>>&>&&$$OOOO$$&&$X  XO$OO$O$$OO$$$$$$$OXo&adggzczdi>><iiaaaaai<>OXOdbNNbcbbcccc",
"bczdaazcccczaaaddaaaddzzzga<>$XXO<dgzczzddddaadi<&&><>>&&$OOO$$&&$X   XXXXXXXXXXXXXXXXXX X&adggzbca<<<>>iiaaiii<>OXodnNNbcczgzcb",
"ccczddzccbbzdidggdiiiadggdi<&OXX$<aggzzgdiiiaaa<&&&&<<>>&&&$$$&>&$XXooooOOOOoooooooooX   o>addggccdii<&&>iiai<<>&OXodnNNnbczzcnN",
"bcbzgddgcbccddgggdiii<<<iai<>$XXO<dgzzdaiiaaaa<&&&&&&>ai>&>>&&><>$XX<aaddgggdaaaiiii<&X  o<gdggzggdai<>&>>iii<&$$oXoabnNNnbcnnNB",
"bbczgdadzcczddaadaaii<&><<<<>$XX$>agggaaadggdi<&&&&>>iggi<ii>><>>OXOaccbnNnbzzzgdddda<o  oigzzczgggdi<>&&&><<>$OOoXoabNBNNnnNNNN",
"cbczdaiiadddai<<<aaai<>&<iiii&XX$>dddaiagzzggai>&>><idbbcgai>&>>&$Xoacbnnncczgda<<aaa>o  oizcbbczzgdii<<>&&>>&$OOo oacNNnnnNNNnb",
"cczgaaiiaddai<>>iadai<>><<<ii&oXO<addiiagcczgdai<>iiagnnczdi>&&&>$Xoacbbnbcgddii<<ii<&X  oizbnbcczzdaii<>&&>&&$$Oo OacNNnnNNnbcc",
"czgdaiidzzgaiiiiada<>><>>><ii>XXO<aaaaiidzczgdddiiiadgbbgdiii>&>>&Xoazzzzczzdi<<da<>>$X  oicnnbbbbzgddai>&<<<<&$$o OacNBNNBNnccz",
"zzgdaaddzzddaaaadai<&>><&&><<&XXO&<aaiiadcnncgddddddddzzdi<ii<>&<>ooazgggzgddi<idd<&&$X  Oacbbcbnnczgdai>&<ii<>&$oXoicnBBNBnbczc",
"ccggzzgdggaagzdaaii<>&>>&&$&&$X Xo>iiiidzbVVnzddgggaiadgdi<>ii>><>Xoaczggdaaaadgda>&&$X  Oacbbccnbczgda<&><<i<<<&OXo<znBBBBNbbcb",
"ccggzzddddadzcgdiii<>&&&>&$$&$X  X>i<iadznCCnzddgzggaaddda>>i<<><&XOazzzggaidddda<<>&$X  oaccczzbbzggdii>><<<ii<>$XX<gnNNNBNnbcc",
"zzdaddaiiagccccgdii<<<&>><&&&$X  X>iiiiddcnnczzzggzzggdadai<><<<>$XOazzzzgddggi>>>ii>OX  Oaczzggzzddgdaii>>><ii<>$Xo<gnNnnNNNnbz",
"zzdaaa<iiazcbcbcdaiii>&&>>>&&$X  o&iiiadggzzzzggggzzggdddai>&&>>&OXoacccczzggd>&&><i>$X  oaczzggggaaadaai<>&><<>&OXX>gnNnnNBNncc",
"zzgdai<iaddgcbbcgdai<&$$$&&&&$X  X>iaadgzgdgzzgdgccgiiggi>>&&&&$$oXoacnnbczgda>&&&>>&$X  oazggzgddiiiiiii<&&$$$$&$Xo<gnNNNnnnbcc",
"zggddaaaddadzzcczddi>$OOO$$$&OX  o&<iaddggaaggddgzcziigd<&&&&&$OOo Oacnnbccgdi>&&&&&&$X  Oazggzzdaaiii<<<>>&$OO$$OXX<gnBBNnbcccb",
"gdddddddaaiidggggdai>&$OOO$$$oX  X$<<iiagdaidgggggzczdi<&&&&<>$OOo oazzccczzdi>&&&&&&$X  oazgzbbzgddai>>>&&$$OOO$OXX<gnBBNnczgzc",
"gdadddddaaiiiaddddai>&$$OOOOOOX  X$><<iidaiiaggzggdgzgi>&&>><>$$OOXOazggzccgdi&&&&&&&$X  Oazgzbbccgddi<&&&>&&$OOOo o>gnBNNbbzggz",
"gddaaaaiaaaaiiaaiiii<<&$OOOO$$X  X$&>>iiiiiiiadgzgi<aadi>&<<>&&$&OXoazgggzzga<>&&&&&&$X  Oazzzbbbbcgda<>&><<>>$OOoXX<gnNnnnnbzgg",
"ddaadaaiiiaiiiiii<ii<<>$$$O$&OX  XOO$$><<<<<<iadda>>>iai>>><>&&&$oXoazgdgggai<>&&&&&&$X  Oazzzcbnbcgdaai>><<<<$OOoXo<gnNbbNNbzgd",
"gddaggda<<<ii<>><i<<>>&&$&$&$oX   XXXo$>>>>&>>><<>>&>><>>&>>&&&$oX oazggzdi>>><>&&&&&$X  Oazzzcbbbczggda<>>><<&$$o o>gnNnbNnzdaa",
"gddgggga<><i<<>><<<<>&&&&&&$$oX      XOO$$OO$$OO$$OOO$OOO$OO$$$OX  Oazzggd<&&>><>&&&&$X  oacccbbcczzzzgdai<><<>&$OXX<gnNnnncgaaa",
"dgggggdaiii<>><<>&>><>>&&&$$&OX       XXXXXXXXXXXXXXXXXXXXXXXXX    oazzggai>>&>&&&&&&$X  Oacbbnbczgggggdddii>&&&&OXX<gnNNnzdddda",
"ddgzgddaaai<>><<>>&&<<&&&&$$&OX     XXXXXXXXXXXXXXXXXXXXXXXXXXXX   Oazzgaa<<>&&>>&&&&$X  oacnNnbcggddddggddi<&&&&OXo>dnBNnzggdda",
"iagggdaaiii<<<<<<>>&&>&&&&&$$OX    XO$$$O$O$$$O$OO$$$$$O$$$O$$$OX  oazdddi<&&>><<<&&&$X  oacnnnncggdaadggddai>&&&$XX$ibBnbnbggdd",
"<iddgdai<<<ii<iii<>&&$&&&$$&$OX    X$&&&&>><>>>>><>>>>>>>&&&&>&$X  Oazddai>>&&<ii<>>&$X  Oacbbnbzzzdiiaaddai<<>>&$XXOibNnbnbzdgd",
"<iaaaai<>><iii<ii<&&$$&$$O$$&OX    X$&&>>iaada<iaaaiiii<<<>&&&&$X  Oazzgdi<>&><ii<<<>$X  Oazzznbzzcca<><aaa<>>><>$XXOibNbczzgdda",
"iiaaai<<>><<<ii<i<>$$$&&$OO$$OX    X$&>>iadgddaaadaiaa<<<<>>&&&$X  oazcgaaa<>&<<i<i<>OX  oazgzcbzzbcdi>>ii<<>><<>OXX$icNncggddaa",
"<iai<>>><>>><iiii<>&&$&&$OOO$OX    X$>>iadgddddaai<<ia<&&<i<>&&$X  Oazzgaida>&&><ii<>OX  Oazzzzccczgdai<ii>>><>&&$XXOizbbcgddaaa",
"iiai<&&&<<>&<<<<<>&&&&&$OOOOOoX    XO>iadddaadddi>>>i<>&&&<<>&&$X  Oazcgaadd<&&>>ii<>$X  Oazcczzczgddaii<>>><<>>&OXX$<zbczgdaada",
"<idai>&><<>&&>>&>&$$&&&&$OOOOoX    X$>addi<<agga<>ii>>&&$$$&&&&$X  oaczzgdzdi<&&&>i<>$X  oacbbczzggai><<>><>>>><>OXXO<gczgddddaa",
"iiddai<><<>&&&&&&$$$&&&$OO$$OoX    X$<adai<<adda<<i<<>&$OOOO$&&$X  Oazzzggzga<>>&>>>>OX  Oacnbzzggga>&<<>&<<>><<>$XXOizcgddaddda",
"iiaadaa<>><>&&&&&&&&&&$OO$$$OoX    XO<ddaiaaaiiiaa<>i<>&$OOOO$&$X  Oazzggzggaa<<&&>>&$X  Oacnbzggzga>&>&&&&><<>&&$XX$<zcgddggdaa",
"iiaddddi>><<>>&&&&&&$&$OO$$&OoX    X$>adaaddii<iai>><i>$$$OOO$$$X  oazggggddaii>&&$&&$X  oacbbzdggda<>&&&$&&><&&&OXXO<gcgggddddd",
"iiddddii>&>><<>&&&&&$$$&$O$$OO     X$>idddgdi<>>>>>&>>&&&$OOO$&$X  Oazzggaiii<>&$$$$&$X  oizccggggai<<&$$O$$&>&&$o X$<dzgggdaadd",
">><i<>>&$$$$&&$$O$$OoOOOoooooXX    X$>iddddai<>&&&&&&&&&&&$O$$&$X  oazzgdiii<<&&OOO$$OX  oigcczddai<<<>&$OOO$&&&$oXXo&<iiiii>><i",
"XoooooXXXXXXXXXXXXXX XXXX X X      XO<agdaai>>&&&&&&&&&&&&&&&&&$X  oigggaii<>>&&OOOO$oX  oigzcgdai>><<>&OOOOO$&&&OX XXoXooooXXoo",
"            XXXXXXXXXXXoXoXXXXXXXXXXO&<<<>&&$$O$O$$$$$$$$$$O$$$oX  oiggdi<<>&&&$$OOOOoX  oidgdda<>>><<&$$$OOO$$>&$X   XXXXXXXXX ",
"           Xo$O$$O$$><<<<>>&$OO$O$$OXXXooXXXXXXXXXXXXXXXXXXXXXXX   oigzga<>>&&&&&$$OOoX  o<dai<>>>&&&>&&&$OOOO$&&$X  XO$O$OO$oX ",
"   XooooOOO$<i<i<iiidggdggdaiii<ii<>$OOOOoOOooooXXX                oigzdi<>&>>&>&&$$$oX  o<ai<>&&&&&$&&&&&$O$$&&&OX  X$&&>>>&$X ",
"   X>aaaddgzzcczzccccbbbbccbccccczzggddddaaaiii<>$X                oiggdi<>&><<<&&$&&OX  o<ai<>&&&&&$$&&$$O$$&&&$OX  X$&&&><>$X ",
"   oizcbbnnnnNNnnnnbnnnnbnnbnbnnnbbcbbbczggggdgdi&o   XXXXXXXXXX   oigdaa<>&<ii<>>&&&OX  X&>>&$$$$$OooO$ooooO$$$ooX  X$&&><<>$X ",
"   OacbnnnnNnnnnnbccbbnbbccccbnnbczccbbzdaaddddi<$X  XO$$$$OO$$OX  oidaaa<>><ii<<<>&&$X  XXoooXXXXXXXXXXXXXXXXXXXX   X$&&>>>&$X ",
"   oacbnnnbnnnbnbcccbbnncczzzcbnccczccczdadaaia<>$X  X$>>>><<<>&X  oidiiai>>><<ii<>&&$X                              Xo$$OO$$oX ",
"   oacbnbbbccccbbbbnnnnNNnccbnnnnbccczdggzggi<>>&$X  X$>iaiagga&X  o<aiiai>&&><ii<>&&$X                                XXXXX X  ",
"   OabnnbbbcccccccbbbnnNNnccbbbnbbcczgadzccgdi<>&$X  XO<dgggzga&o  o<aiiii>&&><<<>>&&$X    XOOOOOOO$OO$O$OOO$OOOOOO$OOOOoOOOOXX ",
"   OgnnnnbbbccbczgzzcnNNNnnczzccggzzdaiazzzzgda<>$X  XO<dzczzd<$X  X>iii<>&&&&&>>>&&&$X    oizzgzggggggzggzggzgzzgggzggddddda<X ",
"   OznnnnbbcbcbcgddgzbnNNnNbggzzddgdaiiidzzczzdi>$X  X$<gccczdi$X  X$>&&$O$$$$OOOO$$$oX    OgNNNnNNnnnnnnnnnnnnnnnnnnbbbbbbbzao ",
"   OgnbccbcccbbcggdggznnnnNngadgggai>><iddzzcgdi>$X  X$<gbbczga>o   XXXXXXXXXXXXXXXXX      OzNnnnNnnnbbbccccbbbbbbcccccbnbczg<o ",
"   OznccbcccbbbcgggddzcbbnNnzdddzgai>><iiaggdda<>$X  X$<zcczgda>o  XXoooooOOooOoOoooooooX  $gnnnnnnbbbcczzzzccbbbczzccbbbbcgd<o ",
"   OgnnbbbnNNnbczzgdggzczcnnbczggzgdi<>><aaa>&&$&$X  X$<gzgai<<$X  X&<iiaaddaaaaaai<<<<&X  Ognbbbbnnbcczggzzzcbcczgzcnnbcgggd>o ",
"   $gNnnccNBBNnczgggggzzgzzbbbcccbcga<>>><i<$OO$$OX  X$<dga<&&&$X  o<dgzzccczzcczzzgaii>X  Oznnbbbnbbcczzgzzzzcczgdgcbbcdadda>o ",
"   $gNnbzznBBNNbgdgzzzccczddzczbNNbzda>&&>>&$OOO$oX  XO<dd<>&&&$X  oigzzccczgzcczzcgi>>$X  Oznnnbcbbccbbbczgzzcczgdaadgdi<aai>X ",
"   OgNNbzcnBBBBnzggzzccccgaaggzcNNcgda<><>>&$OOOOoX  XO<aa>&&&&$X  oizzccbzzgggzddzd<&&$X  Ognnnbbbczcbnnbzgzcccgdaaaaaa<>iai&X ",
"   OgnnnbnnNNBBNbcdgzccgdagdddgcbczdaaadaai>$OOOOoX  X$<aa>&&&&$X  oazccbczgdaadda<<>&&$X  $gnbbnbbczzcbbcczccczggdggda<<<i<<$XX",
"   OznnnnnbbnNnNNbgdzczgaazzgdgzgddaaiaddai>$OOOOOX  XO$>>&$$$$OX  oaccbcczgdi<<i<>&&&&$X  OgNbbbnbccccccczzczzgddggzdaiii<<&OX ",
"   Ognbcnbczccccnbczzgggdgbbzzzdi<<adaaiii>>&$$OOoX   XXoXXXXXXX   oazzzgddda<>>>>&&&&&$X  Ognnnbbbczzzzggzzzggdddgzddaada<>&$X ",
"   Ognccbcggzccbnnbzgddgdgccczzg<><iadai<<>&>&$OOoX                o>iai<><>>&$$$O$$$O$OX  Oznnnbccczzzzzzzzgggdddgdaiadda>&&$X ",
"   $gnbczgggcnnnnnczddggdddgzzzgi<<iiaaa<><<<>&&&OX                 XooooooXXXXXXXXXXXXX   Oznnbczzzggggcbcczgggzzdi><agga>&&$X ",
"   OgnbczggzbNVBNbcgddgzdaaaggggdii<<iaa>&<ii<>>&$X   oooooooOOOOOoOOoooooooooooXooXXXXX   $gnbcczzggggzbbbcggggzga<<<ddda>&>$X ",
"   OgnccbczcnBZZVnzddggzgdaaaaddgda<><ii>&<<<i<<>$X  X>iiiiiaaaaaaaaaaaaaai<iiii<<<>$$$OX  Oznbczzggggzccczgaaddaaaaaagdai>&<&X ",
"   OgnccnbccnVZZBnzdddzzgdaaiiadgdi<>><>>><ii<i<>$X  Oizgggggzzzzgzzzczzzzggggddaaa<>&&$X  Ognbczzggggzzzggaaadaiiiagggai>>><&X ",
"   OznbbnnccnNBVBncgaagzzgdaadddaii<<<>&&&<iiii<>$X  oigzgggdgzzddggzczzddggzgdiii>>&&&$X  Oznczzzczgddggdddggdaiiadggda<><<>$X ",
"   $gncbnbczbnNnbczdaaggzgddggddai<i<<>&>>><<<<<&$X  oigzzddaaggddggzzzzdaddgda<<<>>>>&$X  $gnbzzzcczdaaddaaggdaaiadgga<>><<>$X ",
"   Oznccbbcccbncgdddaadgggdgdggdai>><<&>><>&&>>&&$X  oigggdaaaadggzgzzczgdaddaai>>><<>>$X  OgNnbczgggdaaaaiiddddddddda<><<<<>$X ",
"   Ogbbcbbzzcczgaaadadgggdgddddda<>><<>><<>>&&&&&$X  oigdddddddggzzzzzccggddadai<><ii<>$X  Ognnbcggdddaaaii<iaddgddda<>&<<<<>$X ",
"   oabbbczggzzdaiaggddgzgdddaaaa<><<>><>>><>>&&&&$X  oagddgggzzzzgzzggzzzzgggdaa<<iii<>OX  Oznncczgdaiiiii>><aadgdai<&&&&>>><&o ",
"   Odcbbcczgzdiiiagdaagzgggd<<<<>><<>><<>>><&&&&&$X  Oazddgzzzczgdgggggzzzzzgdaaii<<<>>$X  $gnbcczggaiii<>&><<iaaai<>&&>&$&&<&X ",
"   Ogbccbbczgaadzzaaiagzzzga&$$>><ii<<>>><>>&&&&&$X  oazzgdggzzgdaaaaddgzzzzgdaai<>&>>>$X  Ognbbbbccggai>&&&&>iiiii<>&<>$$O$>&X ",
"   Oznczbnbcdaadggi<iaddggdi&oO$><<i<<>><>&&&>>&&$X  Oazggddgzdddaiiaadgzzzggdaii>>&&&&OX  Oznnbbbbzzddi<>>>&>><ii<<>><>$OO$$OX ",
"   Ognccnnczgdaaai>>ii<<ii<>$OOO$&<<ii<<>&&><<<>>$X  oigddggggddgdiiiddggggddaa<>>&&&&&$X  Oznnnbcczaiiiaai>>&&><ii<<<>&$OOOOoX ",
"   $gbczcczgdddaai><<i<><>>&$OOOO$>ii<i<>>&><ii<>OX  oidddggddaagdaiiaadddddaai<>&&&&&&$X  Ognbczzzgdaiadai<>&>><<<i<<>&$OOOOoX ",
"   Odbczgdddddgggda<><i<>><>&$$OO$<i<i<iii>><ii<>OX  oigzgdaaiiiiaai<>iiiaaaiii<<<&&&&&$X  Odbzzzzgzccgdaii<&>><>><<>><>&$$OOoX ",
"   Odbcgaiiiidgzzzda><ia>><<>&$OO&>iii<iii&&>><<>$X  oigzggai<<<<iii>><<<iia<<<ii<>>&&&$X  Odczzzgdgccgi<<i<>>>>&&><>><<>&$O$OX ",
"   Odbcd<>><idggzggaiiddi<>><<&&$&<ii<iii<&$$&&>&$X  o<dgggga<>><<>><>>><ii<>><ii<<>>&&$X  Ogbbbcgaagdi>&><<>$$$$$&><<>><<&&&OX ",
"   Odccg<>>>iidgzzgdiiaai<>>>>>&>><i<<<i<>$OOO$&&$X  o<adgzdi<>&<<>><<>><i<<>><<i<i<&&&$X  Odcbczdaida<>>><<>&$OOO$><<&&><&&&$X ",
"   oaczgaii<<<idgggdaiiii<<<>&&>><i<>><<>&$OOOO$&$X  o>ddgdai<>&&><>>><<i<>><<>><<>>&&&$X  odzddgdiiadaa<<>><>$OOO$$&>&&>&&&&$X ",
"..X$dzzgaaaa<>iiaada<<<iiii<>&&><ii<>><>&&$OOOO$&$oXXO<adaiii<&&&&<<&&<<<<>><>>&<>>&&&>$oXX$agaadaaiiadai<>><>&$OOO$&&&&&&&>&$XX",
"#@O>dzzdaiadda<>><ii>><ii<i<>&&&<ii<&&&>&&&$$OOO$&$O$&iaai<><<>&&&>&&&&>&><>>>&&&>&>&>&&$OO>dzgaaiaiiiii>><<>>&$OOOO$&&&&&&&>$Oo",
"5-;,dzdai<iaai>>&&><&>><<<<>&&&&><1,&**%&%*%O@O$&&***,iai<>><>>&&&&&&&&&&><<>&&%*&%%%%%&***1dgda<<ii<><<&><>&&&$$OO$&&&%%&*%%%%%",
"8874fda<>>ii<<<<&&&&&&&&&>>&&&&&>&;-====--==###=&%;773piai<>>&&&&&&&&&&&>>>>>&=--=#===-5:774saa<>&>>>>&>><>&&&&&&$&&&%*--=-#=-:7",
"889qfgdaiiddiidda<<i<ii<,**,,*;*;;766888888899872;0e9qsdgddaii<<<ii<i<**2124247888888889899qsddaii<<i<<iai<<<>,,*,*;*;7668868889",
"errkhcccccbcccbbccccccchj0000w0000rrrrerymuyuukye0eeekhcbbbcczcccczcchj000ekktymuuuuyukureewhccccccczcczzgdgdsj00w000erurruuuure",
"errlxbnNNnnnNnnnnNnnnNnvlyryeyerryuuMkmmMMMMMMMmyrerrkxnnnnnNnNnnnNnNvlrrruummMmMMMMMMMmyrelxbnNnnnNnNnnczzzchkrrerrrrukmmMMMMkr"
};
