/* XPM */
static char *texture_z_13[] = {
/* columns rows colors chars-per-pixel */
"64 64 52 1 ",
"  c #7F6FE7",
". c #7E6DE9",
"X c #6F73E4",
"o c #6D7EE7",
"O c #6D7EE9",
"+ c #7574E3",
"@ c #7E73E7",
"# c #747DE6",
"$ c #7879E5",
"% c #7E73E8",
"& c #737EE8",
"* c #7E7EF6",
"= c #7E7EF8",
"- c #816FE7",
"; c #8D6FE0",
": c #816DE9",
"> c #8374E6",
", c #8B74E2",
"< c #8678E2",
"1 c #8B7EE7",
"2 c #8173E9",
"3 c #8078E8",
"4 c #8C7EE8",
"5 c #937FE7",
"6 c #927EE8",
"7 c #817EF6",
"8 c #817EF8",
"9 c #6C81E7",
"0 c #6F8AE2",
"q c #6D81E9",
"w c #7381E6",
"e c #7987E3",
"r c #748AE3",
"t c #7E8CE7",
"y c #7381E8",
"u c #7E8DE8",
"i c #7F92E7",
"p c #7E93E8",
"a c #7E81F6",
"s c #7E81F8",
"d c #8787E3",
"f c #8B81E6",
"g c #818CE7",
"h c #8A8AE3",
"j c #8C81E8",
"k c #818CE8",
"l c #9280E7",
"z c #9281E9",
"x c #8091E7",
"c c #8192E9",
"v c #8181F6",
"b c #8181F8",
/* pixels */
"+.:.:::>+::.::.,+...::..::.2...,+.::.:.-+::.::.;+...%..2::..:..;",
"o*7*8*b1&bv*b*sjy**bbasa877vs*8jya=*=*71ya7b8=*j&=8=7ava*77*8*=6",
"9v777v81&87*8==1#7avv7vabav*=av1&*a**v7j&va*=asf#78=777*saa*7*v6",
"9*7av**jw77av=s1#v77va**v7**v*=jy7*a77v4w7vav7afwv=*7vv**a**77b6",
"Osvvaav4y*a77*=1#v7v7**7*7va*8a1#**aavvjyv7*v7=jyb*av77***aavvv6",
"Oa*7*a71&va*77*1#7vv7a**8vv**7*1#777vavjyvva*7a1&7a7aa*a=7aa*8*6",
"9a*77v*1#7a*v**1yv7*7**avvv*aa*fy*vv77a1&vaasv71wvv7**7a*77*av76",
"9aa*7vaf#7*a7avjeggtggtgkkkkkutdyvv777*1#7a***84ekkktktttkgtgggh",
"Oaaab*bjwa7aavbj$@@%2%2%2%%2%%%<ya7*778j#77*a*84+@>:2%2%32@2%%2,",
"O7aas7v4yaa77784#v*7b7=7v8*7===j#**asabjy7*8*a74&s*vbv*av*7vva=z",
"O87a7a71y**a7*84#7va***7777**=*1y77vvaa1wa*7***1#avv77****77**sz",
"O77*77*1w7ava*b1#7vaavva*7va7*af97777as1wvaa*aa1#vv*vvaaaa*7v*7z",
"Ovv*v7*f#*7**vv1yvv*aa77vvva7aa1yavvvvaf&77***a1w78vv7**aaaa7**6",
"9a**7**1#vvav**1#777**va87**77*fwavvv7af#7aa*7afw78=*aavvaaa77*l",
"9aa**7vf#77aa*af#778aa7*77aavvajwaa87*7fy777**vfyvvvavavvaaaa7vl",
"ruptiggdeggttithrtggtttugguuuuuhettgtggfegtkttghrgkgkktkuktttggh",
"+%%%%%%%>>2%22%<#@@@>%2<$@@222%<#%%%22@.>2%%22@<+2>%2%2<$22%%%%,",
"&b*=sbsabv8=bb=jyvaab*81ya7bbbs4&aas8**a8*7ab7=4#vvbb*bjy8*=s=8z",
"O7*7a*asv*7*b771y7aaaa84&av78771&***s*7*=*va7*bfwvaaa*b4&s=*=abz",
"O7777aaaaavva*=jy77a*a84#7**7**4&7va*aavvvvaa77f&77*7*84y==a7asz",
"9*77*va77=7*7*sj#aa*7*a1#va*7=8j&*8aavaaa87*7a84&87*77a4#***77=6",
"oa7777*a7*aa8*71w7****71#7aav7vj&7*77vaaaa7*avv1#7*777*1&7aaa7a6",
"9*7788v*7*7ava71yvaaavvfwv777va1#77vvvaa**77vavfw*av*7afyva*vaal",
"0gggggetggktkukhyvaaavvfy7*7v7=1rggguuuutktgguxdyvvva7vfw7*7v7s6",
"X@@->2%%@22%@ @,y***7vb4&vavv7=j+>>>2%2%@3@%%22>yav*ba*1#vavv**6",
"9aavv*=*vvvsaaa4&=**vv74&8aba*7jy7av88ss7*aasvs4&vvaba*1#77vaaa6",
"ovvv***v777***71&7=*av*j#7v***71#*7777==**7*77*fyv*7*7*f&78*7**6",
"9vva**77*7*7**7f#77vvavjyv7*7771ya777*=**avavvaj&7**7**1#787v7*l",
"97=****7*77*7aaf#avv777jya*7**v6yvv*777*sa7*77*1#77aa**1#v*7**76",
"9v*saaavv*v*77*fyv77*774y*avavvfya**7778a*aa***fyv7va*afwv*vaa*5",
"ysavaaavv*aa77v1y*v7v774yaavaavfw**7*7v87*7aav7fw778**7fwv*7*v*5",
"ruuuttitttggiggdrgtgttgdettgtuthrtggtgggtgkuutgdrgkgtggdettgtggh",
"+2%%@%@>$22@%%@<+>22%%@%:22%%%@,+@2.>2@<+>2%22%>+@%%2@22%%%@2%@,",
"O88as*ajybv8=**1wvvbba*a787vassjyavaba*jyv78b8=jwavb=ava77vssavz",
"9ba7aavjya7a*aafwvavb**a=vv7bv*1&*avaa=1&v**877f&*a=8*7abvvaaavz",
"O8aa*av4yavaa*af#87*7***77v7va*1O*8vv*ajw***8871yaa*7avv7*77vavz",
"O77*a7*4#av*7=bjw8877*7*a8va7*=4#v7vaaajy*=*vbb4yvaav*77*87av**6",
"&7*7**71#a**77*fw8*77avava77*7*1w777va*1waav87*1&7*vaaa*bav**7*6",
"o*777*v1#7*avv7jyvaa7vva**77aavfwa77***fw*avvv71#7v*7*a77*7**v*l",
"9*87vvsf#7aa77bjegtgikguuputgggh&a777aafyaaa7*bzegggtgttkktttggh",
"Oav*v784wv*avv84$@>%:%2.>>%%22%>Osv*8*=j#v**a*b4$%>%%%%@>2%@%2%,",
"o7*a7784#*vvaa*1#aav=**=87*sbssj&vabb*vjy7*8b*84#8*vsa**v77asvbz",
"o7*ab*74w777**af#vvaaa*=77**7**4#77v7ab1y**78*8jy*vv=*av7v7*svb6",
"9av*7av1#v7vaavfyv7*avavvv**v*vfyv7*7**4#*va*7b1#77**aaavvvvvabz",
"o77*vv*f#*77*a*1#77*7**7a7a*77*1yvvavaaf#*87avbjyava7***b*va7a76",
"9**777*1#avvv**1#*7*7vavv*va77*1wv7baaafwavvvvs1yav*****87vav7*f",
"9aavvv7f#*78*aaf#777va**77aav7afwavba*afy*77vvahy7a7avvav87***76",
"0tigtggdegggtttdrgtgggtgtgtttgifekkkuuufruukxkcdwtkttttkudgkttgh",
"+%@.>@@ >22%2%%<$@2@222,+22@@2><#%2.2%%.22>222%2#%%%%%@<#22%2%%,",
"O**avv7vvvvasasf#vvava849a7*sb86&==*8***888vbb84&*abaasjya778==z",
"9aa*vavvba77**a1wvaavvafwav7avv4&7*a87*v8787b=81#7a77aajwaavsasz",
"9aaavvvvvav**7*1wvv*vvafyaaavvv1#7aav**vavv7**=1y77*7aa1#7aa7*al",
"9s7vava7=***7*=j#v7*7*74yb**7*71&=8*a*a7**77vabj&a77vva1y***7*86",
"o*v7vv*****a*7vfw7*77**1&a**77a6#*v*aa*vaav8*v71&**v87*1#***77v6",
"ovvav7**7*aaavvfwvav77afy7*a77*f#*7*7vavvavvbaaj#vvv77*1#*7a7786",
"rxggggtttkutgkkh97*va*bf#7aaavafegggggtkckugkuud9vv7*7*fyv7**vv6",
"+@>:%2%@>- 2@22>987*7=84yvaaaa=1+@>@>2%2>%22.2%>y*7a8784wa**avv6",
"9avv=***v*7a*7*6#a8s8774w7avba=jwvaa*7av7*7sbb=1&avaa7*1#**vvv76",
"O=vas***aav*7*71#aaa=7*4#77avaajyvvav78aa*7*7**jys7*=*af#aa77776",
"9aa*7a7avaaaavvfwv**vvajw777vaafyav*7777*ava777j&*7*aavlya*avvvz",
"O8=aaavva*vvavvfyaaa777j#77777a1&*vaa777*87*vab1&aaa**7fyaavav76",
"ya*7vaavvaav*7vjy**aavvfyvvvv7*fya7*aavvaa777*vj&a*bavvfyvavav*z",
"&*aaa7*v**vvavv1y**vavvjwvv7av*fy*vva*v7a*a*77vfyaa7avvfyaa7aav6",
"rppciixitipcpcphrpcciichrpxckpigrpckiiixixpccpchrcpcpxxhripcccch"
};
