/* XPM */
static char *texture_z_9[] = {
/* columns rows colors chars-per-pixel */
"64 64 63 1 ",
"  c #7A6CE7",
". c #7E6CE9",
"X c #6D77E2",
"o c #6D7EE7",
"O c #6D7EE9",
"+ c #7474E2",
"@ c #7E74E6",
"# c #747DE6",
"$ c #7D7DE2",
"% c #7E74EC",
"& c #747EED",
"* c #787EEE",
"= c #7E76F2",
"- c #777CF3",
"; c #7E7EF6",
": c #7E7EF8",
"> c #8C6EDF",
", c #8D75DE",
"< c #816CE9",
"1 c #8173E6",
"2 c #8873E2",
"3 c #837CE3",
"4 c #8A7EE4",
"5 c #8274EC",
"6 c #837AED",
"7 c #8C7EEA",
"8 c #917EE9",
"9 c #8177F3",
"0 c #817EF6",
"q c #897EF1",
"w c #817EF8",
"e c #6C81E7",
"r c #6F89E3",
"t c #6C81E9",
"y c #7481E5",
"u c #7C82E2",
"i c #7388E6",
"p c #7E89E4",
"a c #7481ED",
"s c #7A83EF",
"d c #778AEF",
"f c #7E8DE9",
"g c #7690E4",
"h c #7E91E9",
"j c #7680F2",
"k c #7E81F6",
"l c #7E89F1",
"z c #7E81F8",
"x c #8384E3",
"c c #8A81E4",
"v c #8189E4",
"b c #8B8BE1",
"n c #8C81EB",
"m c #818DE9",
"M c #8B88EA",
"N c #9181EA",
"B c #8390E7",
"V c #8E90E0",
"C c #8191E9",
"Z c #8181F6",
"A c #8981F0",
"S c #8189F1",
"D c #8181F8",
/* pixels */
"+.<.<<...<<.<<.<@<..2@ .<<.5...2+<<..<..<<<.<< <<<..1@@1<<..<. >",
"ok0:Z:Z:0ZZ:k:kZ:;:w7ujk000kk:wnykk:::::ZkZZk:;Z0:w:qujZ:00k0::N",
"OZ00Z00:0Z:;0k:::0kDAu:kZkZ0:kZ7yD;::00Z0kkk0kzk00w:03;:;k::0:Z8",
"e:0k0;:kZZ0kZkk;0Z00qy;:Z0:kZ:Zc#0;k:Z000Z0kZZkkZZ:;7xjk:k;:00D8",
"OkZZk0ZZk::000::w0Dw7$-0::0k:0k7#:0kkZZkZ00:Z0ZkDZkkn$-0::kkZZZ8",
"Ok:0:k;00ZkZ00::00ZkAu-00ZZ::0;4#0:0ZkkZZkkZ:0Zk00kZAu*::ZZk:0:8",
"ek::0Z;;00;;Z;;;kZ0:q$jZZ0Zkkk;7y;Z000k0Z0kkk:0-ZZZ:0$;;;00;kZ:8",
"tkkk0ZkkZ0;k0kkkZZ0zn#-Z0ZZ0kkk7yZZ0:0k000k;0:0k:0:00xjZkZk:0:ZN",
"tkkzZ00kkk0ZkZZkkk0:7$k:ZZ0k::k7yZ0-Z00kZ0;;k:0::0;;qukkkZ:ZkkZ8",
"OZkkkkSkSkkZZZZkkkkZny-ZZ::0:::n#kSZkZZZSZk0ZlZ0kkkZnu-:0;00Zkz8",
"ixxuvpxpxppvvuxupxxxv#*Z009k:;z7upxxppvxxxvppuuuxppxx#-z:;0Z:::n",
"X55%95%%5%3#6%5%%56*6$kZ:0ZkZkZn+%5%9%%5563#%%6%55556xjk;k;0Z:DN",
"tZZ:ZZk0:03&kkZkZZZzn$;0ZZZk0kk4ykZZZZjZ:03&:zkkZ0ZkS$;;kkkZ0kk7",
"tZ::0:::0ZcaZ;:0009w7ujZ0:::00:4ykZZZ0kk00caZ0kZZ00D7$;kZkZk09:N",
"e:;:0:Zk004*k:;ZZk00Zu;;00;kZZ:nykk00:ZkZZ4*::ZZkZZZA$-ZZkkkk;0N",
"tkklkkZ:wAx*kklZk:k06ujk00;ZkZkcykkZ:ZZ:k04a:kZ0:0Z0qxjZ:0kZjZZ8",
"&kkkkZk;ZZcawzkkkkzz7$kjZ0kZwkknykk:00:;0Z3&wZk:kZZkq$k:Z0kk:kkN",
"&k::kZkkDA4&DwZ:kZkzA$:zk:0ZDD:7ykkk::::00caD0:00ZZzA#kkZ:;:k:0N",
"o0;0k::zZ03aD00::0kkA$::w:0ww007#:::k:0:k0caw:kZ00ZzAukw:k0::k:8",
"o000:kkkkZcaz0:Zk00:7u;:0ww:0::7#0kk0kkZZZca::0Z00w;q$-:0::k00Zn",
"e:00:ZZ0:04aSlSlllmsmudmsmSlSlSn&k:kkZl0Z07ydlSlSldsMpilSSSdSllM",
"okZ000:k:Ac$3$@3$333@@$3$33$3$33#::0;Z;k0k4$,$3$$3$,11$,@33$$334",
"e;0:00k;003&0;9000;*00*9;6909004y900ZZZkk04#Z;9;9=:0;6;0*0=;00=4",
"ekZ0:A:-004*0:ZZ00kk;ZZkk::Z00:4yZZZZZkk-Zc*0:Zkk0kZkZ0k00;:00z8",
"O;;:ZZ::kZ3*:;:00;;;0ZZ;:kkZZ0:nyk00ZZDkkSca00w0kZZ0Zkk=00kZZ:;8",
"tkkZZ;;:ZAxjkkk0::0;ZZ0w:0kZk::cy:kZwZk:003jDkkw:kZkZkk:000kkk:8",
"OZZZ:;:0004&0;0::0::kZ:k:0Z::;07#;0000:::;4Ow0kZZZ:;:0:k::0::::8",
"eZkk;:000Z3*:;0k000ZZkZkk00:0:08yk009;;:0kcaZZzk00;:0:;;;A00Z::N",
"O0:;::0000x&kkZk:ZZZ000:kZ::::Z8yZ0k0:0ZkZ4&0::;000k::;:kZ00;=:8",
"tZ:zkk:0Z0,a00:kZZ00;00:k:kZkZZcyk::0Z00Z:ca:0;;0Z0Zk:kkZ0::kZkN",
"tkkDkkkSZ0caZZ0k:;Z0Z00k:ZkZkkZ7y;:0:000003akZ0kZ000;;0kkZ;0kZ;8",
"immfpfhfpmxpfmmvfmfmpfmmfffvfmfbudmmpmmmmmxpffmffmmmfmmmfffmmpvV",
"+%@@@@@@@15@@@@111113$@@.15@@@@2+$1@@1@@111@15@@@@@%3$@111@@1$@2",
"O0wkz;kkZ00k:;;kZZZwqyjk000DZkkn#z0zD0:zZ00:00;:Dk:07$-k0wZZkzDN",
"tZk0kkZkZZZ:wkkkZZkZq$;k:ZZ0DZ:7&:kkzk0:ZZk:000kZ:kk0$;kDZZ:kkZN",
"#0:k::0:Zk0kk:kkZ00:q$-k0ZZ0Zk;4o;AkZ;kkZ0::000ZZk::7ukZ0k0:0:DN",
"O0w0;;0kkkw:0k0kZZw0n$;::Z0k0;:7#Z0ZkkkZZ::0ZZk00kkkn$j0:00k0::8",
"O0;00k00:0::00:kw0:w0$jkZk00:0;7y000Zk;:Zk-Z00:000:kAu-ZZZ0;:0;8",
"o;00;;Z000;kZk0kkZkk7ukkk:Z0zZZcyk000:;kZ:kZZZ0:0Z0k0$j:0k;;:0:7",
"ek000Zkkk0kk::AkZ:kknxj;kkk:0ZZn#kk00kk0kZkk0:Zk00ZkA$k:0Zk;kZZN",
"tkZ:Z:0;kk0kZZ0:k:Z:7$:;0ZZkZZz7#kk:D::kZZ::k:DZzDD:0u-;00:kk0:7",
"oZkkZZZZZkkZlk::ZZkZn#=;00k0DkD7yZkZD:ZkZZkZzzZ0kZkDnu-zZ0Zk:ZDN",
"ixppvpvuxxmxpppppxppxyjz00;:w;:7uvvvmpvppppvxppvpvxvvy-w000:kZDN",
"X55@15%5163#5%6%55%%2ykkZZ;:::Zc+55%<%@%%%,+@555%5551ulkZZZZZZDn",
"e0k:Zkk0:04-ZZ:;w0::n$-:ZZk;9007iZZZZk:ZkZcazDDz:kZZ7#-0:;ZkZk:7",
"O;;:Z0:0ZZ4yS-=;0;0:AujZZk0kZ0:7yk0ZZkkZkZcaSZkD:kZ:7$-ZwkAkZ00n",
"tkkAZ:kZ004*w;kk:0ZD7u;k0;kkZZ:cykZZk;:ZkZ4#DZklk0k00u-kZZZ;k;08",
"tkkZ;kZ000xs::kk:00:q$jZ;0::k0wc#ZZZkkk:k04*DDZkjk::qx-00000;;:8",
"O:;;0::;0Zx&:kzkkZZzq$;:j00::0wn#:0;0;;:0Zca000;Z;kkAu;ZZD0Z:k;7",
"O-:zDZ0ZAZcazzZ::ZZ:nu;0::0:zDDNy:;;0;::004aD00:::kDA#jZkk0ww::N",
"tkk:zkqZDZ4-0;::ZZkkAukkDlZ0kZZ7#;:k00:k004*w::::0k:qukwZkkw0kzN",
"eZkkkZDSDZc&;:::ZZZkA#kkZkkkZDw7#0kkZ:0ZkAc*::Zk:00:qu-w0:kk0:kn",
"t:0ZkZk0k03ySsSSlllsMudsSlSlZslc&;;:::k0;04aSlSkllmSnpdldkllSlkM",
"oZZ0ZZk;0Z7$3$33u,$33@333$$$3334#kZ0kk;Zzkc$$33$$$$33@$$3$3$33x,",
"oZZkZ0:;003&909==0*0===99==;9==4#;0:ZZkZZZc#009==906=9==999=0994",
"eZZZk0:;90xaZZZk00:Zkk:l0:kkZZlnyZ:Z00kZZZ4sZkZjkZZ0:wzkkZ0;:0Z8",
"O;000:k:Z03*0000k:0:000:ZZkkZz:4#;0:0Z:0004&:00:k:0::00:Zk::kZ07",
"tk0Z:00jZ0xa00:w:::kZ00:Z0kkDkknykkZkZkZ00c&ZZ::0kZkk::00;:ZZZ08",
"O:Z;k:::Zkx&w;;00Zkk:0:0:00ZZkknyZZkDZ0z:;4aw::kkZk;:kkZ:k000Z08",
"yZkk0k0kZA4aZZZZZZ:;ZZkkZ0000kknyk0;0000;Sca000k;:00;kZZkkkkkZDN",
"O0:k;kZZk04akkZZZkkk:00::0w000k7y:0k:000:04aZZZ::kZk::k0zkkZZZ:7",
"tk:0kZZZkkca:0ZZZk:kkZZzZZZZk0;cyk0kkkZZkZ,a:0Zk;Z:ZkZZZkZZkk00N",
"a:kkk0:0:03*:Z0k0=:0kZ0kkZ:0:Z:n&;0ZkZk0:;x*000;kZk0k00::::0kkZ8",
"rfhmfhCmfCbghCCChhCCfhCCChCmmfhbigmmfmhmfmbgCmChhChmhhmChChmmCCV"
};
