/* XPM */
static char *texture_z_22[] = {
/* columns rows colors chars-per-pixel */
"64 64 103 2 ",
"   c #707070",
".  c #757575",
"X  c #767676",
"o  c #7C7C7C",
"O  c #808080",
"+  c #818181",
"@  c #828282",
"#  c #838383",
"$  c #848484",
"%  c #868686",
"&  c #888888",
"*  c #898989",
"=  c #8A8A8A",
"-  c #8B8B8B",
";  c #8C8C8C",
":  c #8D8D8D",
">  c #8E8E8E",
",  c #8F8F8F",
"<  c #909090",
"1  c #919191",
"2  c #929292",
"3  c #939393",
"4  c #949494",
"5  c #959595",
"6  c #969696",
"7  c #979797",
"8  c #989898",
"9  c #999999",
"0  c #9A9A9A",
"q  c #9B9B9B",
"w  c #9C9C9C",
"e  c #9D9D9D",
"r  c #9E9E9E",
"t  c #9F9F9F",
"y  c #A0A0A0",
"u  c #A1A1A1",
"i  c #A2A2A2",
"p  c #A3A3A3",
"a  c #A4A4A4",
"s  c #A5A5A5",
"d  c #A6A6A6",
"f  c #A7A7A7",
"g  c #A8A8A8",
"h  c #A9A9A9",
"j  c #AAAAAA",
"k  c #ABABAB",
"l  c #ACACAC",
"z  c #ADADAD",
"x  c #AEAEAE",
"c  c #AFAFAF",
"v  c #B0B0B0",
"b  c #B1B1B1",
"n  c #B2B2B2",
"m  c #B3B3B3",
"M  c #B4B4B4",
"N  c #B5B5B5",
"B  c #B6B6B6",
"V  c #B7B7B7",
"C  c #B8B8B8",
"Z  c #B9B9B9",
"A  c #BABABA",
"S  c #BBBBBB",
"D  c #BCBCBC",
"F  c #BDBDBD",
"G  c #BEBEBE",
"H  c #BFBFBF",
"J  c #C0C0C0",
"K  c #C1C1C1",
"L  c #C2C2C2",
"P  c #C3C3C3",
"I  c #C4C4C4",
"U  c #C5C5C5",
"Y  c #C6C6C6",
"T  c #C7C7C7",
"R  c #C8C8C8",
"E  c #C9C9C9",
"W  c #CACACA",
"Q  c #CBCBCB",
"!  c #CCCCCC",
"~  c #CDCDCD",
"^  c #CECECE",
"/  c #CFCFCF",
"(  c #D0D0D0",
")  c #D1D1D1",
"_  c #D2D2D2",
"`  c #D3D3D3",
"'  c #D4D4D4",
"]  c #D5D5D5",
"[  c #D6D6D6",
"{  c #D7D7D7",
"}  c #D8D8D8",
"|  c #D9D9D9",
" . c #DADADA",
".. c #DBDBDB",
"X. c #DCDCDC",
"o. c #DEDEDE",
"O. c #E0E0E0",
"+. c #E1E1E1",
"@. c #E2E2E2",
"#. c #E3E3E3",
"$. c #E4E4E4",
"%. c #E7E7E7",
"&. c #E8E8E8",
/* pixels */
"{ W F M M l f g l F l l l f l l l l M J A l f F l u g g l m l A M A A f l l m ~ J J m M g 7 m J g r 0 g l A F A u f u M m u A W ",
"( ( I J A l g l A l r u g u g l u m I A g f g F F g f 7 g A M g f l M l M J J ( M m g l u g ~ ~ l f r r r r f 0 m J M M M m J A ",
"I W I J A A l A I m u m m f l m A A m m f u u r g f f r g l m g u 0 l F I ( F A l m g m M m I ~ W M f g m u 7 2 l I J M A A A g ",
"F ( I I F M A F J l l A m u l J I A f l 2 2 f u f 0 r f l f m l m g m W ( ~ F m m u 0 u m u f I W F g M M u 7 2 g l I { ( J A m ",
"l A F m M A M l l A A A g f g I W F F M u u l g m M u 0 f g f m m A A F I W F M m l g f f r 0 l m g l M M m r 0 l A J ~ W A l M ",
"J m M A l F J F A l F F F A F W { W m l u f m ~ F m f r M M g F ~ J I A g l A m f r f g l g 0 u M u r f r l f M J A m M ~ I F J ",
"A A F J J M A W W f m J F F I W { W g M m f M I F f r r l A A I ( W W F g u m l r > 0 r g l r g A f 7 0 u m m M W I M m I I J J ",
"r A I ~ W m A I I J A I I J I W I I m l A l M M M f 0 r 7 f I W W W F M A M A F u 2 * u f m f f m f 0 r u l l l J F A I J I W F ",
"> 0 l J J l m f M J J F I J l l g A A A F F A M l r 0 u 0 r A I I J A I W F J A l u u g l A g r M F F A l m u g F M A F J J F m ",
"m f f l M M l l M l J W F J m M m A J I J m A A g 7 0 u r l F W ~ I W W I W I A l u A F m M A F J J ~ W F u 0 l g m J A f m F W ",
"F A l f l A m m M l J ~ I I W F F F m A F F I J M M l l l M J I ( ( W A l A M m m g A F F J { } W F F A M g g M F ~ I F g m I ~ ",
"J I A g F m M J l m I F W ( W J ( J f f J I A M F F M m l m M F ~ { { J m f m F l r u f M F { o.{ J M m A l u l I W ~ I M A F A ",
"J ~ l M J M F I M J I l J I I W ( I u 0 f M F A A m f l M l M J ~ } ~ I l u M F m g f f F A ~ o.( J M g f r u l F I ~ W M M J I ",
"M l M I A A I ( ( I F M I F W { ( W l f l A F F m f g M I l m I J F I F u u m I I F M A W F W ( W I M g l g f m f l A F W F F ~ ",
"g l W { ~ ~ W ~ { J m g F I { { W I W A l A F F I m m F J m F I F A I F u m g g W A M m M W I A A I A g f f u r 0 7 f M W { W J ",
"7 r m F I ~ ~ I ~ J A m l A A A M I W F m m F J ~ M m m g m m A l M A M l M g f F F F M M W F m M J g f r r g r 0 7 r f A ( F F ",
"0 > 0 l A l M { { M f g m g f m l I I I I M g A I F A m u r u l r u l m M f f A J F A J I M M I F F g f g 0 u l u 7 7 0 l A A I ",
"r * 7 r l f g W J l u g A f > 7 g l g F J J A A m F A l u * * 2 * 2 f g F l m W I F A I W M A W A g r r u u f u r r 0 r l M F m ",
"M f u u r g g m A A M m m f u l M u 0 m M ( W A l A M m f 7 7 r 0 r f m A J J F I ~ F M A A I J A 0 > 2 2 u r 7 2 r 0 l m A I A ",
"W I M g g l l u f m m u g m l l m l r m m J I I I M m M g f m l l m l M F J W I F F f u F I A m m f 7 0 0 0 f f r 7 f m M m m A ",
"F I F g l f f u g l g m f u r f l l u l m A I J J A M I A l A l u f g f m g A F A J m m F I I A m M M A l f l g u f g l A m m A ",
"J J I F A f r l l f m F M g g l A g u m A ~ ( ~ ~ M M W I A m f m g m l l 0 f A A J W I ~ ( ~ F J M J J M l l m A M m A J J A A ",
"F W I I J m 0 g M l f l g M J M M f g A I I W W ~ I A W J m g g F F m M f r u g A W W F M F A M F F I I J A M M F l f l l m m A ",
"M ( W W I M r F W J l l u g J A f 7 r l A F u u A I W W F f g M W ~ M m 2 7 > r F I J F g g g f A J A l l A f f l u l M g u f l ",
"m ~ { { J f u M W J A l A F W M r g g F I A f 7 l J J W J A g I J A m m 7 % * 7 l f m F F F A g m F m m g g l m M l l A m A A A ",
"F W { I g u l F J g g l m A F m g F J W ( A u l F M l m g M l F A m A m 2 O O 2 7 % r M A M M A m m g m g r g W I M f f u M J I ",
"A M l f f F W W F M l m g F J I I J J W W I m M J J u u l A J M M J M l 0 O * 0 0 l M F F M M F l r 0 r f u g M W ( l f l m J I ",
"J l u l A I ~ F F F F J F ( } ( { W F M g g f l W F m A I I { J I W A M l u f u l l m M A l m A m 0 r l m g M F } ~ A m A M J I ",
"M M g F { ( { ~ ~ ~ I F J J I ( } ( J M g g u u M A J I I ( ( F I J m m F A m g l l m g l f u M I A l M M A J I { W J A A I W J ",
"g g m J W } $.#.} ( { ~ ~ J M I ~ W J l m M g g M M J W ~ } ~ F m l m F F F F u * r m l J M m J ~ J g 0 f F F W ( F A I ~ { ( ( ",
"r u g l M I ( ( J ( } { o.~ A F I W W A M A m g A A J M M J F m r f F J A J F g 7 u l r F I m A W J F f u A m l J F I J A F W ~ ",
"> 0 u u l F I J I { ( W I W F F I I A M M J A f f l A m l m m m u A J F J W F A M m g u g M g m J I M l M ~ J m m m I W J W W I ",
"r 2 0 r l f M W I ~ A F F A ~ o.o.( A A l f u A l l f m m M I I l F F F ( F M J J A g m f 2 u J J I A A F I A A g l A I J W { ( ",
"l r 7 7 u m M W ( J l m m A ( $.o.I A g 0 2 u F W J M l g f A A r F W I W A F ~ W F l m f > f I l M J M l m M F I F m g m M J F ",
"l 0 2 7 7 M f m W J M A A A { #.~ M M m g 0 f M W I A g r 2 r u u l A l f m A I I F M F m r m A m l M F F F F M J m u 0 r f m g ",
"l u * 0 r g f m A F M g m A W ( ~ A g l l f l M W M M m f * u g l W m f u f F W J l M J I m m l g g M J J A F l l f f u f u m f ",
"M M r r g m l l g A A m l m m F W A A A M A M F ~ J m m l f m F F W l u r u M F m M W ( W M m l 0 > l I F A A m A A l f f g m m ",
"( F F J l J F l l l A ~ ~ M M F J A F W A I A A F M A l J I F ~ ( J M u 2 2 m J M g ~ { W A m A M f l A l m F F M m m g F M A W ",
"( ~ ( ~ F J I A F M F W I A m m A M M ( I F f f M J W A J I J J J J F m f r m F M f I ~ I F A F I F g m l f m F m l m m ~ ( J W ",
"I } o.I I A A M F J M M A J m g l g l m m g r r m M M F F m A M m I J A l u M F g g f A A F A M F A l f M m l J F g A F W W J F ",
"M F W I W M m u A A A F I I g r l m m m f l f l M f g A A g m m m A A A l 0 l A M f f m F J m r l M l g m F m W ~ g A J I I F F ",
"I F I { ( I F M A A M m f M A A A M A A m M F ~ A 0 r f f u l M A M m l f g m m m f A F l M M m m m m g l l M ~ I m m l J I A M ",
"W I J W ~ ( I F J W A g 0 l W I J A g m A W W ( W A l m m l M A I F g u 7 u g l m M I I m A I M m M 0 2 r M ~ ( ~ I F M I F l f ",
"~ W I F I J W W J A A l g m m M W m f f M A M J I F J F A A m m I I M l l r f M l A W J ~ ( J g F J f 0 f g m F J M J A m g r 0 ",
"W I A I W J I W W W J l m u r M J m l A l u M F F A F I W F m A A J f g m m F F F W J m W J M m M I A g f r l I M M M l f r u g ",
"J I { #.~ J W ( W ~ W l u r F ~ W I J I A g M J g l M J o.W F ~ F l f u r f M M m F m f g 0 g m m m l g M A I ( F A g r l u r l ",
"A ~ #.#.~ ~ W I I ~ W g > l ( { } { ~ I A l M A g u f A ( I W W l g l > 2 u l u f l m u % > 7 0 g l l l m M A A J l u 0 u g l g ",
"l F W ~ I W ( J I ( ( m f l F I ( } W I J M A A A l g A ~ ~ J M f f 7 o * f l g l M F l > O   . 2 m l M A M J A F A g u r m A F ",
"m m I } { I ( } { J m g m m F ~ ( #.{ W W J m g M W F J ( ( I m f f u 0 r r f A F M m g f > . O * r A A A A W ( I F M f f r A { ",
"M W { o.$.#.#.o.J m u 0 u l A F W ( J W I A J A I #.( I { } ~ f 7 r m F M g M ( A M g 7 7 > O % 7 r f f 0 l I A l J F l g f J I ",
"I } { { #.$.#.J m M f r r f A W } I l J A M M J F W ~ ~ ~ ~ F g r u M W J M F W I ~ F 7 o > 0 r m g r f 0 l m l 0 f A A l g J I ",
"I J J J W ~ ~ l r g f g F F J I ~ A u g f f f g l u m A M m A l l m M A F A I I I ~ J u 0 f f f m m g l u r u g f 0 g m f u M J ",
"l m A g M m l r r g l F I I W W J M m M g g g m l f l M M M J A m F J l A J ~ F J ~ I l r f f f l A J A u > 2 u g l m M F m M l ",
"~ J F M l 2 0 f u r J ~ ~ W W F J A F J m M F I M u F ~ ( J I F J I I M A M W I F ~ ( A l m g f F F J A r 2 7 g g l A I { W A u ",
"o.J l F m 7 r l f f F W W J M g M m M J F M I I A m I { { I ~ W I W J J A f A M g l f l f u f l ~ W F M l g M W I I A F ( ~ J M ",
"J A g u u g g F I m l F I A l g M M g m m F M F F A J W ~ J W I I W J J A m l l u 7 7 u 7 2 r f J J m l m M m J ~ I J J } o.J l ",
"M A F l f g g J } I I J I W A l m J A J F A g l F m g I F m m J I W I I W m l m u f g 0 g u 2 7 g A A A J J A M A A W { } { l m ",
"F J W M m M l J ~ ~ { ~ W I F J M W I W I A M M A u f m r u m I W W W W I m g m g f g f g r 0 l m J A m F J ~ { J I { ( I W A F ",
"m m l m l F F W I ( ~ { } ( ( { I J F A I J W F F M f r 0 r m M A F l M M l f f g F m m u r r g g l l l A I { W ~ o.} ( ~ { W M ",
"m u g M l F J A F F J W o.o.{ ( I M M J W A F A I F m g u 2 f l A m m F A A l 0 g M M M m l f f m A M M M F I A F I { { ( ~ J m ",
"l f u f M J J m M F J M J W A m l g M I W W J J ~ ~ I m r 7 0 f l M m A W I m l M m g f m l f f m F F A F I ~ m m I ( ~ A F l l ",
"f u m M l m m m g m J m M J l l 0 2 l A ~ ( F I ~ J A l u u r l f m m M F J F l m m A m m l u u M m m l A W A l m M m F F I J A ",
"0 7 g M l l g f u m I M F F l l u g W I A A m l m l m f r 7 0 g r M A g g l m f u m I I F M f 0 l u m l A A l f m m M m l A F M ",
"0 r f g f M M M M F A l l A g u g I I A l F m u u f F m u r r g u A F M g M M l l A F I M M g 0 0 f f l m A A l m g A A l l l m "
};
